G04 EAGLE Gerber RS-274X export*
G75*
%MOMM*%
%FSLAX34Y34*%
%LPD*%
%INBottom Copper*%
%IPPOS*%
%AMOC8*
5,1,8,0,0,1.08239X$1,22.5*%
G01*
%ADD10R,1.308000X1.308000*%
%ADD11C,1.308000*%
%ADD12C,1.508000*%
%ADD13C,1.422400*%
%ADD14C,1.778000*%
%ADD15C,0.756400*%
%ADD16C,0.406400*%
%ADD17C,0.152400*%

G36*
X423572Y35567D02*
X423572Y35567D01*
X423622Y35565D01*
X423729Y35587D01*
X423838Y35601D01*
X423884Y35619D01*
X423933Y35629D01*
X424032Y35677D01*
X424134Y35718D01*
X424174Y35747D01*
X424219Y35769D01*
X424302Y35840D01*
X424391Y35904D01*
X424423Y35943D01*
X424461Y35975D01*
X424524Y36065D01*
X424594Y36149D01*
X424615Y36194D01*
X424644Y36235D01*
X424683Y36338D01*
X424730Y36437D01*
X424739Y36486D01*
X424757Y36532D01*
X424769Y36642D01*
X424789Y36749D01*
X424786Y36799D01*
X424792Y36848D01*
X424776Y36957D01*
X424770Y37067D01*
X424754Y37114D01*
X424747Y37163D01*
X424695Y37316D01*
X422989Y41434D01*
X422989Y47466D01*
X425297Y53038D01*
X429562Y57303D01*
X435134Y59611D01*
X441166Y59611D01*
X445338Y57882D01*
X445386Y57869D01*
X445431Y57848D01*
X445539Y57827D01*
X445645Y57798D01*
X445695Y57798D01*
X445744Y57788D01*
X445853Y57795D01*
X445963Y57793D01*
X446011Y57805D01*
X446061Y57808D01*
X446165Y57842D01*
X446272Y57868D01*
X446316Y57891D01*
X446363Y57906D01*
X446456Y57965D01*
X446553Y58016D01*
X446590Y58050D01*
X446632Y58076D01*
X446707Y58156D01*
X446789Y58230D01*
X446816Y58272D01*
X446850Y58308D01*
X446903Y58404D01*
X446963Y58496D01*
X446980Y58543D01*
X447004Y58586D01*
X447031Y58693D01*
X447067Y58797D01*
X447071Y58846D01*
X447083Y58894D01*
X447093Y59055D01*
X447093Y525145D01*
X447087Y525194D01*
X447089Y525244D01*
X447067Y525351D01*
X447053Y525461D01*
X447035Y525507D01*
X447025Y525555D01*
X446977Y525654D01*
X446936Y525756D01*
X446907Y525796D01*
X446885Y525841D01*
X446814Y525925D01*
X446750Y526014D01*
X446711Y526045D01*
X446679Y526083D01*
X446589Y526146D01*
X446505Y526216D01*
X446460Y526238D01*
X446419Y526266D01*
X446316Y526305D01*
X446217Y526352D01*
X446168Y526361D01*
X446122Y526379D01*
X446012Y526391D01*
X445905Y526412D01*
X445855Y526409D01*
X445806Y526414D01*
X445697Y526399D01*
X445587Y526392D01*
X445540Y526377D01*
X445491Y526370D01*
X445338Y526318D01*
X441166Y524589D01*
X435134Y524589D01*
X429562Y526897D01*
X425297Y531162D01*
X422989Y536734D01*
X422989Y542766D01*
X424696Y546886D01*
X424709Y546934D01*
X424730Y546979D01*
X424751Y547087D01*
X424780Y547193D01*
X424781Y547243D01*
X424790Y547292D01*
X424783Y547401D01*
X424785Y547511D01*
X424774Y547559D01*
X424770Y547609D01*
X424737Y547713D01*
X424711Y547820D01*
X424688Y547864D01*
X424672Y547911D01*
X424614Y548004D01*
X424562Y548101D01*
X424529Y548138D01*
X424502Y548180D01*
X424422Y548255D01*
X424348Y548337D01*
X424307Y548364D01*
X424271Y548398D01*
X424175Y548451D01*
X424083Y548511D01*
X424036Y548528D01*
X423992Y548552D01*
X423886Y548579D01*
X423782Y548615D01*
X423732Y548619D01*
X423684Y548631D01*
X423523Y548641D01*
X33677Y548641D01*
X33627Y548635D01*
X33578Y548637D01*
X33470Y548615D01*
X33361Y548601D01*
X33315Y548583D01*
X33266Y548573D01*
X33167Y548525D01*
X33065Y548484D01*
X33025Y548455D01*
X32980Y548433D01*
X32897Y548362D01*
X32808Y548298D01*
X32776Y548259D01*
X32738Y548227D01*
X32675Y548137D01*
X32605Y548053D01*
X32584Y548008D01*
X32555Y547967D01*
X32516Y547864D01*
X32470Y547765D01*
X32460Y547716D01*
X32443Y547670D01*
X32430Y547560D01*
X32410Y547453D01*
X32413Y547403D01*
X32407Y547354D01*
X32423Y547245D01*
X32430Y547135D01*
X32445Y547088D01*
X32452Y547039D01*
X32504Y546886D01*
X34211Y542766D01*
X34211Y536734D01*
X31903Y531162D01*
X27638Y526897D01*
X22066Y524589D01*
X16034Y524589D01*
X12154Y526197D01*
X12106Y526210D01*
X12061Y526231D01*
X11953Y526252D01*
X11847Y526281D01*
X11797Y526281D01*
X11749Y526291D01*
X11639Y526284D01*
X11529Y526286D01*
X11481Y526274D01*
X11432Y526271D01*
X11327Y526237D01*
X11220Y526212D01*
X11176Y526188D01*
X11129Y526173D01*
X11036Y526114D01*
X10939Y526063D01*
X10902Y526030D01*
X10860Y526003D01*
X10785Y525923D01*
X10703Y525849D01*
X10676Y525808D01*
X10642Y525772D01*
X10589Y525675D01*
X10528Y525583D01*
X10512Y525536D01*
X10489Y525493D01*
X10461Y525387D01*
X10425Y525282D01*
X10421Y525233D01*
X10409Y525185D01*
X10399Y525025D01*
X10177Y59085D01*
X10183Y59035D01*
X10181Y58985D01*
X10203Y58878D01*
X10216Y58769D01*
X10235Y58722D01*
X10245Y58674D01*
X10293Y58575D01*
X10333Y58473D01*
X10363Y58433D01*
X10385Y58388D01*
X10456Y58305D01*
X10520Y58216D01*
X10559Y58184D01*
X10591Y58146D01*
X10680Y58083D01*
X10765Y58013D01*
X10810Y57992D01*
X10851Y57963D01*
X10954Y57924D01*
X11053Y57877D01*
X11102Y57868D01*
X11148Y57850D01*
X11257Y57838D01*
X11365Y57817D01*
X11415Y57820D01*
X11464Y57815D01*
X11573Y57830D01*
X11682Y57837D01*
X11730Y57852D01*
X11779Y57859D01*
X11932Y57911D01*
X16034Y59611D01*
X22066Y59611D01*
X27638Y57303D01*
X31903Y53038D01*
X34211Y47466D01*
X34211Y41434D01*
X32505Y37316D01*
X32492Y37268D01*
X32470Y37223D01*
X32450Y37115D01*
X32421Y37009D01*
X32420Y36959D01*
X32411Y36910D01*
X32417Y36801D01*
X32416Y36691D01*
X32427Y36643D01*
X32430Y36593D01*
X32464Y36489D01*
X32490Y36382D01*
X32513Y36338D01*
X32528Y36291D01*
X32587Y36198D01*
X32639Y36101D01*
X32672Y36064D01*
X32699Y36022D01*
X32779Y35947D01*
X32853Y35865D01*
X32894Y35838D01*
X32930Y35804D01*
X33026Y35751D01*
X33118Y35691D01*
X33165Y35674D01*
X33209Y35650D01*
X33315Y35623D01*
X33419Y35587D01*
X33469Y35583D01*
X33517Y35571D01*
X33677Y35561D01*
X423523Y35561D01*
X423572Y35567D01*
G37*
%LPC*%
G36*
X421957Y69953D02*
X421957Y69953D01*
X417849Y71655D01*
X414705Y74799D01*
X413003Y78907D01*
X413003Y83353D01*
X414705Y87461D01*
X417476Y90232D01*
X417549Y90327D01*
X417628Y90416D01*
X417646Y90452D01*
X417671Y90484D01*
X417719Y90593D01*
X417773Y90699D01*
X417781Y90738D01*
X417798Y90776D01*
X417816Y90893D01*
X417842Y91009D01*
X417841Y91050D01*
X417847Y91090D01*
X417836Y91208D01*
X417833Y91327D01*
X417821Y91366D01*
X417818Y91406D01*
X417777Y91519D01*
X417744Y91633D01*
X417724Y91667D01*
X417710Y91706D01*
X417643Y91804D01*
X417583Y91907D01*
X417543Y91952D01*
X417531Y91969D01*
X417516Y91982D01*
X417476Y92027D01*
X414705Y94799D01*
X413159Y98530D01*
X413145Y98555D01*
X413136Y98583D01*
X413066Y98693D01*
X413002Y98806D01*
X412981Y98827D01*
X412966Y98852D01*
X412871Y98941D01*
X412781Y99034D01*
X412755Y99050D01*
X412734Y99070D01*
X412620Y99133D01*
X412510Y99201D01*
X412481Y99209D01*
X412455Y99224D01*
X412330Y99256D01*
X412206Y99294D01*
X412176Y99296D01*
X412148Y99303D01*
X411987Y99313D01*
X345614Y99313D01*
X345496Y99298D01*
X345377Y99291D01*
X345339Y99278D01*
X345298Y99273D01*
X345188Y99230D01*
X345075Y99193D01*
X345040Y99171D01*
X345003Y99156D01*
X344907Y99087D01*
X344806Y99023D01*
X344778Y98993D01*
X344745Y98970D01*
X344669Y98878D01*
X344588Y98791D01*
X344568Y98756D01*
X344543Y98725D01*
X344492Y98617D01*
X344434Y98513D01*
X344424Y98473D01*
X344407Y98437D01*
X344385Y98320D01*
X344355Y98205D01*
X344351Y98145D01*
X344347Y98125D01*
X344349Y98104D01*
X344345Y98044D01*
X344345Y95562D01*
X342578Y91296D01*
X339314Y88032D01*
X335048Y86265D01*
X330432Y86265D01*
X326166Y88032D01*
X322902Y91296D01*
X321213Y95375D01*
X321144Y95495D01*
X321079Y95619D01*
X321065Y95634D01*
X321055Y95651D01*
X320958Y95751D01*
X320865Y95854D01*
X320848Y95865D01*
X320834Y95880D01*
X320716Y95952D01*
X320599Y96029D01*
X320580Y96035D01*
X320563Y96046D01*
X320430Y96087D01*
X320298Y96132D01*
X320278Y96134D01*
X320259Y96139D01*
X320120Y96146D01*
X319981Y96157D01*
X319961Y96154D01*
X319941Y96155D01*
X319805Y96126D01*
X319668Y96103D01*
X319649Y96094D01*
X319630Y96090D01*
X319505Y96029D01*
X319378Y95972D01*
X319362Y95960D01*
X319344Y95951D01*
X319238Y95860D01*
X319130Y95774D01*
X319117Y95757D01*
X319102Y95744D01*
X319022Y95631D01*
X318938Y95519D01*
X318926Y95494D01*
X318919Y95484D01*
X318912Y95465D01*
X318867Y95375D01*
X317178Y91296D01*
X313914Y88032D01*
X309648Y86265D01*
X305032Y86265D01*
X300766Y88032D01*
X297502Y91296D01*
X295735Y95562D01*
X295735Y115258D01*
X297502Y119524D01*
X300766Y122788D01*
X305032Y124555D01*
X305054Y124555D01*
X305172Y124570D01*
X305291Y124577D01*
X305329Y124590D01*
X305370Y124595D01*
X305480Y124638D01*
X305593Y124675D01*
X305628Y124697D01*
X305665Y124712D01*
X305761Y124781D01*
X305862Y124845D01*
X305890Y124875D01*
X305923Y124898D01*
X305999Y124990D01*
X306080Y125077D01*
X306100Y125112D01*
X306125Y125143D01*
X306176Y125251D01*
X306234Y125355D01*
X306244Y125395D01*
X306261Y125431D01*
X306283Y125548D01*
X306313Y125663D01*
X306317Y125723D01*
X306321Y125743D01*
X306319Y125764D01*
X306323Y125824D01*
X306323Y207264D01*
X306308Y207382D01*
X306301Y207501D01*
X306288Y207539D01*
X306283Y207580D01*
X306240Y207690D01*
X306203Y207803D01*
X306181Y207838D01*
X306166Y207875D01*
X306097Y207971D01*
X306033Y208072D01*
X306003Y208100D01*
X305980Y208133D01*
X305888Y208209D01*
X305801Y208290D01*
X305766Y208310D01*
X305735Y208335D01*
X305627Y208386D01*
X305523Y208444D01*
X305483Y208454D01*
X305447Y208471D01*
X305330Y208493D01*
X305215Y208523D01*
X305155Y208527D01*
X305135Y208531D01*
X305114Y208529D01*
X305054Y208533D01*
X300635Y208533D01*
X300605Y208530D01*
X300576Y208532D01*
X300448Y208510D01*
X300319Y208493D01*
X300292Y208483D01*
X300263Y208478D01*
X300144Y208424D01*
X300024Y208376D01*
X300000Y208359D01*
X299973Y208347D01*
X299871Y208266D01*
X299766Y208190D01*
X299747Y208167D01*
X299724Y208148D01*
X299646Y208045D01*
X299563Y207945D01*
X299551Y207918D01*
X299533Y207894D01*
X299462Y207750D01*
X299272Y207292D01*
X295628Y203648D01*
X294313Y203103D01*
X294192Y203034D01*
X294069Y202969D01*
X294054Y202955D01*
X294037Y202945D01*
X293937Y202848D01*
X293834Y202755D01*
X293823Y202738D01*
X293808Y202724D01*
X293736Y202606D01*
X293659Y202489D01*
X293652Y202470D01*
X293642Y202453D01*
X293601Y202320D01*
X293556Y202188D01*
X293554Y202168D01*
X293548Y202149D01*
X293542Y202010D01*
X293531Y201871D01*
X293534Y201851D01*
X293533Y201831D01*
X293561Y201695D01*
X293585Y201558D01*
X293593Y201539D01*
X293597Y201520D01*
X293659Y201395D01*
X293716Y201268D01*
X293728Y201252D01*
X293737Y201234D01*
X293827Y201128D01*
X293914Y201020D01*
X293930Y201007D01*
X293943Y200992D01*
X294057Y200912D01*
X294168Y200828D01*
X294193Y200816D01*
X294204Y200809D01*
X294223Y200802D01*
X294313Y200757D01*
X295628Y200213D01*
X299273Y196568D01*
X301245Y191807D01*
X301245Y186653D01*
X299273Y181892D01*
X295628Y178247D01*
X294313Y177703D01*
X294193Y177634D01*
X294069Y177569D01*
X294054Y177555D01*
X294037Y177545D01*
X293937Y177449D01*
X293834Y177355D01*
X293823Y177338D01*
X293808Y177324D01*
X293735Y177205D01*
X293659Y177089D01*
X293653Y177070D01*
X293642Y177053D01*
X293601Y176920D01*
X293556Y176788D01*
X293554Y176768D01*
X293548Y176749D01*
X293542Y176610D01*
X293531Y176471D01*
X293534Y176451D01*
X293533Y176431D01*
X293561Y176295D01*
X293585Y176158D01*
X293593Y176139D01*
X293597Y176120D01*
X293659Y175995D01*
X293716Y175868D01*
X293728Y175852D01*
X293737Y175834D01*
X293827Y175728D01*
X293914Y175620D01*
X293930Y175607D01*
X293944Y175592D01*
X294057Y175512D01*
X294168Y175428D01*
X294194Y175416D01*
X294204Y175409D01*
X294223Y175402D01*
X294313Y175357D01*
X295628Y174813D01*
X299273Y171168D01*
X301245Y166407D01*
X301245Y161253D01*
X299273Y156492D01*
X295628Y152847D01*
X290867Y150875D01*
X285713Y150875D01*
X280952Y152847D01*
X277307Y156492D01*
X275335Y161253D01*
X275335Y164084D01*
X275320Y164202D01*
X275313Y164321D01*
X275300Y164359D01*
X275295Y164400D01*
X275252Y164510D01*
X275215Y164623D01*
X275193Y164658D01*
X275178Y164695D01*
X275109Y164791D01*
X275045Y164892D01*
X275015Y164920D01*
X274992Y164953D01*
X274900Y165029D01*
X274813Y165110D01*
X274778Y165130D01*
X274747Y165155D01*
X274639Y165206D01*
X274535Y165264D01*
X274495Y165274D01*
X274459Y165291D01*
X274342Y165313D01*
X274227Y165343D01*
X274167Y165347D01*
X274147Y165351D01*
X274126Y165349D01*
X274066Y165353D01*
X209860Y165353D01*
X208086Y166088D01*
X207089Y167085D01*
X207066Y167103D01*
X207047Y167125D01*
X206941Y167200D01*
X206838Y167279D01*
X206811Y167291D01*
X206787Y167308D01*
X206666Y167354D01*
X206546Y167406D01*
X206517Y167410D01*
X206490Y167421D01*
X206361Y167435D01*
X206232Y167456D01*
X206203Y167453D01*
X206173Y167456D01*
X206045Y167438D01*
X205916Y167426D01*
X205888Y167416D01*
X205859Y167412D01*
X205706Y167360D01*
X205309Y167195D01*
X201091Y167195D01*
X197193Y168810D01*
X194210Y171793D01*
X192595Y175691D01*
X192595Y179909D01*
X194210Y183807D01*
X197193Y186790D01*
X201091Y188405D01*
X205309Y188405D01*
X209207Y186790D01*
X212190Y183807D01*
X213805Y179909D01*
X213805Y176276D01*
X213820Y176158D01*
X213827Y176039D01*
X213840Y176001D01*
X213845Y175960D01*
X213888Y175850D01*
X213925Y175737D01*
X213947Y175702D01*
X213962Y175665D01*
X214031Y175569D01*
X214095Y175468D01*
X214125Y175440D01*
X214148Y175407D01*
X214240Y175331D01*
X214327Y175250D01*
X214362Y175230D01*
X214393Y175205D01*
X214501Y175154D01*
X214605Y175096D01*
X214645Y175086D01*
X214681Y175069D01*
X214798Y175047D01*
X214913Y175017D01*
X214973Y175013D01*
X214993Y175009D01*
X215014Y175011D01*
X215074Y175007D01*
X281168Y175007D01*
X281177Y175008D01*
X281187Y175007D01*
X281335Y175028D01*
X281484Y175047D01*
X281492Y175050D01*
X281502Y175051D01*
X281654Y175103D01*
X282267Y175357D01*
X282388Y175426D01*
X282511Y175491D01*
X282526Y175505D01*
X282543Y175515D01*
X282643Y175611D01*
X282746Y175705D01*
X282757Y175722D01*
X282772Y175736D01*
X282844Y175854D01*
X282921Y175971D01*
X282927Y175990D01*
X282938Y176007D01*
X282979Y176140D01*
X283024Y176272D01*
X283026Y176292D01*
X283032Y176311D01*
X283038Y176450D01*
X283049Y176589D01*
X283046Y176609D01*
X283047Y176629D01*
X283019Y176765D01*
X282995Y176902D01*
X282987Y176920D01*
X282983Y176940D01*
X282921Y177065D01*
X282864Y177192D01*
X282852Y177208D01*
X282843Y177226D01*
X282753Y177332D01*
X282666Y177440D01*
X282650Y177453D01*
X282636Y177468D01*
X282523Y177548D01*
X282412Y177632D01*
X282386Y177644D01*
X282376Y177651D01*
X282358Y177658D01*
X282267Y177703D01*
X280952Y178247D01*
X277307Y181892D01*
X275335Y186653D01*
X275335Y189484D01*
X275320Y189602D01*
X275313Y189721D01*
X275300Y189759D01*
X275295Y189800D01*
X275252Y189910D01*
X275215Y190023D01*
X275193Y190058D01*
X275178Y190095D01*
X275109Y190191D01*
X275045Y190292D01*
X275015Y190320D01*
X274992Y190353D01*
X274900Y190429D01*
X274813Y190510D01*
X274778Y190530D01*
X274747Y190555D01*
X274639Y190606D01*
X274535Y190664D01*
X274495Y190674D01*
X274459Y190691D01*
X274342Y190713D01*
X274227Y190743D01*
X274167Y190747D01*
X274147Y190751D01*
X274126Y190749D01*
X274066Y190753D01*
X209860Y190753D01*
X208086Y191488D01*
X207089Y192485D01*
X207066Y192503D01*
X207047Y192525D01*
X206941Y192600D01*
X206838Y192679D01*
X206811Y192691D01*
X206787Y192708D01*
X206666Y192754D01*
X206546Y192806D01*
X206517Y192810D01*
X206490Y192821D01*
X206361Y192835D01*
X206232Y192856D01*
X206203Y192853D01*
X206173Y192856D01*
X206045Y192838D01*
X205916Y192826D01*
X205888Y192816D01*
X205859Y192812D01*
X205706Y192760D01*
X205309Y192595D01*
X201091Y192595D01*
X197193Y194210D01*
X194210Y197193D01*
X192595Y201091D01*
X192595Y205309D01*
X194210Y209207D01*
X197193Y212190D01*
X201091Y213805D01*
X205309Y213805D01*
X209207Y212190D01*
X212190Y209207D01*
X213805Y205309D01*
X213805Y201676D01*
X213820Y201558D01*
X213827Y201439D01*
X213840Y201401D01*
X213845Y201360D01*
X213888Y201250D01*
X213925Y201137D01*
X213947Y201102D01*
X213962Y201065D01*
X214031Y200969D01*
X214095Y200868D01*
X214125Y200840D01*
X214148Y200807D01*
X214240Y200731D01*
X214327Y200650D01*
X214362Y200630D01*
X214393Y200605D01*
X214501Y200554D01*
X214605Y200496D01*
X214645Y200486D01*
X214681Y200469D01*
X214798Y200447D01*
X214913Y200417D01*
X214973Y200413D01*
X214993Y200409D01*
X215014Y200411D01*
X215074Y200407D01*
X281168Y200407D01*
X281177Y200408D01*
X281187Y200407D01*
X281335Y200428D01*
X281484Y200447D01*
X281492Y200450D01*
X281502Y200451D01*
X281654Y200503D01*
X282267Y200757D01*
X282388Y200826D01*
X282511Y200891D01*
X282526Y200905D01*
X282543Y200915D01*
X282643Y201012D01*
X282746Y201105D01*
X282757Y201122D01*
X282772Y201136D01*
X282845Y201255D01*
X282921Y201371D01*
X282928Y201390D01*
X282938Y201407D01*
X282979Y201540D01*
X283024Y201672D01*
X283026Y201692D01*
X283032Y201711D01*
X283038Y201850D01*
X283049Y201989D01*
X283046Y202009D01*
X283047Y202029D01*
X283019Y202165D01*
X282995Y202302D01*
X282987Y202321D01*
X282983Y202340D01*
X282921Y202466D01*
X282864Y202592D01*
X282852Y202608D01*
X282843Y202626D01*
X282753Y202732D01*
X282666Y202840D01*
X282650Y202853D01*
X282636Y202868D01*
X282523Y202948D01*
X282412Y203032D01*
X282387Y203044D01*
X282376Y203051D01*
X282357Y203058D01*
X282267Y203103D01*
X280952Y203648D01*
X277307Y207292D01*
X275335Y212053D01*
X275335Y217207D01*
X277307Y221968D01*
X280952Y225613D01*
X285713Y227585D01*
X290867Y227585D01*
X295628Y225613D01*
X299272Y221968D01*
X299462Y221510D01*
X299477Y221485D01*
X299486Y221457D01*
X299555Y221347D01*
X299620Y221234D01*
X299640Y221213D01*
X299656Y221188D01*
X299751Y221099D01*
X299841Y221006D01*
X299866Y220990D01*
X299888Y220970D01*
X300002Y220907D01*
X300112Y220839D01*
X300140Y220831D01*
X300166Y220816D01*
X300292Y220784D01*
X300416Y220746D01*
X300446Y220744D01*
X300474Y220737D01*
X300635Y220727D01*
X355154Y220727D01*
X355252Y220739D01*
X355351Y220742D01*
X355409Y220759D01*
X355470Y220767D01*
X355562Y220803D01*
X355657Y220831D01*
X355709Y220861D01*
X355765Y220884D01*
X355845Y220942D01*
X355931Y220992D01*
X356006Y221058D01*
X356023Y221070D01*
X356030Y221080D01*
X356052Y221099D01*
X356235Y221282D01*
X359119Y222477D01*
X362241Y222477D01*
X365125Y221282D01*
X367332Y219075D01*
X368527Y216191D01*
X368527Y213069D01*
X367332Y210185D01*
X365125Y207978D01*
X362241Y206783D01*
X359119Y206783D01*
X356235Y207978D01*
X356052Y208161D01*
X355973Y208222D01*
X355901Y208290D01*
X355848Y208319D01*
X355800Y208356D01*
X355709Y208396D01*
X355623Y208444D01*
X355564Y208459D01*
X355508Y208483D01*
X355411Y208498D01*
X355315Y208523D01*
X355214Y208529D01*
X355194Y208533D01*
X355182Y208531D01*
X355154Y208533D01*
X319786Y208533D01*
X319668Y208518D01*
X319549Y208511D01*
X319511Y208498D01*
X319470Y208493D01*
X319360Y208450D01*
X319247Y208413D01*
X319212Y208391D01*
X319175Y208376D01*
X319079Y208307D01*
X318978Y208243D01*
X318950Y208213D01*
X318917Y208190D01*
X318841Y208098D01*
X318760Y208011D01*
X318740Y207976D01*
X318715Y207945D01*
X318664Y207837D01*
X318606Y207733D01*
X318596Y207693D01*
X318579Y207657D01*
X318557Y207540D01*
X318527Y207425D01*
X318523Y207365D01*
X318519Y207345D01*
X318521Y207324D01*
X318517Y207264D01*
X318517Y116544D01*
X318518Y116535D01*
X318517Y116526D01*
X318538Y116377D01*
X318557Y116229D01*
X318560Y116220D01*
X318561Y116211D01*
X318613Y116058D01*
X318867Y115445D01*
X318936Y115324D01*
X319001Y115201D01*
X319015Y115186D01*
X319025Y115169D01*
X319122Y115069D01*
X319215Y114966D01*
X319232Y114955D01*
X319246Y114940D01*
X319365Y114868D01*
X319481Y114791D01*
X319500Y114785D01*
X319517Y114774D01*
X319650Y114733D01*
X319782Y114688D01*
X319802Y114687D01*
X319821Y114681D01*
X319960Y114674D01*
X320099Y114663D01*
X320119Y114666D01*
X320139Y114665D01*
X320275Y114694D01*
X320412Y114717D01*
X320431Y114726D01*
X320450Y114730D01*
X320576Y114791D01*
X320702Y114848D01*
X320718Y114860D01*
X320736Y114869D01*
X320842Y114960D01*
X320950Y115046D01*
X320963Y115063D01*
X320978Y115076D01*
X321058Y115189D01*
X321142Y115301D01*
X321154Y115326D01*
X321161Y115336D01*
X321168Y115355D01*
X321213Y115445D01*
X322902Y119524D01*
X326166Y122788D01*
X330432Y124555D01*
X335048Y124555D01*
X339314Y122788D01*
X342578Y119524D01*
X344345Y115258D01*
X344345Y112776D01*
X344360Y112658D01*
X344367Y112539D01*
X344380Y112501D01*
X344385Y112460D01*
X344428Y112350D01*
X344465Y112237D01*
X344487Y112202D01*
X344502Y112165D01*
X344571Y112069D01*
X344635Y111968D01*
X344665Y111940D01*
X344688Y111907D01*
X344780Y111831D01*
X344867Y111750D01*
X344902Y111730D01*
X344933Y111705D01*
X345041Y111654D01*
X345145Y111596D01*
X345185Y111586D01*
X345221Y111569D01*
X345338Y111547D01*
X345453Y111517D01*
X345513Y111513D01*
X345533Y111509D01*
X345554Y111511D01*
X345614Y111507D01*
X414933Y111507D01*
X415071Y111524D01*
X415209Y111537D01*
X415228Y111544D01*
X415248Y111547D01*
X415377Y111598D01*
X415508Y111645D01*
X415525Y111656D01*
X415544Y111664D01*
X415656Y111745D01*
X415772Y111823D01*
X415785Y111839D01*
X415801Y111850D01*
X415890Y111958D01*
X415982Y112062D01*
X415991Y112080D01*
X416004Y112095D01*
X416063Y112221D01*
X416127Y112345D01*
X416131Y112365D01*
X416140Y112383D01*
X416166Y112520D01*
X416196Y112655D01*
X416196Y112676D01*
X416199Y112695D01*
X416191Y112834D01*
X416187Y112973D01*
X416181Y112993D01*
X416180Y113013D01*
X416137Y113144D01*
X416098Y113279D01*
X416088Y113296D01*
X416082Y113315D01*
X416007Y113433D01*
X415937Y113553D01*
X415918Y113574D01*
X415912Y113584D01*
X415897Y113598D01*
X415830Y113673D01*
X414705Y114799D01*
X413003Y118907D01*
X413003Y123353D01*
X414705Y127461D01*
X417476Y130232D01*
X417549Y130327D01*
X417628Y130416D01*
X417646Y130452D01*
X417671Y130484D01*
X417719Y130593D01*
X417773Y130699D01*
X417781Y130738D01*
X417798Y130776D01*
X417816Y130893D01*
X417842Y131009D01*
X417841Y131050D01*
X417847Y131090D01*
X417836Y131208D01*
X417833Y131327D01*
X417821Y131366D01*
X417818Y131406D01*
X417777Y131519D01*
X417744Y131633D01*
X417724Y131667D01*
X417710Y131706D01*
X417643Y131804D01*
X417583Y131907D01*
X417543Y131952D01*
X417531Y131969D01*
X417516Y131982D01*
X417476Y132027D01*
X414705Y134799D01*
X413003Y138907D01*
X413003Y143353D01*
X413302Y144074D01*
X413310Y144103D01*
X413323Y144129D01*
X413351Y144255D01*
X413386Y144381D01*
X413386Y144410D01*
X413393Y144439D01*
X413389Y144569D01*
X413391Y144699D01*
X413384Y144727D01*
X413383Y144757D01*
X413347Y144882D01*
X413317Y145008D01*
X413303Y145034D01*
X413295Y145062D01*
X413229Y145174D01*
X413168Y145289D01*
X413148Y145311D01*
X413133Y145336D01*
X413027Y145457D01*
X407388Y151096D01*
X406653Y152870D01*
X406653Y240045D01*
X406641Y240143D01*
X406638Y240242D01*
X406621Y240300D01*
X406613Y240360D01*
X406577Y240453D01*
X406549Y240548D01*
X406519Y240600D01*
X406496Y240656D01*
X406438Y240736D01*
X406388Y240822D01*
X406322Y240897D01*
X406310Y240914D01*
X406300Y240921D01*
X406282Y240942D01*
X373238Y273986D01*
X373144Y274059D01*
X373055Y274138D01*
X373019Y274156D01*
X372987Y274181D01*
X372877Y274228D01*
X372771Y274282D01*
X372732Y274291D01*
X372695Y274307D01*
X372577Y274326D01*
X372461Y274352D01*
X372421Y274351D01*
X372381Y274357D01*
X372262Y274346D01*
X372143Y274342D01*
X372104Y274331D01*
X372064Y274327D01*
X371952Y274287D01*
X371838Y274254D01*
X371803Y274233D01*
X371765Y274220D01*
X371666Y274153D01*
X371564Y274092D01*
X371519Y274053D01*
X371502Y274041D01*
X371488Y274026D01*
X371443Y273986D01*
X370205Y272748D01*
X367321Y271553D01*
X364199Y271553D01*
X361315Y272748D01*
X359108Y274955D01*
X357913Y277839D01*
X357913Y280961D01*
X359108Y283845D01*
X361315Y286052D01*
X364199Y287247D01*
X367321Y287247D01*
X370205Y286052D01*
X371658Y284598D01*
X371737Y284538D01*
X371809Y284470D01*
X371862Y284441D01*
X371910Y284404D01*
X372001Y284364D01*
X372087Y284316D01*
X372146Y284301D01*
X372202Y284277D01*
X372300Y284262D01*
X372395Y284237D01*
X372495Y284231D01*
X372516Y284227D01*
X372528Y284229D01*
X372556Y284227D01*
X375610Y284227D01*
X377384Y283492D01*
X415572Y245304D01*
X416307Y243530D01*
X416307Y231866D01*
X416313Y231817D01*
X416311Y231767D01*
X416333Y231660D01*
X416347Y231550D01*
X416365Y231504D01*
X416375Y231456D01*
X416423Y231357D01*
X416464Y231255D01*
X416493Y231215D01*
X416515Y231170D01*
X416586Y231086D01*
X416650Y230997D01*
X416689Y230966D01*
X416721Y230928D01*
X416811Y230865D01*
X416895Y230795D01*
X416940Y230773D01*
X416981Y230745D01*
X417084Y230706D01*
X417183Y230659D01*
X417232Y230650D01*
X417278Y230632D01*
X417388Y230620D01*
X417495Y230599D01*
X417545Y230602D01*
X417594Y230597D01*
X417703Y230612D01*
X417813Y230619D01*
X417860Y230634D01*
X417909Y230641D01*
X418062Y230693D01*
X421957Y232307D01*
X426403Y232307D01*
X427758Y231745D01*
X427806Y231732D01*
X427851Y231711D01*
X427959Y231691D01*
X428065Y231661D01*
X428115Y231661D01*
X428164Y231651D01*
X428273Y231658D01*
X428383Y231656D01*
X428431Y231668D01*
X428481Y231671D01*
X428585Y231705D01*
X428692Y231731D01*
X428736Y231754D01*
X428783Y231769D01*
X428876Y231828D01*
X428973Y231879D01*
X429010Y231913D01*
X429052Y231939D01*
X429127Y232019D01*
X429209Y232093D01*
X429236Y232135D01*
X429270Y232171D01*
X429323Y232267D01*
X429383Y232359D01*
X429400Y232406D01*
X429424Y232449D01*
X429451Y232556D01*
X429487Y232660D01*
X429491Y232709D01*
X429503Y232757D01*
X429513Y232918D01*
X429513Y393715D01*
X429501Y393813D01*
X429498Y393912D01*
X429481Y393970D01*
X429473Y394030D01*
X429437Y394123D01*
X429409Y394218D01*
X429379Y394270D01*
X429356Y394326D01*
X429298Y394406D01*
X429248Y394492D01*
X429182Y394567D01*
X429170Y394584D01*
X429160Y394591D01*
X429142Y394612D01*
X400172Y423582D01*
X400094Y423642D01*
X400022Y423710D01*
X399969Y423739D01*
X399921Y423776D01*
X399830Y423816D01*
X399744Y423864D01*
X399685Y423879D01*
X399629Y423903D01*
X399531Y423918D01*
X399436Y423943D01*
X399336Y423949D01*
X399315Y423953D01*
X399303Y423951D01*
X399275Y423953D01*
X397219Y423953D01*
X394335Y425148D01*
X392128Y427355D01*
X390933Y430239D01*
X390933Y433361D01*
X392128Y436245D01*
X394335Y438452D01*
X397219Y439647D01*
X400341Y439647D01*
X403225Y438452D01*
X405432Y436245D01*
X406627Y433361D01*
X406627Y431305D01*
X406639Y431207D01*
X406642Y431108D01*
X406659Y431050D01*
X406667Y430990D01*
X406703Y430897D01*
X406731Y430802D01*
X406761Y430750D01*
X406784Y430694D01*
X406842Y430614D01*
X406892Y430528D01*
X406958Y430453D01*
X406970Y430436D01*
X406980Y430429D01*
X406998Y430408D01*
X438432Y398974D01*
X439167Y397200D01*
X439167Y130330D01*
X438432Y128556D01*
X436896Y127020D01*
X435333Y125457D01*
X435315Y125434D01*
X435293Y125415D01*
X435218Y125309D01*
X435138Y125206D01*
X435127Y125179D01*
X435110Y125155D01*
X435064Y125033D01*
X435012Y124914D01*
X435007Y124885D01*
X434997Y124857D01*
X434983Y124728D01*
X434962Y124600D01*
X434965Y124571D01*
X434962Y124541D01*
X434980Y124413D01*
X434992Y124283D01*
X435002Y124256D01*
X435006Y124226D01*
X435058Y124074D01*
X435357Y123353D01*
X435357Y118907D01*
X433655Y114799D01*
X430884Y112027D01*
X430811Y111933D01*
X430732Y111844D01*
X430714Y111808D01*
X430689Y111776D01*
X430641Y111667D01*
X430587Y111561D01*
X430579Y111522D01*
X430562Y111484D01*
X430544Y111367D01*
X430518Y111251D01*
X430519Y111210D01*
X430513Y111170D01*
X430524Y111052D01*
X430527Y110933D01*
X430539Y110894D01*
X430542Y110854D01*
X430583Y110741D01*
X430616Y110627D01*
X430636Y110592D01*
X430650Y110554D01*
X430717Y110456D01*
X430777Y110353D01*
X430817Y110308D01*
X430829Y110291D01*
X430844Y110278D01*
X430884Y110232D01*
X433655Y107461D01*
X435357Y103353D01*
X435357Y98907D01*
X433655Y94799D01*
X430884Y92027D01*
X430811Y91933D01*
X430732Y91844D01*
X430714Y91808D01*
X430689Y91776D01*
X430641Y91667D01*
X430587Y91561D01*
X430579Y91522D01*
X430562Y91484D01*
X430544Y91367D01*
X430518Y91251D01*
X430519Y91210D01*
X430513Y91170D01*
X430524Y91052D01*
X430527Y90933D01*
X430539Y90894D01*
X430542Y90854D01*
X430583Y90741D01*
X430616Y90627D01*
X430636Y90592D01*
X430650Y90554D01*
X430717Y90456D01*
X430777Y90353D01*
X430817Y90308D01*
X430829Y90291D01*
X430844Y90278D01*
X430884Y90232D01*
X433655Y87461D01*
X435357Y83353D01*
X435357Y78907D01*
X433655Y74799D01*
X430511Y71655D01*
X426403Y69953D01*
X421957Y69953D01*
G37*
%LPD*%
%LPC*%
G36*
X42576Y522795D02*
X42576Y522795D01*
X40195Y525176D01*
X40195Y541624D01*
X42576Y544005D01*
X59024Y544005D01*
X61405Y541624D01*
X61405Y525176D01*
X59024Y522795D01*
X42576Y522795D01*
G37*
%LPD*%
%LPC*%
G36*
X201091Y90995D02*
X201091Y90995D01*
X197193Y92610D01*
X194210Y95593D01*
X192595Y99491D01*
X192595Y103709D01*
X194210Y107607D01*
X197193Y110590D01*
X201091Y112205D01*
X205309Y112205D01*
X209207Y110590D01*
X212190Y107607D01*
X213805Y103709D01*
X213805Y99491D01*
X212190Y95593D01*
X209207Y92610D01*
X205309Y90995D01*
X201091Y90995D01*
G37*
%LPD*%
%LPC*%
G36*
X201091Y65595D02*
X201091Y65595D01*
X197193Y67210D01*
X194210Y70193D01*
X192595Y74091D01*
X192595Y78309D01*
X194210Y82207D01*
X197193Y85190D01*
X201091Y86805D01*
X205309Y86805D01*
X209207Y85190D01*
X212190Y82207D01*
X213805Y78309D01*
X213805Y74091D01*
X212190Y70193D01*
X209207Y67210D01*
X205309Y65595D01*
X201091Y65595D01*
G37*
%LPD*%
%LPC*%
G36*
X48691Y65595D02*
X48691Y65595D01*
X44793Y67210D01*
X41810Y70193D01*
X40195Y74091D01*
X40195Y78309D01*
X41810Y82207D01*
X44793Y85190D01*
X48691Y86805D01*
X52909Y86805D01*
X56807Y85190D01*
X59790Y82207D01*
X61405Y78309D01*
X61405Y74091D01*
X59790Y70193D01*
X56807Y67210D01*
X52909Y65595D01*
X48691Y65595D01*
G37*
%LPD*%
%LPC*%
G36*
X201091Y40195D02*
X201091Y40195D01*
X197193Y41810D01*
X194210Y44793D01*
X192595Y48691D01*
X192595Y52909D01*
X194210Y56807D01*
X197193Y59790D01*
X201091Y61405D01*
X205309Y61405D01*
X209207Y59790D01*
X212190Y56807D01*
X213805Y52909D01*
X213805Y48691D01*
X212190Y44793D01*
X209207Y41810D01*
X205309Y40195D01*
X201091Y40195D01*
G37*
%LPD*%
%LPC*%
G36*
X201091Y497395D02*
X201091Y497395D01*
X197193Y499010D01*
X194210Y501993D01*
X192595Y505891D01*
X192595Y510109D01*
X194210Y514007D01*
X197193Y516990D01*
X201091Y518605D01*
X205309Y518605D01*
X209207Y516990D01*
X212190Y514007D01*
X213805Y510109D01*
X213805Y505891D01*
X212190Y501993D01*
X209207Y499010D01*
X205309Y497395D01*
X201091Y497395D01*
G37*
%LPD*%
%LPC*%
G36*
X48691Y497395D02*
X48691Y497395D01*
X44793Y499010D01*
X41810Y501993D01*
X40195Y505891D01*
X40195Y510109D01*
X41810Y514007D01*
X44793Y516990D01*
X48691Y518605D01*
X52909Y518605D01*
X56807Y516990D01*
X59790Y514007D01*
X61405Y510109D01*
X61405Y505891D01*
X59790Y501993D01*
X56807Y499010D01*
X52909Y497395D01*
X48691Y497395D01*
G37*
%LPD*%
%LPC*%
G36*
X201091Y471995D02*
X201091Y471995D01*
X197193Y473610D01*
X194210Y476593D01*
X192595Y480491D01*
X192595Y484709D01*
X194210Y488607D01*
X197193Y491590D01*
X201091Y493205D01*
X205309Y493205D01*
X209207Y491590D01*
X212190Y488607D01*
X213805Y484709D01*
X213805Y480491D01*
X212190Y476593D01*
X209207Y473610D01*
X205309Y471995D01*
X201091Y471995D01*
G37*
%LPD*%
%LPC*%
G36*
X48691Y471995D02*
X48691Y471995D01*
X44793Y473610D01*
X41810Y476593D01*
X40195Y480491D01*
X40195Y484709D01*
X41810Y488607D01*
X44793Y491590D01*
X48691Y493205D01*
X52909Y493205D01*
X56807Y491590D01*
X59790Y488607D01*
X61405Y484709D01*
X61405Y480491D01*
X59790Y476593D01*
X56807Y473610D01*
X52909Y471995D01*
X48691Y471995D01*
G37*
%LPD*%
%LPC*%
G36*
X201091Y446595D02*
X201091Y446595D01*
X197193Y448210D01*
X194210Y451193D01*
X192595Y455091D01*
X192595Y459309D01*
X194210Y463207D01*
X197193Y466190D01*
X201091Y467805D01*
X205309Y467805D01*
X209207Y466190D01*
X212190Y463207D01*
X213805Y459309D01*
X213805Y455091D01*
X212190Y451193D01*
X209207Y448210D01*
X205309Y446595D01*
X201091Y446595D01*
G37*
%LPD*%
%LPC*%
G36*
X48691Y446595D02*
X48691Y446595D01*
X44793Y448210D01*
X41810Y451193D01*
X40195Y455091D01*
X40195Y459309D01*
X41810Y463207D01*
X44793Y466190D01*
X48691Y467805D01*
X52909Y467805D01*
X56807Y466190D01*
X59790Y463207D01*
X61405Y459309D01*
X61405Y455091D01*
X59790Y451193D01*
X56807Y448210D01*
X52909Y446595D01*
X48691Y446595D01*
G37*
%LPD*%
%LPC*%
G36*
X201091Y421195D02*
X201091Y421195D01*
X197193Y422810D01*
X194210Y425793D01*
X192595Y429691D01*
X192595Y433909D01*
X194210Y437807D01*
X197193Y440790D01*
X201091Y442405D01*
X205309Y442405D01*
X209207Y440790D01*
X212190Y437807D01*
X213805Y433909D01*
X213805Y429691D01*
X212190Y425793D01*
X209207Y422810D01*
X205309Y421195D01*
X201091Y421195D01*
G37*
%LPD*%
%LPC*%
G36*
X48691Y421195D02*
X48691Y421195D01*
X44793Y422810D01*
X41810Y425793D01*
X40195Y429691D01*
X40195Y433909D01*
X41810Y437807D01*
X44793Y440790D01*
X48691Y442405D01*
X52909Y442405D01*
X56807Y440790D01*
X59790Y437807D01*
X61405Y433909D01*
X61405Y429691D01*
X59790Y425793D01*
X56807Y422810D01*
X52909Y421195D01*
X48691Y421195D01*
G37*
%LPD*%
%LPC*%
G36*
X201091Y395795D02*
X201091Y395795D01*
X197193Y397410D01*
X194210Y400393D01*
X192595Y404291D01*
X192595Y408509D01*
X194210Y412407D01*
X197193Y415390D01*
X201091Y417005D01*
X205309Y417005D01*
X209207Y415390D01*
X212190Y412407D01*
X213805Y408509D01*
X213805Y404291D01*
X212190Y400393D01*
X209207Y397410D01*
X205309Y395795D01*
X201091Y395795D01*
G37*
%LPD*%
%LPC*%
G36*
X48691Y395795D02*
X48691Y395795D01*
X44793Y397410D01*
X41810Y400393D01*
X40195Y404291D01*
X40195Y408509D01*
X41810Y412407D01*
X44793Y415390D01*
X48691Y417005D01*
X52909Y417005D01*
X56807Y415390D01*
X59790Y412407D01*
X61405Y408509D01*
X61405Y404291D01*
X59790Y400393D01*
X56807Y397410D01*
X52909Y395795D01*
X48691Y395795D01*
G37*
%LPD*%
%LPC*%
G36*
X201091Y370395D02*
X201091Y370395D01*
X197193Y372010D01*
X194210Y374993D01*
X192595Y378891D01*
X192595Y383109D01*
X194210Y387007D01*
X197193Y389990D01*
X201091Y391605D01*
X205309Y391605D01*
X209207Y389990D01*
X212190Y387007D01*
X213805Y383109D01*
X213805Y378891D01*
X212190Y374993D01*
X209207Y372010D01*
X205309Y370395D01*
X201091Y370395D01*
G37*
%LPD*%
%LPC*%
G36*
X48691Y370395D02*
X48691Y370395D01*
X44793Y372010D01*
X41810Y374993D01*
X40195Y378891D01*
X40195Y383109D01*
X41810Y387007D01*
X44793Y389990D01*
X48691Y391605D01*
X52909Y391605D01*
X56807Y389990D01*
X59790Y387007D01*
X61405Y383109D01*
X61405Y378891D01*
X59790Y374993D01*
X56807Y372010D01*
X52909Y370395D01*
X48691Y370395D01*
G37*
%LPD*%
%LPC*%
G36*
X201091Y344995D02*
X201091Y344995D01*
X197193Y346610D01*
X194210Y349593D01*
X192595Y353491D01*
X192595Y357709D01*
X194210Y361607D01*
X197193Y364590D01*
X201091Y366205D01*
X205309Y366205D01*
X209207Y364590D01*
X212190Y361607D01*
X213805Y357709D01*
X213805Y353491D01*
X212190Y349593D01*
X209207Y346610D01*
X205309Y344995D01*
X201091Y344995D01*
G37*
%LPD*%
%LPC*%
G36*
X48691Y344995D02*
X48691Y344995D01*
X44793Y346610D01*
X41810Y349593D01*
X40195Y353491D01*
X40195Y357709D01*
X41810Y361607D01*
X44793Y364590D01*
X48691Y366205D01*
X52909Y366205D01*
X56807Y364590D01*
X59790Y361607D01*
X61405Y357709D01*
X61405Y353491D01*
X59790Y349593D01*
X56807Y346610D01*
X52909Y344995D01*
X48691Y344995D01*
G37*
%LPD*%
%LPC*%
G36*
X201091Y319595D02*
X201091Y319595D01*
X197193Y321210D01*
X194210Y324193D01*
X192595Y328091D01*
X192595Y332309D01*
X194210Y336207D01*
X197193Y339190D01*
X201091Y340805D01*
X205309Y340805D01*
X209207Y339190D01*
X212190Y336207D01*
X213805Y332309D01*
X213805Y328091D01*
X212190Y324193D01*
X209207Y321210D01*
X205309Y319595D01*
X201091Y319595D01*
G37*
%LPD*%
%LPC*%
G36*
X48691Y319595D02*
X48691Y319595D01*
X44793Y321210D01*
X41810Y324193D01*
X40195Y328091D01*
X40195Y332309D01*
X41810Y336207D01*
X44793Y339190D01*
X48691Y340805D01*
X52909Y340805D01*
X56807Y339190D01*
X59790Y336207D01*
X61405Y332309D01*
X61405Y328091D01*
X59790Y324193D01*
X56807Y321210D01*
X52909Y319595D01*
X48691Y319595D01*
G37*
%LPD*%
%LPC*%
G36*
X201091Y294195D02*
X201091Y294195D01*
X197193Y295810D01*
X194210Y298793D01*
X192595Y302691D01*
X192595Y306909D01*
X194210Y310807D01*
X197193Y313790D01*
X201091Y315405D01*
X205309Y315405D01*
X209207Y313790D01*
X212190Y310807D01*
X213805Y306909D01*
X213805Y302691D01*
X212190Y298793D01*
X209207Y295810D01*
X205309Y294195D01*
X201091Y294195D01*
G37*
%LPD*%
%LPC*%
G36*
X48691Y294195D02*
X48691Y294195D01*
X44793Y295810D01*
X41810Y298793D01*
X40195Y302691D01*
X40195Y306909D01*
X41810Y310807D01*
X44793Y313790D01*
X48691Y315405D01*
X52909Y315405D01*
X56807Y313790D01*
X59790Y310807D01*
X61405Y306909D01*
X61405Y302691D01*
X59790Y298793D01*
X56807Y295810D01*
X52909Y294195D01*
X48691Y294195D01*
G37*
%LPD*%
%LPC*%
G36*
X201091Y268795D02*
X201091Y268795D01*
X197193Y270410D01*
X194210Y273393D01*
X192595Y277291D01*
X192595Y281509D01*
X194210Y285407D01*
X197193Y288390D01*
X201091Y290005D01*
X205309Y290005D01*
X209207Y288390D01*
X212190Y285407D01*
X213805Y281509D01*
X213805Y277291D01*
X212190Y273393D01*
X209207Y270410D01*
X205309Y268795D01*
X201091Y268795D01*
G37*
%LPD*%
%LPC*%
G36*
X48691Y268795D02*
X48691Y268795D01*
X44793Y270410D01*
X41810Y273393D01*
X40195Y277291D01*
X40195Y281509D01*
X41810Y285407D01*
X44793Y288390D01*
X48691Y290005D01*
X52909Y290005D01*
X56807Y288390D01*
X59790Y285407D01*
X61405Y281509D01*
X61405Y277291D01*
X59790Y273393D01*
X56807Y270410D01*
X52909Y268795D01*
X48691Y268795D01*
G37*
%LPD*%
%LPC*%
G36*
X201091Y243395D02*
X201091Y243395D01*
X197193Y245010D01*
X194210Y247993D01*
X192595Y251891D01*
X192595Y256109D01*
X194210Y260007D01*
X197193Y262990D01*
X201091Y264605D01*
X205309Y264605D01*
X209207Y262990D01*
X212190Y260007D01*
X213805Y256109D01*
X213805Y251891D01*
X212190Y247993D01*
X209207Y245010D01*
X205309Y243395D01*
X201091Y243395D01*
G37*
%LPD*%
%LPC*%
G36*
X48691Y243395D02*
X48691Y243395D01*
X44793Y245010D01*
X41810Y247993D01*
X40195Y251891D01*
X40195Y256109D01*
X41810Y260007D01*
X44793Y262990D01*
X48691Y264605D01*
X52909Y264605D01*
X56807Y262990D01*
X59790Y260007D01*
X61405Y256109D01*
X61405Y251891D01*
X59790Y247993D01*
X56807Y245010D01*
X52909Y243395D01*
X48691Y243395D01*
G37*
%LPD*%
%LPC*%
G36*
X201091Y217995D02*
X201091Y217995D01*
X197193Y219610D01*
X194210Y222593D01*
X192595Y226491D01*
X192595Y230709D01*
X194210Y234607D01*
X197193Y237590D01*
X201091Y239205D01*
X205309Y239205D01*
X209207Y237590D01*
X212190Y234607D01*
X213805Y230709D01*
X213805Y226491D01*
X212190Y222593D01*
X209207Y219610D01*
X205309Y217995D01*
X201091Y217995D01*
G37*
%LPD*%
%LPC*%
G36*
X48691Y217995D02*
X48691Y217995D01*
X44793Y219610D01*
X41810Y222593D01*
X40195Y226491D01*
X40195Y230709D01*
X41810Y234607D01*
X44793Y237590D01*
X48691Y239205D01*
X52909Y239205D01*
X56807Y237590D01*
X59790Y234607D01*
X61405Y230709D01*
X61405Y226491D01*
X59790Y222593D01*
X56807Y219610D01*
X52909Y217995D01*
X48691Y217995D01*
G37*
%LPD*%
%LPC*%
G36*
X48691Y192595D02*
X48691Y192595D01*
X44793Y194210D01*
X41810Y197193D01*
X40195Y201091D01*
X40195Y205309D01*
X41810Y209207D01*
X44793Y212190D01*
X48691Y213805D01*
X52909Y213805D01*
X56807Y212190D01*
X59790Y209207D01*
X61405Y205309D01*
X61405Y201091D01*
X59790Y197193D01*
X56807Y194210D01*
X52909Y192595D01*
X48691Y192595D01*
G37*
%LPD*%
%LPC*%
G36*
X48691Y167195D02*
X48691Y167195D01*
X44793Y168810D01*
X41810Y171793D01*
X40195Y175691D01*
X40195Y179909D01*
X41810Y183807D01*
X44793Y186790D01*
X48691Y188405D01*
X52909Y188405D01*
X56807Y186790D01*
X59790Y183807D01*
X61405Y179909D01*
X61405Y175691D01*
X59790Y171793D01*
X56807Y168810D01*
X52909Y167195D01*
X48691Y167195D01*
G37*
%LPD*%
%LPC*%
G36*
X201091Y141795D02*
X201091Y141795D01*
X197193Y143410D01*
X194210Y146393D01*
X192595Y150291D01*
X192595Y154509D01*
X194210Y158407D01*
X197193Y161390D01*
X201091Y163005D01*
X205309Y163005D01*
X209207Y161390D01*
X212190Y158407D01*
X213805Y154509D01*
X213805Y150291D01*
X212190Y146393D01*
X209207Y143410D01*
X205309Y141795D01*
X201091Y141795D01*
G37*
%LPD*%
%LPC*%
G36*
X48691Y141795D02*
X48691Y141795D01*
X44793Y143410D01*
X41810Y146393D01*
X40195Y150291D01*
X40195Y154509D01*
X41810Y158407D01*
X44793Y161390D01*
X48691Y163005D01*
X52909Y163005D01*
X56807Y161390D01*
X59790Y158407D01*
X61405Y154509D01*
X61405Y150291D01*
X59790Y146393D01*
X56807Y143410D01*
X52909Y141795D01*
X48691Y141795D01*
G37*
%LPD*%
%LPC*%
G36*
X201091Y116395D02*
X201091Y116395D01*
X197193Y118010D01*
X194210Y120993D01*
X192595Y124891D01*
X192595Y129109D01*
X194210Y133007D01*
X197193Y135990D01*
X201091Y137605D01*
X205309Y137605D01*
X209207Y135990D01*
X212190Y133007D01*
X213805Y129109D01*
X213805Y124891D01*
X212190Y120993D01*
X209207Y118010D01*
X205309Y116395D01*
X201091Y116395D01*
G37*
%LPD*%
%LPC*%
G36*
X48691Y116395D02*
X48691Y116395D01*
X44793Y118010D01*
X41810Y120993D01*
X40195Y124891D01*
X40195Y129109D01*
X41810Y133007D01*
X44793Y135990D01*
X48691Y137605D01*
X52909Y137605D01*
X56807Y135990D01*
X59790Y133007D01*
X61405Y129109D01*
X61405Y124891D01*
X59790Y120993D01*
X56807Y118010D01*
X52909Y116395D01*
X48691Y116395D01*
G37*
%LPD*%
%LPC*%
G36*
X48691Y40195D02*
X48691Y40195D01*
X44793Y41810D01*
X41810Y44793D01*
X40195Y48691D01*
X40195Y52909D01*
X41810Y56807D01*
X44793Y59790D01*
X48691Y61405D01*
X52909Y61405D01*
X56807Y59790D01*
X59790Y56807D01*
X61405Y52909D01*
X61405Y48691D01*
X59790Y44793D01*
X56807Y41810D01*
X52909Y40195D01*
X48691Y40195D01*
G37*
%LPD*%
%LPC*%
G36*
X284439Y107909D02*
X284439Y107909D01*
X284439Y122737D01*
X285810Y122292D01*
X287223Y121572D01*
X288507Y120639D01*
X289629Y119517D01*
X290562Y118233D01*
X291282Y116820D01*
X291773Y115311D01*
X292021Y113743D01*
X292021Y107909D01*
X284439Y107909D01*
G37*
%LPD*%
%LPC*%
G36*
X284439Y102911D02*
X284439Y102911D01*
X292021Y102911D01*
X292021Y97077D01*
X291773Y95509D01*
X291282Y94000D01*
X290562Y92587D01*
X289629Y91303D01*
X288507Y90181D01*
X287223Y89248D01*
X285810Y88528D01*
X284439Y88083D01*
X284439Y102911D01*
G37*
%LPD*%
%LPC*%
G36*
X271859Y107909D02*
X271859Y107909D01*
X271859Y113743D01*
X272107Y115311D01*
X272598Y116820D01*
X273318Y118233D01*
X274251Y119517D01*
X275373Y120639D01*
X276657Y121572D01*
X278070Y122292D01*
X279441Y122737D01*
X279441Y107909D01*
X271859Y107909D01*
G37*
%LPD*%
%LPC*%
G36*
X278070Y88528D02*
X278070Y88528D01*
X276657Y89248D01*
X275373Y90181D01*
X274251Y91303D01*
X273318Y92587D01*
X272598Y94000D01*
X272107Y95509D01*
X271859Y97077D01*
X271859Y102911D01*
X279441Y102911D01*
X279441Y88083D01*
X278070Y88528D01*
G37*
%LPD*%
%LPC*%
G36*
X205199Y535399D02*
X205199Y535399D01*
X205199Y542481D01*
X210074Y542481D01*
X210721Y542308D01*
X211300Y541973D01*
X211773Y541500D01*
X212108Y540921D01*
X212281Y540274D01*
X212281Y535399D01*
X205199Y535399D01*
G37*
%LPD*%
%LPC*%
G36*
X194119Y535399D02*
X194119Y535399D01*
X194119Y540274D01*
X194292Y540921D01*
X194627Y541500D01*
X195100Y541973D01*
X195679Y542308D01*
X196326Y542481D01*
X201201Y542481D01*
X201201Y535399D01*
X194119Y535399D01*
G37*
%LPD*%
%LPC*%
G36*
X205199Y524319D02*
X205199Y524319D01*
X205199Y531401D01*
X212281Y531401D01*
X212281Y526526D01*
X212108Y525879D01*
X211773Y525300D01*
X211300Y524827D01*
X210721Y524492D01*
X210074Y524319D01*
X205199Y524319D01*
G37*
%LPD*%
%LPC*%
G36*
X196326Y524319D02*
X196326Y524319D01*
X195679Y524492D01*
X195100Y524827D01*
X194627Y525300D01*
X194292Y525879D01*
X194119Y526526D01*
X194119Y531401D01*
X201201Y531401D01*
X201201Y524319D01*
X196326Y524319D01*
G37*
%LPD*%
%LPC*%
G36*
X52799Y103599D02*
X52799Y103599D01*
X52799Y110477D01*
X52926Y110457D01*
X54286Y110015D01*
X55559Y109367D01*
X56716Y108526D01*
X57726Y107516D01*
X58567Y106359D01*
X59215Y105086D01*
X59657Y103726D01*
X59677Y103599D01*
X52799Y103599D01*
G37*
%LPD*%
%LPC*%
G36*
X52799Y99601D02*
X52799Y99601D01*
X59677Y99601D01*
X59657Y99474D01*
X59215Y98114D01*
X58567Y96841D01*
X57726Y95684D01*
X56716Y94674D01*
X55559Y93833D01*
X54286Y93185D01*
X52926Y92743D01*
X52799Y92723D01*
X52799Y99601D01*
G37*
%LPD*%
%LPC*%
G36*
X41923Y103599D02*
X41923Y103599D01*
X41943Y103726D01*
X42385Y105086D01*
X43033Y106359D01*
X43874Y107516D01*
X44884Y108526D01*
X46041Y109367D01*
X47314Y110015D01*
X48674Y110457D01*
X48801Y110477D01*
X48801Y103599D01*
X41923Y103599D01*
G37*
%LPD*%
%LPC*%
G36*
X48674Y92743D02*
X48674Y92743D01*
X47314Y93185D01*
X46041Y93833D01*
X44884Y94674D01*
X43874Y95684D01*
X43033Y96841D01*
X42385Y98114D01*
X41943Y99474D01*
X41923Y99601D01*
X48801Y99601D01*
X48801Y92723D01*
X48674Y92743D01*
G37*
%LPD*%
D10*
X50800Y533400D03*
D11*
X50800Y508000D03*
X50800Y482600D03*
X50800Y457200D03*
X50800Y431800D03*
X50800Y406400D03*
X50800Y381000D03*
X50800Y355600D03*
X50800Y330200D03*
X50800Y304800D03*
X50800Y279400D03*
X50800Y254000D03*
X50800Y228600D03*
X50800Y203200D03*
X50800Y177800D03*
X50800Y152400D03*
X50800Y127000D03*
X50800Y101600D03*
X50800Y76200D03*
X50800Y50800D03*
X203200Y50800D03*
X203200Y76200D03*
X203200Y101600D03*
X203200Y127000D03*
X203200Y152400D03*
X203200Y177800D03*
X203200Y203200D03*
X203200Y228600D03*
X203200Y254000D03*
X203200Y279400D03*
X203200Y304800D03*
X203200Y330200D03*
X203200Y355600D03*
X203200Y381000D03*
X203200Y406400D03*
X203200Y431800D03*
X203200Y457200D03*
X203200Y482600D03*
X203200Y508000D03*
D10*
X203200Y533400D03*
D12*
X332740Y112950D02*
X332740Y97870D01*
X307340Y97870D02*
X307340Y112950D01*
X281940Y112950D02*
X281940Y97870D01*
D13*
X424180Y81130D03*
X424180Y101130D03*
X424180Y121130D03*
X424180Y141130D03*
X424180Y161130D03*
X424180Y181130D03*
X424180Y201130D03*
X424180Y221130D03*
D14*
X288290Y163830D03*
X288290Y189230D03*
X288290Y214630D03*
D15*
X360680Y214630D03*
D16*
X312420Y214630D02*
X288290Y214630D01*
X312420Y214630D02*
X360680Y214630D01*
X312420Y214630D02*
X312420Y110490D01*
X307340Y105410D01*
D15*
X267970Y491490D03*
X398780Y381000D03*
X274320Y381000D03*
D16*
X419862Y105410D02*
X424161Y101111D01*
X424180Y101130D01*
X419862Y105410D02*
X332740Y105410D01*
D15*
X398780Y431800D03*
D17*
X434340Y396240D01*
X434340Y131290D02*
X424180Y121130D01*
X434340Y131290D02*
X434340Y396240D01*
D15*
X365760Y279400D03*
D17*
X374650Y279400D01*
X411480Y242570D02*
X411480Y153830D01*
X424180Y141130D01*
X411480Y242570D02*
X374650Y279400D01*
X281940Y170180D02*
X288290Y163830D01*
X281940Y170180D02*
X210820Y170180D01*
X203200Y177800D01*
X281940Y195580D02*
X288290Y189230D01*
X281940Y195580D02*
X210820Y195580D01*
X203200Y203200D01*
M02*
