G04 EAGLE Gerber RS-274X export*
G75*
%MOMM*%
%FSLAX34Y34*%
%LPD*%
%IN*%
%IPPOS*%
%AMOC8*
5,1,8,0,0,1.08239X$1,22.5*%
G01*
%ADD10C,0.254000*%


D10*
X0Y25400D02*
X457254Y25400D01*
X457254Y558802D01*
X254Y558802D01*
X0Y25400D01*
X24050Y44169D02*
X23987Y43611D01*
X23862Y43064D01*
X23677Y42534D01*
X23433Y42028D01*
X23134Y41552D01*
X22784Y41113D01*
X22387Y40716D01*
X21948Y40366D01*
X21472Y40067D01*
X20966Y39823D01*
X20436Y39638D01*
X19889Y39513D01*
X19331Y39450D01*
X18769Y39450D01*
X18211Y39513D01*
X17664Y39638D01*
X17134Y39823D01*
X16628Y40067D01*
X16152Y40366D01*
X15713Y40716D01*
X15316Y41113D01*
X14966Y41552D01*
X14667Y42028D01*
X14423Y42534D01*
X14238Y43064D01*
X14113Y43611D01*
X14050Y44169D01*
X14050Y44731D01*
X14113Y45289D01*
X14238Y45836D01*
X14423Y46366D01*
X14667Y46872D01*
X14966Y47348D01*
X15316Y47787D01*
X15713Y48184D01*
X16152Y48534D01*
X16628Y48833D01*
X17134Y49077D01*
X17664Y49262D01*
X18211Y49387D01*
X18769Y49450D01*
X19331Y49450D01*
X19889Y49387D01*
X20436Y49262D01*
X20966Y49077D01*
X21472Y48833D01*
X21948Y48534D01*
X22387Y48184D01*
X22784Y47787D01*
X23134Y47348D01*
X23433Y46872D01*
X23677Y46366D01*
X23862Y45836D01*
X23987Y45289D01*
X24050Y44731D01*
X24050Y44169D01*
X443150Y44169D02*
X443087Y43611D01*
X442962Y43064D01*
X442777Y42534D01*
X442533Y42028D01*
X442234Y41552D01*
X441884Y41113D01*
X441487Y40716D01*
X441048Y40366D01*
X440572Y40067D01*
X440066Y39823D01*
X439536Y39638D01*
X438989Y39513D01*
X438431Y39450D01*
X437869Y39450D01*
X437311Y39513D01*
X436764Y39638D01*
X436234Y39823D01*
X435728Y40067D01*
X435252Y40366D01*
X434813Y40716D01*
X434416Y41113D01*
X434066Y41552D01*
X433767Y42028D01*
X433523Y42534D01*
X433338Y43064D01*
X433213Y43611D01*
X433150Y44169D01*
X433150Y44731D01*
X433213Y45289D01*
X433338Y45836D01*
X433523Y46366D01*
X433767Y46872D01*
X434066Y47348D01*
X434416Y47787D01*
X434813Y48184D01*
X435252Y48534D01*
X435728Y48833D01*
X436234Y49077D01*
X436764Y49262D01*
X437311Y49387D01*
X437869Y49450D01*
X438431Y49450D01*
X438989Y49387D01*
X439536Y49262D01*
X440066Y49077D01*
X440572Y48833D01*
X441048Y48534D01*
X441487Y48184D01*
X441884Y47787D01*
X442234Y47348D01*
X442533Y46872D01*
X442777Y46366D01*
X442962Y45836D01*
X443087Y45289D01*
X443150Y44731D01*
X443150Y44169D01*
X24050Y539469D02*
X23987Y538911D01*
X23862Y538364D01*
X23677Y537834D01*
X23433Y537328D01*
X23134Y536852D01*
X22784Y536413D01*
X22387Y536016D01*
X21948Y535666D01*
X21472Y535367D01*
X20966Y535123D01*
X20436Y534938D01*
X19889Y534813D01*
X19331Y534750D01*
X18769Y534750D01*
X18211Y534813D01*
X17664Y534938D01*
X17134Y535123D01*
X16628Y535367D01*
X16152Y535666D01*
X15713Y536016D01*
X15316Y536413D01*
X14966Y536852D01*
X14667Y537328D01*
X14423Y537834D01*
X14238Y538364D01*
X14113Y538911D01*
X14050Y539469D01*
X14050Y540031D01*
X14113Y540589D01*
X14238Y541136D01*
X14423Y541666D01*
X14667Y542172D01*
X14966Y542648D01*
X15316Y543087D01*
X15713Y543484D01*
X16152Y543834D01*
X16628Y544133D01*
X17134Y544377D01*
X17664Y544562D01*
X18211Y544687D01*
X18769Y544750D01*
X19331Y544750D01*
X19889Y544687D01*
X20436Y544562D01*
X20966Y544377D01*
X21472Y544133D01*
X21948Y543834D01*
X22387Y543484D01*
X22784Y543087D01*
X23134Y542648D01*
X23433Y542172D01*
X23677Y541666D01*
X23862Y541136D01*
X23987Y540589D01*
X24050Y540031D01*
X24050Y539469D01*
X443150Y539469D02*
X443087Y538911D01*
X442962Y538364D01*
X442777Y537834D01*
X442533Y537328D01*
X442234Y536852D01*
X441884Y536413D01*
X441487Y536016D01*
X441048Y535666D01*
X440572Y535367D01*
X440066Y535123D01*
X439536Y534938D01*
X438989Y534813D01*
X438431Y534750D01*
X437869Y534750D01*
X437311Y534813D01*
X436764Y534938D01*
X436234Y535123D01*
X435728Y535367D01*
X435252Y535666D01*
X434813Y536016D01*
X434416Y536413D01*
X434066Y536852D01*
X433767Y537328D01*
X433523Y537834D01*
X433338Y538364D01*
X433213Y538911D01*
X433150Y539469D01*
X433150Y540031D01*
X433213Y540589D01*
X433338Y541136D01*
X433523Y541666D01*
X433767Y542172D01*
X434066Y542648D01*
X434416Y543087D01*
X434813Y543484D01*
X435252Y543834D01*
X435728Y544133D01*
X436234Y544377D01*
X436764Y544562D01*
X437311Y544687D01*
X437869Y544750D01*
X438431Y544750D01*
X438989Y544687D01*
X439536Y544562D01*
X440066Y544377D01*
X440572Y544133D01*
X441048Y543834D01*
X441487Y543484D01*
X441884Y543087D01*
X442234Y542648D01*
X442533Y542172D01*
X442777Y541666D01*
X442962Y541136D01*
X443087Y540589D01*
X443150Y540031D01*
X443150Y539469D01*
M02*
