G04 EAGLE Gerber RS-274X export*
G75*
%MOMM*%
%FSLAX34Y34*%
%LPD*%
%INSilkscreen Top*%
%IPPOS*%
%AMOC8*
5,1,8,0,0,1.08239X$1,22.5*%
G01*
%ADD10C,0.152400*%
%ADD11C,0.076200*%
%ADD12C,0.127000*%
%ADD13C,0.101600*%
%ADD14C,0.254000*%
%ADD15C,0.200000*%
%ADD16R,0.508000X0.508000*%
%ADD17R,0.635000X0.635000*%


D10*
X138938Y209381D02*
X138936Y209499D01*
X138930Y209617D01*
X138921Y209735D01*
X138907Y209852D01*
X138890Y209969D01*
X138869Y210086D01*
X138844Y210201D01*
X138815Y210316D01*
X138782Y210430D01*
X138746Y210542D01*
X138706Y210653D01*
X138663Y210763D01*
X138616Y210872D01*
X138566Y210979D01*
X138511Y211084D01*
X138454Y211187D01*
X138393Y211288D01*
X138329Y211388D01*
X138262Y211485D01*
X138192Y211580D01*
X138118Y211672D01*
X138042Y211763D01*
X137962Y211850D01*
X137880Y211935D01*
X137795Y212017D01*
X137708Y212097D01*
X137617Y212173D01*
X137525Y212247D01*
X137430Y212317D01*
X137333Y212384D01*
X137233Y212448D01*
X137132Y212509D01*
X137029Y212566D01*
X136924Y212621D01*
X136817Y212671D01*
X136708Y212718D01*
X136598Y212761D01*
X136487Y212801D01*
X136375Y212837D01*
X136261Y212870D01*
X136146Y212899D01*
X136031Y212924D01*
X135914Y212945D01*
X135797Y212962D01*
X135680Y212976D01*
X135562Y212985D01*
X135444Y212991D01*
X135326Y212993D01*
X138938Y209381D02*
X138936Y209198D01*
X138929Y209016D01*
X138918Y208834D01*
X138903Y208652D01*
X138883Y208470D01*
X138860Y208289D01*
X138831Y208109D01*
X138799Y207929D01*
X138762Y207750D01*
X138721Y207573D01*
X138675Y207396D01*
X138626Y207220D01*
X138572Y207046D01*
X138514Y206872D01*
X138452Y206701D01*
X138386Y206531D01*
X138315Y206362D01*
X138241Y206195D01*
X138163Y206030D01*
X138081Y205867D01*
X137995Y205706D01*
X137905Y205547D01*
X137811Y205390D01*
X137714Y205236D01*
X137613Y205084D01*
X137508Y204934D01*
X137400Y204787D01*
X137289Y204643D01*
X137174Y204501D01*
X137055Y204362D01*
X136933Y204226D01*
X136808Y204093D01*
X136680Y203963D01*
X126294Y204414D02*
X126176Y204416D01*
X126058Y204422D01*
X125940Y204431D01*
X125823Y204445D01*
X125706Y204462D01*
X125589Y204483D01*
X125474Y204508D01*
X125359Y204537D01*
X125245Y204570D01*
X125133Y204606D01*
X125022Y204646D01*
X124912Y204689D01*
X124803Y204736D01*
X124696Y204786D01*
X124591Y204841D01*
X124488Y204898D01*
X124387Y204959D01*
X124287Y205023D01*
X124190Y205090D01*
X124095Y205160D01*
X124003Y205234D01*
X123912Y205310D01*
X123825Y205390D01*
X123740Y205472D01*
X123658Y205557D01*
X123578Y205644D01*
X123502Y205735D01*
X123428Y205827D01*
X123358Y205922D01*
X123291Y206019D01*
X123227Y206119D01*
X123166Y206220D01*
X123109Y206323D01*
X123054Y206428D01*
X123004Y206535D01*
X122957Y206644D01*
X122914Y206754D01*
X122874Y206865D01*
X122838Y206977D01*
X122805Y207091D01*
X122776Y207206D01*
X122751Y207321D01*
X122730Y207438D01*
X122713Y207555D01*
X122699Y207672D01*
X122690Y207790D01*
X122684Y207908D01*
X122682Y208026D01*
X122684Y208187D01*
X122690Y208349D01*
X122699Y208510D01*
X122713Y208671D01*
X122730Y208831D01*
X122751Y208991D01*
X122776Y209151D01*
X122805Y209310D01*
X122837Y209468D01*
X122873Y209625D01*
X122913Y209781D01*
X122957Y209937D01*
X123005Y210091D01*
X123056Y210244D01*
X123110Y210396D01*
X123169Y210547D01*
X123230Y210696D01*
X123296Y210843D01*
X123365Y210989D01*
X123437Y211134D01*
X123513Y211276D01*
X123592Y211417D01*
X123674Y211556D01*
X123760Y211692D01*
X123849Y211827D01*
X123941Y211960D01*
X124037Y212090D01*
X129455Y206219D02*
X129393Y206118D01*
X129328Y206018D01*
X129259Y205921D01*
X129187Y205826D01*
X129113Y205733D01*
X129035Y205643D01*
X128954Y205555D01*
X128871Y205470D01*
X128785Y205388D01*
X128696Y205309D01*
X128605Y205232D01*
X128511Y205159D01*
X128415Y205088D01*
X128317Y205021D01*
X128217Y204957D01*
X128114Y204896D01*
X128010Y204839D01*
X127904Y204785D01*
X127796Y204735D01*
X127687Y204688D01*
X127576Y204644D01*
X127464Y204604D01*
X127350Y204568D01*
X127236Y204536D01*
X127120Y204507D01*
X127004Y204482D01*
X126887Y204461D01*
X126769Y204444D01*
X126651Y204430D01*
X126532Y204421D01*
X126413Y204415D01*
X126294Y204413D01*
X132165Y211187D02*
X132227Y211288D01*
X132292Y211388D01*
X132361Y211485D01*
X132433Y211580D01*
X132507Y211673D01*
X132585Y211763D01*
X132666Y211851D01*
X132749Y211936D01*
X132835Y212018D01*
X132924Y212097D01*
X133015Y212174D01*
X133109Y212247D01*
X133205Y212318D01*
X133303Y212385D01*
X133403Y212449D01*
X133506Y212510D01*
X133610Y212567D01*
X133716Y212621D01*
X133824Y212671D01*
X133933Y212718D01*
X134044Y212762D01*
X134156Y212802D01*
X134270Y212838D01*
X134384Y212870D01*
X134500Y212899D01*
X134616Y212924D01*
X134733Y212945D01*
X134851Y212962D01*
X134969Y212976D01*
X135088Y212985D01*
X135207Y212991D01*
X135326Y212993D01*
X132165Y211187D02*
X129455Y206220D01*
X122682Y222546D02*
X138938Y222546D01*
X122682Y218030D02*
X122682Y227061D01*
X122682Y233279D02*
X138938Y233279D01*
X131713Y238698D02*
X122682Y233279D01*
X131713Y238698D02*
X122682Y244117D01*
X138938Y244117D01*
X138938Y251377D02*
X138938Y255892D01*
X138936Y256025D01*
X138930Y256157D01*
X138920Y256289D01*
X138907Y256421D01*
X138889Y256553D01*
X138868Y256683D01*
X138843Y256814D01*
X138814Y256943D01*
X138781Y257071D01*
X138745Y257199D01*
X138705Y257325D01*
X138661Y257450D01*
X138613Y257574D01*
X138562Y257696D01*
X138507Y257817D01*
X138449Y257936D01*
X138387Y258054D01*
X138322Y258169D01*
X138253Y258283D01*
X138182Y258394D01*
X138106Y258503D01*
X138028Y258610D01*
X137947Y258715D01*
X137862Y258817D01*
X137775Y258917D01*
X137685Y259014D01*
X137592Y259109D01*
X137496Y259200D01*
X137398Y259289D01*
X137297Y259375D01*
X137193Y259458D01*
X137087Y259538D01*
X136979Y259614D01*
X136869Y259688D01*
X136756Y259758D01*
X136642Y259825D01*
X136525Y259888D01*
X136407Y259948D01*
X136287Y260005D01*
X136165Y260058D01*
X136042Y260107D01*
X135918Y260153D01*
X135792Y260195D01*
X135665Y260233D01*
X135537Y260268D01*
X135408Y260299D01*
X135279Y260326D01*
X135148Y260349D01*
X135017Y260369D01*
X134885Y260384D01*
X134753Y260396D01*
X134621Y260404D01*
X134488Y260408D01*
X134356Y260408D01*
X134223Y260404D01*
X134091Y260396D01*
X133959Y260384D01*
X133827Y260369D01*
X133696Y260349D01*
X133565Y260326D01*
X133436Y260299D01*
X133307Y260268D01*
X133179Y260233D01*
X133052Y260195D01*
X132926Y260153D01*
X132802Y260107D01*
X132679Y260058D01*
X132557Y260005D01*
X132437Y259948D01*
X132319Y259888D01*
X132202Y259825D01*
X132088Y259758D01*
X131975Y259688D01*
X131865Y259614D01*
X131757Y259538D01*
X131651Y259458D01*
X131547Y259375D01*
X131446Y259289D01*
X131348Y259200D01*
X131252Y259109D01*
X131159Y259014D01*
X131069Y258917D01*
X130982Y258817D01*
X130897Y258715D01*
X130816Y258610D01*
X130738Y258503D01*
X130662Y258394D01*
X130591Y258283D01*
X130522Y258169D01*
X130457Y258054D01*
X130395Y257936D01*
X130337Y257817D01*
X130282Y257696D01*
X130231Y257574D01*
X130183Y257450D01*
X130139Y257325D01*
X130099Y257199D01*
X130063Y257071D01*
X130030Y256943D01*
X130001Y256814D01*
X129976Y256683D01*
X129955Y256553D01*
X129937Y256421D01*
X129924Y256289D01*
X129914Y256157D01*
X129908Y256025D01*
X129906Y255892D01*
X122682Y256795D02*
X122682Y251377D01*
X122682Y256795D02*
X122684Y256914D01*
X122690Y257034D01*
X122700Y257153D01*
X122714Y257271D01*
X122731Y257390D01*
X122753Y257507D01*
X122778Y257624D01*
X122808Y257739D01*
X122841Y257854D01*
X122878Y257968D01*
X122918Y258080D01*
X122963Y258191D01*
X123011Y258300D01*
X123062Y258408D01*
X123117Y258514D01*
X123176Y258618D01*
X123238Y258720D01*
X123303Y258820D01*
X123372Y258918D01*
X123444Y259014D01*
X123519Y259107D01*
X123596Y259197D01*
X123677Y259285D01*
X123761Y259370D01*
X123848Y259452D01*
X123937Y259532D01*
X124029Y259608D01*
X124123Y259682D01*
X124220Y259752D01*
X124318Y259819D01*
X124419Y259883D01*
X124523Y259943D01*
X124628Y260000D01*
X124735Y260053D01*
X124843Y260103D01*
X124953Y260149D01*
X125065Y260191D01*
X125178Y260230D01*
X125292Y260265D01*
X125407Y260296D01*
X125524Y260324D01*
X125641Y260347D01*
X125758Y260367D01*
X125877Y260383D01*
X125996Y260395D01*
X126115Y260403D01*
X126234Y260407D01*
X126354Y260407D01*
X126473Y260403D01*
X126592Y260395D01*
X126711Y260383D01*
X126830Y260367D01*
X126947Y260347D01*
X127064Y260324D01*
X127181Y260296D01*
X127296Y260265D01*
X127410Y260230D01*
X127523Y260191D01*
X127635Y260149D01*
X127745Y260103D01*
X127853Y260053D01*
X127960Y260000D01*
X128065Y259943D01*
X128169Y259883D01*
X128270Y259819D01*
X128368Y259752D01*
X128465Y259682D01*
X128559Y259608D01*
X128651Y259532D01*
X128740Y259452D01*
X128827Y259370D01*
X128911Y259285D01*
X128992Y259197D01*
X129069Y259107D01*
X129144Y259014D01*
X129216Y258918D01*
X129285Y258820D01*
X129350Y258720D01*
X129412Y258618D01*
X129471Y258514D01*
X129526Y258408D01*
X129577Y258300D01*
X129625Y258191D01*
X129670Y258080D01*
X129710Y257968D01*
X129747Y257854D01*
X129780Y257739D01*
X129810Y257624D01*
X129835Y257507D01*
X129857Y257390D01*
X129874Y257271D01*
X129888Y257153D01*
X129898Y257034D01*
X129904Y256914D01*
X129906Y256795D01*
X129907Y256795D02*
X129907Y253183D01*
X122682Y271975D02*
X122684Y272100D01*
X122690Y272225D01*
X122699Y272350D01*
X122713Y272474D01*
X122730Y272598D01*
X122751Y272722D01*
X122776Y272844D01*
X122805Y272966D01*
X122837Y273087D01*
X122873Y273207D01*
X122913Y273326D01*
X122956Y273443D01*
X123003Y273559D01*
X123054Y273674D01*
X123108Y273786D01*
X123166Y273898D01*
X123226Y274007D01*
X123291Y274114D01*
X123358Y274220D01*
X123429Y274323D01*
X123503Y274424D01*
X123580Y274523D01*
X123660Y274619D01*
X123743Y274713D01*
X123828Y274804D01*
X123917Y274893D01*
X124008Y274978D01*
X124102Y275061D01*
X124198Y275141D01*
X124297Y275218D01*
X124398Y275292D01*
X124501Y275363D01*
X124607Y275430D01*
X124714Y275495D01*
X124823Y275555D01*
X124935Y275613D01*
X125047Y275667D01*
X125162Y275718D01*
X125278Y275765D01*
X125395Y275808D01*
X125514Y275848D01*
X125634Y275884D01*
X125755Y275916D01*
X125877Y275945D01*
X125999Y275970D01*
X126123Y275991D01*
X126247Y276008D01*
X126371Y276022D01*
X126496Y276031D01*
X126621Y276037D01*
X126746Y276039D01*
X122682Y271975D02*
X122684Y271832D01*
X122690Y271690D01*
X122700Y271547D01*
X122713Y271405D01*
X122731Y271264D01*
X122752Y271122D01*
X122777Y270982D01*
X122806Y270842D01*
X122839Y270703D01*
X122876Y270565D01*
X122916Y270428D01*
X122960Y270293D01*
X123008Y270158D01*
X123060Y270025D01*
X123115Y269893D01*
X123174Y269763D01*
X123236Y269635D01*
X123302Y269508D01*
X123371Y269383D01*
X123443Y269260D01*
X123519Y269139D01*
X123598Y269021D01*
X123681Y268904D01*
X123766Y268790D01*
X123855Y268678D01*
X123946Y268569D01*
X124041Y268462D01*
X124138Y268357D01*
X124239Y268256D01*
X124342Y268157D01*
X124447Y268061D01*
X124556Y267968D01*
X124667Y267878D01*
X124780Y267791D01*
X124895Y267707D01*
X125013Y267627D01*
X125133Y267549D01*
X125255Y267475D01*
X125379Y267405D01*
X125505Y267337D01*
X125633Y267274D01*
X125762Y267213D01*
X125893Y267156D01*
X126025Y267103D01*
X126159Y267054D01*
X126294Y267008D01*
X129907Y274684D02*
X129815Y274778D01*
X129721Y274868D01*
X129624Y274956D01*
X129524Y275041D01*
X129422Y275123D01*
X129317Y275201D01*
X129210Y275277D01*
X129101Y275349D01*
X128990Y275418D01*
X128876Y275484D01*
X128761Y275546D01*
X128644Y275605D01*
X128525Y275660D01*
X128405Y275711D01*
X128283Y275759D01*
X128160Y275804D01*
X128036Y275844D01*
X127910Y275881D01*
X127783Y275914D01*
X127656Y275943D01*
X127527Y275969D01*
X127398Y275990D01*
X127268Y276008D01*
X127138Y276021D01*
X127008Y276031D01*
X126877Y276037D01*
X126746Y276039D01*
X129907Y274684D02*
X138938Y267008D01*
X138938Y276039D01*
X122682Y290107D02*
X119070Y290107D01*
X119070Y294623D02*
X122682Y294623D01*
X129907Y301087D02*
X129907Y305602D01*
X129906Y305602D02*
X129908Y305735D01*
X129914Y305867D01*
X129924Y305999D01*
X129937Y306131D01*
X129955Y306263D01*
X129976Y306393D01*
X130001Y306524D01*
X130030Y306653D01*
X130063Y306781D01*
X130099Y306909D01*
X130139Y307035D01*
X130183Y307160D01*
X130231Y307284D01*
X130282Y307406D01*
X130337Y307527D01*
X130395Y307646D01*
X130457Y307764D01*
X130522Y307879D01*
X130591Y307993D01*
X130662Y308104D01*
X130738Y308213D01*
X130816Y308320D01*
X130897Y308425D01*
X130982Y308527D01*
X131069Y308627D01*
X131159Y308724D01*
X131252Y308819D01*
X131348Y308910D01*
X131446Y308999D01*
X131547Y309085D01*
X131651Y309168D01*
X131757Y309248D01*
X131865Y309324D01*
X131975Y309398D01*
X132088Y309468D01*
X132202Y309535D01*
X132319Y309598D01*
X132437Y309658D01*
X132557Y309715D01*
X132679Y309768D01*
X132802Y309817D01*
X132926Y309863D01*
X133052Y309905D01*
X133179Y309943D01*
X133307Y309978D01*
X133436Y310009D01*
X133565Y310036D01*
X133696Y310059D01*
X133827Y310079D01*
X133959Y310094D01*
X134091Y310106D01*
X134223Y310114D01*
X134356Y310118D01*
X134488Y310118D01*
X134621Y310114D01*
X134753Y310106D01*
X134885Y310094D01*
X135017Y310079D01*
X135148Y310059D01*
X135279Y310036D01*
X135408Y310009D01*
X135537Y309978D01*
X135665Y309943D01*
X135792Y309905D01*
X135918Y309863D01*
X136042Y309817D01*
X136165Y309768D01*
X136287Y309715D01*
X136407Y309658D01*
X136525Y309598D01*
X136642Y309535D01*
X136756Y309468D01*
X136869Y309398D01*
X136979Y309324D01*
X137087Y309248D01*
X137193Y309168D01*
X137297Y309085D01*
X137398Y308999D01*
X137496Y308910D01*
X137592Y308819D01*
X137685Y308724D01*
X137775Y308627D01*
X137862Y308527D01*
X137947Y308425D01*
X138028Y308320D01*
X138106Y308213D01*
X138182Y308104D01*
X138253Y307993D01*
X138322Y307879D01*
X138387Y307764D01*
X138449Y307646D01*
X138507Y307527D01*
X138562Y307406D01*
X138613Y307284D01*
X138661Y307160D01*
X138705Y307035D01*
X138745Y306909D01*
X138781Y306781D01*
X138814Y306653D01*
X138843Y306524D01*
X138868Y306393D01*
X138889Y306263D01*
X138907Y306131D01*
X138920Y305999D01*
X138930Y305867D01*
X138936Y305735D01*
X138938Y305602D01*
X138938Y301087D01*
X122682Y301087D01*
X122682Y305602D01*
X122684Y305721D01*
X122690Y305841D01*
X122700Y305960D01*
X122714Y306078D01*
X122731Y306197D01*
X122753Y306314D01*
X122778Y306431D01*
X122808Y306546D01*
X122841Y306661D01*
X122878Y306775D01*
X122918Y306887D01*
X122963Y306998D01*
X123011Y307107D01*
X123062Y307215D01*
X123117Y307321D01*
X123176Y307425D01*
X123238Y307527D01*
X123303Y307627D01*
X123372Y307725D01*
X123444Y307821D01*
X123519Y307914D01*
X123596Y308004D01*
X123677Y308092D01*
X123761Y308177D01*
X123848Y308259D01*
X123937Y308339D01*
X124029Y308415D01*
X124123Y308489D01*
X124220Y308559D01*
X124318Y308626D01*
X124419Y308690D01*
X124523Y308750D01*
X124628Y308807D01*
X124735Y308860D01*
X124843Y308910D01*
X124953Y308956D01*
X125065Y308998D01*
X125178Y309037D01*
X125292Y309072D01*
X125407Y309103D01*
X125524Y309131D01*
X125641Y309154D01*
X125758Y309174D01*
X125877Y309190D01*
X125996Y309202D01*
X126115Y309210D01*
X126234Y309214D01*
X126354Y309214D01*
X126473Y309210D01*
X126592Y309202D01*
X126711Y309190D01*
X126830Y309174D01*
X126947Y309154D01*
X127064Y309131D01*
X127181Y309103D01*
X127296Y309072D01*
X127410Y309037D01*
X127523Y308998D01*
X127635Y308956D01*
X127745Y308910D01*
X127853Y308860D01*
X127960Y308807D01*
X128065Y308750D01*
X128169Y308690D01*
X128270Y308626D01*
X128368Y308559D01*
X128465Y308489D01*
X128559Y308415D01*
X128651Y308339D01*
X128740Y308259D01*
X128827Y308177D01*
X128911Y308092D01*
X128992Y308004D01*
X129069Y307914D01*
X129144Y307821D01*
X129216Y307725D01*
X129285Y307627D01*
X129350Y307527D01*
X129412Y307425D01*
X129471Y307321D01*
X129526Y307215D01*
X129577Y307107D01*
X129625Y306998D01*
X129670Y306887D01*
X129710Y306775D01*
X129747Y306661D01*
X129780Y306546D01*
X129810Y306431D01*
X129835Y306314D01*
X129857Y306197D01*
X129874Y306078D01*
X129888Y305960D01*
X129898Y305841D01*
X129904Y305721D01*
X129906Y305602D01*
X136229Y316084D02*
X122682Y316084D01*
X136229Y316084D02*
X136330Y316086D01*
X136431Y316092D01*
X136532Y316101D01*
X136633Y316114D01*
X136733Y316131D01*
X136832Y316152D01*
X136930Y316176D01*
X137027Y316204D01*
X137124Y316236D01*
X137219Y316271D01*
X137312Y316310D01*
X137404Y316352D01*
X137495Y316398D01*
X137584Y316447D01*
X137670Y316499D01*
X137755Y316555D01*
X137838Y316613D01*
X137918Y316675D01*
X137996Y316740D01*
X138072Y316807D01*
X138145Y316877D01*
X138215Y316950D01*
X138282Y317026D01*
X138347Y317104D01*
X138409Y317184D01*
X138467Y317267D01*
X138523Y317352D01*
X138575Y317439D01*
X138624Y317527D01*
X138670Y317618D01*
X138712Y317710D01*
X138751Y317803D01*
X138786Y317898D01*
X138818Y317995D01*
X138846Y318092D01*
X138870Y318190D01*
X138891Y318289D01*
X138908Y318389D01*
X138921Y318490D01*
X138930Y318591D01*
X138936Y318692D01*
X138938Y318793D01*
X136229Y324705D02*
X128101Y324705D01*
X136229Y324705D02*
X136330Y324707D01*
X136431Y324713D01*
X136532Y324722D01*
X136633Y324735D01*
X136733Y324752D01*
X136832Y324773D01*
X136930Y324797D01*
X137027Y324825D01*
X137124Y324857D01*
X137219Y324892D01*
X137312Y324931D01*
X137404Y324973D01*
X137495Y325019D01*
X137584Y325068D01*
X137670Y325120D01*
X137755Y325176D01*
X137838Y325234D01*
X137918Y325296D01*
X137996Y325361D01*
X138072Y325428D01*
X138145Y325498D01*
X138215Y325571D01*
X138282Y325647D01*
X138347Y325725D01*
X138409Y325805D01*
X138467Y325888D01*
X138523Y325973D01*
X138575Y326060D01*
X138624Y326148D01*
X138670Y326239D01*
X138712Y326331D01*
X138751Y326424D01*
X138786Y326519D01*
X138818Y326616D01*
X138846Y326713D01*
X138870Y326811D01*
X138891Y326910D01*
X138908Y327010D01*
X138921Y327111D01*
X138930Y327212D01*
X138936Y327313D01*
X138938Y327414D01*
X138938Y331929D01*
X128101Y331929D01*
X138938Y341482D02*
X138938Y345998D01*
X138938Y341482D02*
X138936Y341381D01*
X138930Y341280D01*
X138921Y341179D01*
X138908Y341078D01*
X138891Y340978D01*
X138870Y340879D01*
X138846Y340781D01*
X138818Y340684D01*
X138786Y340587D01*
X138751Y340492D01*
X138712Y340399D01*
X138670Y340307D01*
X138624Y340216D01*
X138575Y340128D01*
X138523Y340041D01*
X138467Y339956D01*
X138409Y339873D01*
X138347Y339793D01*
X138282Y339715D01*
X138215Y339639D01*
X138145Y339566D01*
X138072Y339496D01*
X137996Y339429D01*
X137918Y339364D01*
X137838Y339302D01*
X137755Y339244D01*
X137670Y339188D01*
X137584Y339136D01*
X137495Y339087D01*
X137404Y339041D01*
X137312Y338999D01*
X137219Y338960D01*
X137124Y338925D01*
X137027Y338893D01*
X136930Y338865D01*
X136832Y338841D01*
X136733Y338820D01*
X136633Y338803D01*
X136532Y338790D01*
X136431Y338781D01*
X136330Y338775D01*
X136229Y338773D01*
X131713Y338773D01*
X131594Y338775D01*
X131474Y338781D01*
X131355Y338791D01*
X131237Y338805D01*
X131118Y338822D01*
X131001Y338844D01*
X130884Y338869D01*
X130769Y338899D01*
X130654Y338932D01*
X130540Y338969D01*
X130428Y339009D01*
X130317Y339054D01*
X130208Y339102D01*
X130100Y339153D01*
X129994Y339208D01*
X129890Y339267D01*
X129788Y339329D01*
X129688Y339394D01*
X129590Y339463D01*
X129494Y339535D01*
X129401Y339610D01*
X129311Y339687D01*
X129223Y339768D01*
X129138Y339852D01*
X129056Y339939D01*
X128976Y340028D01*
X128900Y340120D01*
X128826Y340214D01*
X128756Y340311D01*
X128689Y340409D01*
X128625Y340510D01*
X128565Y340614D01*
X128508Y340719D01*
X128455Y340826D01*
X128405Y340934D01*
X128359Y341044D01*
X128317Y341156D01*
X128278Y341269D01*
X128243Y341383D01*
X128212Y341498D01*
X128184Y341615D01*
X128161Y341732D01*
X128141Y341849D01*
X128125Y341968D01*
X128113Y342087D01*
X128105Y342206D01*
X128101Y342325D01*
X128101Y342445D01*
X128105Y342564D01*
X128113Y342683D01*
X128125Y342802D01*
X128141Y342921D01*
X128161Y343038D01*
X128184Y343155D01*
X128212Y343272D01*
X128243Y343387D01*
X128278Y343501D01*
X128317Y343614D01*
X128359Y343726D01*
X128405Y343836D01*
X128455Y343944D01*
X128508Y344051D01*
X128565Y344156D01*
X128625Y344260D01*
X128689Y344361D01*
X128756Y344459D01*
X128826Y344556D01*
X128900Y344650D01*
X128976Y344742D01*
X129056Y344831D01*
X129138Y344918D01*
X129223Y345002D01*
X129311Y345083D01*
X129401Y345160D01*
X129494Y345235D01*
X129590Y345307D01*
X129688Y345376D01*
X129788Y345441D01*
X129890Y345503D01*
X129994Y345562D01*
X130100Y345617D01*
X130208Y345668D01*
X130317Y345716D01*
X130428Y345761D01*
X130540Y345801D01*
X130654Y345838D01*
X130769Y345871D01*
X130884Y345901D01*
X131001Y345926D01*
X131118Y345948D01*
X131237Y345965D01*
X131355Y345979D01*
X131474Y345989D01*
X131594Y345995D01*
X131713Y345997D01*
X131713Y345998D02*
X133519Y345998D01*
X133519Y338773D01*
X138938Y361527D02*
X122682Y361527D01*
X122682Y366043D01*
X122684Y366176D01*
X122690Y366308D01*
X122700Y366440D01*
X122713Y366572D01*
X122731Y366704D01*
X122752Y366834D01*
X122777Y366965D01*
X122806Y367094D01*
X122839Y367222D01*
X122875Y367350D01*
X122915Y367476D01*
X122959Y367601D01*
X123007Y367725D01*
X123058Y367847D01*
X123113Y367968D01*
X123171Y368087D01*
X123233Y368205D01*
X123298Y368320D01*
X123367Y368434D01*
X123438Y368545D01*
X123514Y368654D01*
X123592Y368761D01*
X123673Y368866D01*
X123758Y368968D01*
X123845Y369068D01*
X123935Y369165D01*
X124028Y369260D01*
X124124Y369351D01*
X124222Y369440D01*
X124323Y369526D01*
X124427Y369609D01*
X124533Y369689D01*
X124641Y369765D01*
X124751Y369839D01*
X124864Y369909D01*
X124978Y369976D01*
X125095Y370039D01*
X125213Y370099D01*
X125333Y370156D01*
X125455Y370209D01*
X125578Y370258D01*
X125702Y370304D01*
X125828Y370346D01*
X125955Y370384D01*
X126083Y370419D01*
X126212Y370450D01*
X126341Y370477D01*
X126472Y370500D01*
X126603Y370520D01*
X126735Y370535D01*
X126867Y370547D01*
X126999Y370555D01*
X127132Y370559D01*
X127264Y370559D01*
X127397Y370555D01*
X127529Y370547D01*
X127661Y370535D01*
X127793Y370520D01*
X127924Y370500D01*
X128055Y370477D01*
X128184Y370450D01*
X128313Y370419D01*
X128441Y370384D01*
X128568Y370346D01*
X128694Y370304D01*
X128818Y370258D01*
X128941Y370209D01*
X129063Y370156D01*
X129183Y370099D01*
X129301Y370039D01*
X129418Y369976D01*
X129532Y369909D01*
X129645Y369839D01*
X129755Y369765D01*
X129863Y369689D01*
X129969Y369609D01*
X130073Y369526D01*
X130174Y369440D01*
X130272Y369351D01*
X130368Y369260D01*
X130461Y369165D01*
X130551Y369068D01*
X130638Y368968D01*
X130723Y368866D01*
X130804Y368761D01*
X130882Y368654D01*
X130958Y368545D01*
X131029Y368434D01*
X131098Y368320D01*
X131163Y368205D01*
X131225Y368087D01*
X131283Y367968D01*
X131338Y367847D01*
X131389Y367725D01*
X131437Y367601D01*
X131481Y367476D01*
X131521Y367350D01*
X131557Y367222D01*
X131590Y367094D01*
X131619Y366965D01*
X131644Y366834D01*
X131665Y366704D01*
X131683Y366572D01*
X131696Y366440D01*
X131706Y366308D01*
X131712Y366176D01*
X131714Y366043D01*
X131713Y366043D02*
X131713Y361527D01*
X128101Y376253D02*
X138938Y376253D01*
X123585Y375801D02*
X122682Y375801D01*
X122682Y376704D01*
X123585Y376704D01*
X123585Y375801D01*
X122682Y382777D02*
X136229Y382777D01*
X136330Y382779D01*
X136431Y382785D01*
X136532Y382794D01*
X136633Y382807D01*
X136733Y382824D01*
X136832Y382845D01*
X136930Y382869D01*
X137027Y382897D01*
X137124Y382929D01*
X137219Y382964D01*
X137312Y383003D01*
X137404Y383045D01*
X137495Y383091D01*
X137584Y383140D01*
X137670Y383192D01*
X137755Y383248D01*
X137838Y383306D01*
X137918Y383368D01*
X137996Y383433D01*
X138072Y383500D01*
X138145Y383570D01*
X138215Y383643D01*
X138282Y383719D01*
X138347Y383797D01*
X138409Y383877D01*
X138467Y383960D01*
X138523Y384045D01*
X138575Y384132D01*
X138624Y384220D01*
X138670Y384311D01*
X138712Y384403D01*
X138751Y384496D01*
X138786Y384591D01*
X138818Y384688D01*
X138846Y384785D01*
X138870Y384883D01*
X138891Y384982D01*
X138908Y385082D01*
X138921Y385183D01*
X138930Y385284D01*
X138936Y385385D01*
X138938Y385486D01*
X136229Y391114D02*
X122682Y391114D01*
X136229Y391114D02*
X136330Y391116D01*
X136431Y391122D01*
X136532Y391131D01*
X136633Y391144D01*
X136733Y391161D01*
X136832Y391182D01*
X136930Y391206D01*
X137027Y391234D01*
X137124Y391266D01*
X137219Y391301D01*
X137312Y391340D01*
X137404Y391382D01*
X137495Y391428D01*
X137584Y391477D01*
X137670Y391529D01*
X137755Y391585D01*
X137838Y391643D01*
X137918Y391705D01*
X137996Y391770D01*
X138072Y391837D01*
X138145Y391907D01*
X138215Y391980D01*
X138282Y392056D01*
X138347Y392134D01*
X138409Y392214D01*
X138467Y392297D01*
X138523Y392382D01*
X138575Y392469D01*
X138624Y392557D01*
X138670Y392648D01*
X138712Y392740D01*
X138751Y392833D01*
X138786Y392928D01*
X138818Y393025D01*
X138846Y393122D01*
X138870Y393220D01*
X138891Y393319D01*
X138908Y393419D01*
X138921Y393520D01*
X138930Y393621D01*
X138936Y393722D01*
X138938Y393823D01*
X122682Y398484D02*
X119070Y398484D01*
X119070Y402999D02*
X122682Y402999D01*
D11*
X25019Y89281D02*
X15621Y89281D01*
X20842Y92414D01*
X15621Y95546D01*
X25019Y95546D01*
X21364Y101556D02*
X21364Y103905D01*
X21365Y101556D02*
X21367Y101472D01*
X21373Y101387D01*
X21383Y101304D01*
X21396Y101220D01*
X21414Y101138D01*
X21435Y101056D01*
X21460Y100975D01*
X21488Y100896D01*
X21521Y100818D01*
X21557Y100742D01*
X21596Y100667D01*
X21639Y100594D01*
X21685Y100523D01*
X21734Y100455D01*
X21786Y100389D01*
X21842Y100325D01*
X21900Y100264D01*
X21961Y100206D01*
X22025Y100150D01*
X22091Y100098D01*
X22159Y100049D01*
X22230Y100003D01*
X22303Y99960D01*
X22378Y99921D01*
X22454Y99885D01*
X22532Y99852D01*
X22611Y99824D01*
X22692Y99799D01*
X22774Y99778D01*
X22856Y99760D01*
X22940Y99747D01*
X23023Y99737D01*
X23108Y99731D01*
X23192Y99729D01*
X23276Y99731D01*
X23361Y99737D01*
X23444Y99747D01*
X23528Y99760D01*
X23610Y99778D01*
X23692Y99799D01*
X23773Y99824D01*
X23852Y99852D01*
X23930Y99885D01*
X24006Y99921D01*
X24081Y99960D01*
X24154Y100003D01*
X24225Y100049D01*
X24293Y100098D01*
X24359Y100150D01*
X24423Y100206D01*
X24484Y100264D01*
X24542Y100325D01*
X24598Y100389D01*
X24650Y100455D01*
X24699Y100523D01*
X24745Y100594D01*
X24788Y100667D01*
X24827Y100742D01*
X24863Y100818D01*
X24896Y100896D01*
X24924Y100975D01*
X24949Y101056D01*
X24970Y101138D01*
X24988Y101220D01*
X25001Y101304D01*
X25011Y101387D01*
X25017Y101472D01*
X25019Y101556D01*
X25019Y103905D01*
X20320Y103905D01*
X20243Y103903D01*
X20167Y103897D01*
X20090Y103888D01*
X20014Y103875D01*
X19939Y103858D01*
X19865Y103838D01*
X19792Y103813D01*
X19721Y103786D01*
X19650Y103755D01*
X19582Y103720D01*
X19515Y103682D01*
X19450Y103641D01*
X19387Y103597D01*
X19327Y103550D01*
X19268Y103499D01*
X19213Y103446D01*
X19160Y103391D01*
X19109Y103332D01*
X19062Y103272D01*
X19018Y103209D01*
X18977Y103144D01*
X18939Y103077D01*
X18904Y103009D01*
X18873Y102938D01*
X18846Y102867D01*
X18821Y102794D01*
X18801Y102720D01*
X18784Y102645D01*
X18771Y102569D01*
X18762Y102492D01*
X18756Y102416D01*
X18754Y102339D01*
X18754Y100250D01*
X25019Y109524D02*
X25019Y112135D01*
X25019Y109524D02*
X25017Y109447D01*
X25011Y109371D01*
X25002Y109294D01*
X24989Y109218D01*
X24972Y109143D01*
X24952Y109069D01*
X24927Y108996D01*
X24900Y108925D01*
X24869Y108854D01*
X24834Y108786D01*
X24796Y108719D01*
X24755Y108654D01*
X24711Y108591D01*
X24664Y108531D01*
X24613Y108472D01*
X24560Y108417D01*
X24505Y108364D01*
X24446Y108313D01*
X24386Y108266D01*
X24323Y108222D01*
X24258Y108181D01*
X24191Y108143D01*
X24123Y108108D01*
X24052Y108077D01*
X23981Y108050D01*
X23908Y108025D01*
X23834Y108005D01*
X23759Y107988D01*
X23683Y107975D01*
X23606Y107966D01*
X23530Y107960D01*
X23453Y107958D01*
X20320Y107958D01*
X20243Y107960D01*
X20167Y107966D01*
X20090Y107975D01*
X20014Y107988D01*
X19939Y108005D01*
X19865Y108025D01*
X19792Y108050D01*
X19721Y108077D01*
X19650Y108108D01*
X19582Y108143D01*
X19515Y108181D01*
X19450Y108222D01*
X19387Y108266D01*
X19327Y108313D01*
X19268Y108364D01*
X19213Y108417D01*
X19160Y108472D01*
X19109Y108531D01*
X19062Y108591D01*
X19018Y108654D01*
X18977Y108719D01*
X18939Y108786D01*
X18904Y108854D01*
X18873Y108925D01*
X18846Y108996D01*
X18821Y109069D01*
X18801Y109143D01*
X18784Y109218D01*
X18771Y109294D01*
X18762Y109371D01*
X18756Y109447D01*
X18754Y109524D01*
X18754Y112135D01*
X26585Y112135D01*
X26585Y112134D02*
X26662Y112132D01*
X26738Y112126D01*
X26815Y112117D01*
X26891Y112104D01*
X26966Y112087D01*
X27040Y112067D01*
X27113Y112042D01*
X27184Y112015D01*
X27255Y111984D01*
X27323Y111949D01*
X27390Y111911D01*
X27455Y111870D01*
X27518Y111826D01*
X27578Y111779D01*
X27637Y111728D01*
X27692Y111675D01*
X27745Y111620D01*
X27796Y111561D01*
X27843Y111501D01*
X27887Y111438D01*
X27928Y111373D01*
X27966Y111306D01*
X28001Y111238D01*
X28032Y111167D01*
X28059Y111096D01*
X28084Y111023D01*
X28104Y110949D01*
X28121Y110874D01*
X28134Y110798D01*
X28143Y110721D01*
X28149Y110645D01*
X28151Y110568D01*
X28152Y110568D02*
X28152Y108480D01*
X25019Y116188D02*
X18754Y116188D01*
X16143Y115927D02*
X15621Y115927D01*
X15621Y116449D01*
X16143Y116449D01*
X16143Y115927D01*
X25019Y121467D02*
X25019Y123556D01*
X25019Y121467D02*
X25017Y121390D01*
X25011Y121314D01*
X25002Y121237D01*
X24989Y121161D01*
X24972Y121086D01*
X24952Y121012D01*
X24927Y120939D01*
X24900Y120868D01*
X24869Y120797D01*
X24834Y120729D01*
X24796Y120662D01*
X24755Y120597D01*
X24711Y120534D01*
X24664Y120474D01*
X24613Y120415D01*
X24560Y120360D01*
X24505Y120307D01*
X24446Y120256D01*
X24386Y120209D01*
X24323Y120165D01*
X24258Y120124D01*
X24191Y120086D01*
X24123Y120051D01*
X24052Y120020D01*
X23981Y119993D01*
X23908Y119968D01*
X23834Y119948D01*
X23759Y119931D01*
X23683Y119918D01*
X23606Y119909D01*
X23530Y119903D01*
X23453Y119901D01*
X20320Y119901D01*
X20243Y119903D01*
X20167Y119909D01*
X20090Y119918D01*
X20014Y119931D01*
X19939Y119948D01*
X19865Y119968D01*
X19792Y119993D01*
X19721Y120020D01*
X19650Y120051D01*
X19582Y120086D01*
X19515Y120124D01*
X19450Y120165D01*
X19387Y120209D01*
X19327Y120256D01*
X19268Y120307D01*
X19213Y120360D01*
X19160Y120415D01*
X19109Y120474D01*
X19062Y120534D01*
X19018Y120597D01*
X18977Y120662D01*
X18939Y120729D01*
X18904Y120797D01*
X18873Y120868D01*
X18846Y120939D01*
X18821Y121012D01*
X18801Y121086D01*
X18784Y121161D01*
X18771Y121237D01*
X18762Y121314D01*
X18756Y121390D01*
X18754Y121467D01*
X18754Y123556D01*
X21364Y132561D02*
X22408Y135171D01*
X21364Y132561D02*
X21336Y132495D01*
X21303Y132430D01*
X21268Y132367D01*
X21229Y132306D01*
X21187Y132247D01*
X21142Y132191D01*
X21094Y132137D01*
X21043Y132086D01*
X20990Y132037D01*
X20933Y131992D01*
X20875Y131949D01*
X20815Y131910D01*
X20752Y131873D01*
X20687Y131841D01*
X20621Y131812D01*
X20554Y131786D01*
X20485Y131764D01*
X20415Y131746D01*
X20344Y131731D01*
X20273Y131720D01*
X20201Y131713D01*
X20129Y131710D01*
X20057Y131711D01*
X19984Y131716D01*
X19913Y131724D01*
X19841Y131736D01*
X19771Y131752D01*
X19702Y131772D01*
X19633Y131796D01*
X19566Y131823D01*
X19501Y131853D01*
X19437Y131887D01*
X19375Y131925D01*
X19315Y131965D01*
X19258Y132009D01*
X19203Y132056D01*
X19150Y132106D01*
X19101Y132158D01*
X19054Y132213D01*
X19010Y132270D01*
X18969Y132330D01*
X18932Y132392D01*
X18897Y132456D01*
X18867Y132521D01*
X18839Y132588D01*
X18816Y132656D01*
X18796Y132726D01*
X18780Y132796D01*
X18767Y132867D01*
X18759Y132939D01*
X18754Y133011D01*
X18753Y133083D01*
X18754Y133083D02*
X18758Y133234D01*
X18766Y133385D01*
X18777Y133536D01*
X18793Y133687D01*
X18813Y133837D01*
X18836Y133987D01*
X18863Y134136D01*
X18894Y134284D01*
X18929Y134432D01*
X18967Y134578D01*
X19010Y134724D01*
X19056Y134868D01*
X19105Y135011D01*
X19158Y135153D01*
X19215Y135293D01*
X19276Y135432D01*
X22408Y135172D02*
X22436Y135238D01*
X22469Y135303D01*
X22504Y135366D01*
X22543Y135427D01*
X22585Y135486D01*
X22630Y135542D01*
X22678Y135596D01*
X22729Y135647D01*
X22782Y135696D01*
X22839Y135742D01*
X22897Y135784D01*
X22957Y135823D01*
X23020Y135860D01*
X23085Y135892D01*
X23151Y135921D01*
X23218Y135947D01*
X23287Y135969D01*
X23357Y135987D01*
X23428Y136002D01*
X23499Y136013D01*
X23571Y136020D01*
X23643Y136023D01*
X23715Y136022D01*
X23788Y136017D01*
X23859Y136009D01*
X23931Y135997D01*
X24001Y135981D01*
X24070Y135961D01*
X24139Y135937D01*
X24206Y135910D01*
X24271Y135880D01*
X24335Y135846D01*
X24397Y135808D01*
X24457Y135768D01*
X24514Y135724D01*
X24569Y135677D01*
X24622Y135627D01*
X24671Y135575D01*
X24718Y135520D01*
X24762Y135463D01*
X24803Y135403D01*
X24840Y135341D01*
X24875Y135277D01*
X24905Y135212D01*
X24933Y135145D01*
X24956Y135077D01*
X24976Y135007D01*
X24992Y134937D01*
X25005Y134866D01*
X25013Y134794D01*
X25018Y134722D01*
X25019Y134650D01*
X25014Y134440D01*
X25003Y134231D01*
X24988Y134022D01*
X24968Y133814D01*
X24942Y133606D01*
X24912Y133399D01*
X24877Y133192D01*
X24837Y132987D01*
X24793Y132782D01*
X24743Y132579D01*
X24689Y132376D01*
X24629Y132175D01*
X24566Y131976D01*
X24497Y131778D01*
X25019Y140182D02*
X18754Y140182D01*
X18754Y144881D01*
X18756Y144958D01*
X18762Y145034D01*
X18771Y145111D01*
X18784Y145187D01*
X18801Y145262D01*
X18821Y145336D01*
X18846Y145409D01*
X18873Y145480D01*
X18904Y145551D01*
X18939Y145619D01*
X18977Y145686D01*
X19018Y145751D01*
X19062Y145814D01*
X19109Y145874D01*
X19160Y145933D01*
X19213Y145988D01*
X19268Y146041D01*
X19327Y146092D01*
X19387Y146139D01*
X19450Y146183D01*
X19515Y146224D01*
X19582Y146262D01*
X19650Y146297D01*
X19721Y146328D01*
X19792Y146355D01*
X19865Y146380D01*
X19939Y146400D01*
X20014Y146417D01*
X20090Y146430D01*
X20167Y146439D01*
X20243Y146445D01*
X20320Y146447D01*
X20320Y146448D02*
X25019Y146448D01*
X25019Y143315D02*
X18754Y143315D01*
X20842Y150675D02*
X22931Y150675D01*
X20842Y150676D02*
X20752Y150678D01*
X20663Y150684D01*
X20573Y150693D01*
X20484Y150707D01*
X20396Y150724D01*
X20309Y150745D01*
X20222Y150770D01*
X20137Y150799D01*
X20053Y150831D01*
X19971Y150866D01*
X19890Y150906D01*
X19811Y150948D01*
X19734Y150994D01*
X19659Y151044D01*
X19586Y151096D01*
X19515Y151152D01*
X19447Y151210D01*
X19382Y151272D01*
X19319Y151336D01*
X19259Y151403D01*
X19202Y151472D01*
X19148Y151544D01*
X19097Y151618D01*
X19049Y151694D01*
X19005Y151772D01*
X18964Y151852D01*
X18926Y151934D01*
X18892Y152017D01*
X18862Y152102D01*
X18835Y152188D01*
X18812Y152274D01*
X18793Y152362D01*
X18778Y152451D01*
X18766Y152540D01*
X18758Y152629D01*
X18754Y152719D01*
X18754Y152809D01*
X18758Y152899D01*
X18766Y152988D01*
X18778Y153077D01*
X18793Y153166D01*
X18812Y153254D01*
X18835Y153340D01*
X18862Y153426D01*
X18892Y153511D01*
X18926Y153594D01*
X18964Y153676D01*
X19005Y153756D01*
X19049Y153834D01*
X19097Y153910D01*
X19148Y153984D01*
X19202Y154056D01*
X19259Y154125D01*
X19319Y154192D01*
X19382Y154256D01*
X19447Y154318D01*
X19515Y154376D01*
X19586Y154432D01*
X19659Y154484D01*
X19734Y154534D01*
X19811Y154580D01*
X19890Y154622D01*
X19971Y154662D01*
X20053Y154697D01*
X20137Y154729D01*
X20222Y154758D01*
X20309Y154783D01*
X20396Y154804D01*
X20484Y154821D01*
X20573Y154835D01*
X20663Y154844D01*
X20752Y154850D01*
X20842Y154852D01*
X22931Y154852D01*
X23021Y154850D01*
X23110Y154844D01*
X23200Y154835D01*
X23289Y154821D01*
X23377Y154804D01*
X23464Y154783D01*
X23551Y154758D01*
X23636Y154729D01*
X23720Y154697D01*
X23802Y154662D01*
X23883Y154622D01*
X23962Y154580D01*
X24039Y154534D01*
X24114Y154484D01*
X24187Y154432D01*
X24258Y154376D01*
X24326Y154318D01*
X24391Y154256D01*
X24454Y154192D01*
X24514Y154125D01*
X24571Y154056D01*
X24625Y153984D01*
X24676Y153910D01*
X24724Y153834D01*
X24768Y153756D01*
X24809Y153676D01*
X24847Y153594D01*
X24881Y153511D01*
X24911Y153426D01*
X24938Y153340D01*
X24961Y153254D01*
X24980Y153166D01*
X24995Y153077D01*
X25007Y152988D01*
X25015Y152899D01*
X25019Y152809D01*
X25019Y152719D01*
X25015Y152629D01*
X25007Y152540D01*
X24995Y152451D01*
X24980Y152362D01*
X24961Y152274D01*
X24938Y152188D01*
X24911Y152102D01*
X24881Y152017D01*
X24847Y151934D01*
X24809Y151852D01*
X24768Y151772D01*
X24724Y151694D01*
X24676Y151618D01*
X24625Y151544D01*
X24571Y151472D01*
X24514Y151403D01*
X24454Y151336D01*
X24391Y151272D01*
X24326Y151210D01*
X24258Y151152D01*
X24187Y151096D01*
X24114Y151044D01*
X24039Y150994D01*
X23962Y150948D01*
X23883Y150906D01*
X23802Y150866D01*
X23720Y150831D01*
X23636Y150799D01*
X23551Y150770D01*
X23464Y150745D01*
X23377Y150724D01*
X23289Y150707D01*
X23200Y150693D01*
X23110Y150684D01*
X23021Y150678D01*
X22931Y150676D01*
X25019Y159010D02*
X15621Y159010D01*
X18754Y163187D02*
X21886Y159010D01*
X20581Y160837D02*
X25019Y163187D01*
X25019Y168091D02*
X25019Y170702D01*
X25019Y168091D02*
X25017Y168014D01*
X25011Y167938D01*
X25002Y167861D01*
X24989Y167785D01*
X24972Y167710D01*
X24952Y167636D01*
X24927Y167563D01*
X24900Y167492D01*
X24869Y167421D01*
X24834Y167353D01*
X24796Y167286D01*
X24755Y167221D01*
X24711Y167158D01*
X24664Y167098D01*
X24613Y167039D01*
X24560Y166984D01*
X24505Y166931D01*
X24446Y166880D01*
X24386Y166833D01*
X24323Y166789D01*
X24258Y166748D01*
X24191Y166710D01*
X24123Y166675D01*
X24052Y166644D01*
X23981Y166617D01*
X23908Y166592D01*
X23834Y166572D01*
X23759Y166555D01*
X23683Y166542D01*
X23606Y166533D01*
X23530Y166527D01*
X23453Y166525D01*
X20842Y166525D01*
X20752Y166527D01*
X20663Y166533D01*
X20573Y166542D01*
X20484Y166556D01*
X20396Y166573D01*
X20309Y166594D01*
X20222Y166619D01*
X20137Y166648D01*
X20053Y166680D01*
X19971Y166715D01*
X19890Y166755D01*
X19811Y166797D01*
X19734Y166843D01*
X19659Y166893D01*
X19586Y166945D01*
X19515Y167001D01*
X19447Y167059D01*
X19382Y167121D01*
X19319Y167185D01*
X19259Y167252D01*
X19202Y167321D01*
X19148Y167393D01*
X19097Y167467D01*
X19049Y167543D01*
X19005Y167621D01*
X18964Y167701D01*
X18926Y167783D01*
X18892Y167866D01*
X18862Y167951D01*
X18835Y168037D01*
X18812Y168123D01*
X18793Y168211D01*
X18778Y168300D01*
X18766Y168389D01*
X18758Y168478D01*
X18754Y168568D01*
X18754Y168658D01*
X18758Y168748D01*
X18766Y168837D01*
X18778Y168926D01*
X18793Y169015D01*
X18812Y169103D01*
X18835Y169189D01*
X18862Y169275D01*
X18892Y169360D01*
X18926Y169443D01*
X18964Y169525D01*
X19005Y169605D01*
X19049Y169683D01*
X19097Y169759D01*
X19148Y169833D01*
X19202Y169905D01*
X19259Y169974D01*
X19319Y170041D01*
X19382Y170105D01*
X19447Y170167D01*
X19515Y170225D01*
X19586Y170281D01*
X19659Y170333D01*
X19734Y170383D01*
X19811Y170429D01*
X19890Y170471D01*
X19971Y170511D01*
X20053Y170546D01*
X20137Y170578D01*
X20222Y170607D01*
X20309Y170632D01*
X20396Y170653D01*
X20484Y170670D01*
X20573Y170684D01*
X20663Y170693D01*
X20752Y170699D01*
X20842Y170701D01*
X20842Y170702D02*
X21886Y170702D01*
X21886Y166525D01*
X25019Y180903D02*
X25019Y182991D01*
X25019Y180903D02*
X25017Y180826D01*
X25011Y180750D01*
X25002Y180673D01*
X24989Y180597D01*
X24972Y180522D01*
X24952Y180448D01*
X24927Y180375D01*
X24900Y180304D01*
X24869Y180233D01*
X24834Y180165D01*
X24796Y180098D01*
X24755Y180033D01*
X24711Y179970D01*
X24664Y179910D01*
X24613Y179851D01*
X24560Y179796D01*
X24505Y179743D01*
X24446Y179692D01*
X24386Y179645D01*
X24323Y179601D01*
X24258Y179560D01*
X24191Y179522D01*
X24123Y179487D01*
X24052Y179456D01*
X23981Y179429D01*
X23908Y179404D01*
X23834Y179384D01*
X23759Y179367D01*
X23683Y179354D01*
X23606Y179345D01*
X23530Y179339D01*
X23453Y179337D01*
X20320Y179337D01*
X20243Y179339D01*
X20167Y179345D01*
X20090Y179354D01*
X20014Y179367D01*
X19939Y179384D01*
X19865Y179404D01*
X19792Y179429D01*
X19721Y179456D01*
X19650Y179487D01*
X19582Y179522D01*
X19515Y179560D01*
X19450Y179601D01*
X19387Y179645D01*
X19327Y179692D01*
X19268Y179743D01*
X19213Y179796D01*
X19160Y179851D01*
X19109Y179910D01*
X19062Y179970D01*
X19018Y180033D01*
X18977Y180098D01*
X18939Y180165D01*
X18904Y180233D01*
X18873Y180304D01*
X18846Y180375D01*
X18821Y180448D01*
X18801Y180522D01*
X18784Y180597D01*
X18771Y180673D01*
X18762Y180750D01*
X18756Y180826D01*
X18754Y180903D01*
X18754Y182991D01*
X20842Y186337D02*
X22931Y186337D01*
X20842Y186337D02*
X20752Y186339D01*
X20663Y186345D01*
X20573Y186354D01*
X20484Y186368D01*
X20396Y186385D01*
X20309Y186406D01*
X20222Y186431D01*
X20137Y186460D01*
X20053Y186492D01*
X19971Y186527D01*
X19890Y186567D01*
X19811Y186609D01*
X19734Y186655D01*
X19659Y186705D01*
X19586Y186757D01*
X19515Y186813D01*
X19447Y186871D01*
X19382Y186933D01*
X19319Y186997D01*
X19259Y187064D01*
X19202Y187133D01*
X19148Y187205D01*
X19097Y187279D01*
X19049Y187355D01*
X19005Y187433D01*
X18964Y187513D01*
X18926Y187595D01*
X18892Y187678D01*
X18862Y187763D01*
X18835Y187849D01*
X18812Y187935D01*
X18793Y188023D01*
X18778Y188112D01*
X18766Y188201D01*
X18758Y188290D01*
X18754Y188380D01*
X18754Y188470D01*
X18758Y188560D01*
X18766Y188649D01*
X18778Y188738D01*
X18793Y188827D01*
X18812Y188915D01*
X18835Y189001D01*
X18862Y189087D01*
X18892Y189172D01*
X18926Y189255D01*
X18964Y189337D01*
X19005Y189417D01*
X19049Y189495D01*
X19097Y189571D01*
X19148Y189645D01*
X19202Y189717D01*
X19259Y189786D01*
X19319Y189853D01*
X19382Y189917D01*
X19447Y189979D01*
X19515Y190037D01*
X19586Y190093D01*
X19659Y190145D01*
X19734Y190195D01*
X19811Y190241D01*
X19890Y190283D01*
X19971Y190323D01*
X20053Y190358D01*
X20137Y190390D01*
X20222Y190419D01*
X20309Y190444D01*
X20396Y190465D01*
X20484Y190482D01*
X20573Y190496D01*
X20663Y190505D01*
X20752Y190511D01*
X20842Y190513D01*
X20842Y190514D02*
X22931Y190514D01*
X22931Y190513D02*
X23021Y190511D01*
X23110Y190505D01*
X23200Y190496D01*
X23289Y190482D01*
X23377Y190465D01*
X23464Y190444D01*
X23551Y190419D01*
X23636Y190390D01*
X23720Y190358D01*
X23802Y190323D01*
X23883Y190283D01*
X23962Y190241D01*
X24039Y190195D01*
X24114Y190145D01*
X24187Y190093D01*
X24258Y190037D01*
X24326Y189979D01*
X24391Y189917D01*
X24454Y189853D01*
X24514Y189786D01*
X24571Y189717D01*
X24625Y189645D01*
X24676Y189571D01*
X24724Y189495D01*
X24768Y189417D01*
X24809Y189337D01*
X24847Y189255D01*
X24881Y189172D01*
X24911Y189087D01*
X24938Y189001D01*
X24961Y188915D01*
X24980Y188827D01*
X24995Y188738D01*
X25007Y188649D01*
X25015Y188560D01*
X25019Y188470D01*
X25019Y188380D01*
X25015Y188290D01*
X25007Y188201D01*
X24995Y188112D01*
X24980Y188023D01*
X24961Y187935D01*
X24938Y187849D01*
X24911Y187763D01*
X24881Y187678D01*
X24847Y187595D01*
X24809Y187513D01*
X24768Y187433D01*
X24724Y187355D01*
X24676Y187279D01*
X24625Y187205D01*
X24571Y187133D01*
X24514Y187064D01*
X24454Y186997D01*
X24391Y186933D01*
X24326Y186871D01*
X24258Y186813D01*
X24187Y186757D01*
X24114Y186705D01*
X24039Y186655D01*
X23962Y186609D01*
X23883Y186567D01*
X23802Y186527D01*
X23720Y186492D01*
X23636Y186460D01*
X23551Y186431D01*
X23464Y186406D01*
X23377Y186385D01*
X23289Y186368D01*
X23200Y186354D01*
X23110Y186345D01*
X23021Y186339D01*
X22931Y186337D01*
X25019Y194566D02*
X18754Y194566D01*
X18754Y197177D01*
X18756Y197254D01*
X18762Y197330D01*
X18771Y197407D01*
X18784Y197483D01*
X18801Y197558D01*
X18821Y197632D01*
X18846Y197705D01*
X18873Y197776D01*
X18904Y197847D01*
X18939Y197915D01*
X18977Y197982D01*
X19018Y198047D01*
X19062Y198110D01*
X19109Y198170D01*
X19160Y198229D01*
X19213Y198284D01*
X19268Y198337D01*
X19327Y198388D01*
X19387Y198435D01*
X19450Y198479D01*
X19515Y198520D01*
X19582Y198558D01*
X19650Y198593D01*
X19721Y198624D01*
X19792Y198651D01*
X19865Y198676D01*
X19939Y198696D01*
X20014Y198713D01*
X20090Y198726D01*
X20166Y198735D01*
X20243Y198741D01*
X20320Y198743D01*
X25019Y198743D01*
X18754Y202027D02*
X18754Y205160D01*
X15621Y203071D02*
X23453Y203071D01*
X23453Y203072D02*
X23530Y203074D01*
X23606Y203080D01*
X23683Y203089D01*
X23759Y203102D01*
X23834Y203119D01*
X23908Y203139D01*
X23981Y203164D01*
X24052Y203191D01*
X24123Y203222D01*
X24191Y203257D01*
X24258Y203295D01*
X24323Y203336D01*
X24386Y203380D01*
X24446Y203427D01*
X24505Y203478D01*
X24560Y203531D01*
X24613Y203586D01*
X24664Y203645D01*
X24711Y203705D01*
X24755Y203768D01*
X24796Y203833D01*
X24834Y203900D01*
X24869Y203968D01*
X24900Y204039D01*
X24927Y204110D01*
X24952Y204183D01*
X24972Y204257D01*
X24989Y204332D01*
X25002Y204408D01*
X25011Y204485D01*
X25017Y204561D01*
X25019Y204638D01*
X25019Y205160D01*
X21364Y210369D02*
X21364Y212718D01*
X21365Y210369D02*
X21367Y210285D01*
X21373Y210200D01*
X21383Y210117D01*
X21396Y210033D01*
X21414Y209951D01*
X21435Y209869D01*
X21460Y209788D01*
X21488Y209709D01*
X21521Y209631D01*
X21557Y209555D01*
X21596Y209480D01*
X21639Y209407D01*
X21685Y209336D01*
X21734Y209268D01*
X21786Y209202D01*
X21842Y209138D01*
X21900Y209077D01*
X21961Y209019D01*
X22025Y208963D01*
X22091Y208911D01*
X22159Y208862D01*
X22230Y208816D01*
X22303Y208773D01*
X22378Y208734D01*
X22454Y208698D01*
X22532Y208665D01*
X22611Y208637D01*
X22692Y208612D01*
X22774Y208591D01*
X22856Y208573D01*
X22940Y208560D01*
X23023Y208550D01*
X23108Y208544D01*
X23192Y208542D01*
X23276Y208544D01*
X23361Y208550D01*
X23444Y208560D01*
X23528Y208573D01*
X23610Y208591D01*
X23692Y208612D01*
X23773Y208637D01*
X23852Y208665D01*
X23930Y208698D01*
X24006Y208734D01*
X24081Y208773D01*
X24154Y208816D01*
X24225Y208862D01*
X24293Y208911D01*
X24359Y208963D01*
X24423Y209019D01*
X24484Y209077D01*
X24542Y209138D01*
X24598Y209202D01*
X24650Y209268D01*
X24699Y209336D01*
X24745Y209407D01*
X24788Y209480D01*
X24827Y209555D01*
X24863Y209631D01*
X24896Y209709D01*
X24924Y209788D01*
X24949Y209869D01*
X24970Y209951D01*
X24988Y210033D01*
X25001Y210117D01*
X25011Y210200D01*
X25017Y210285D01*
X25019Y210369D01*
X25019Y212718D01*
X20320Y212718D01*
X20243Y212716D01*
X20167Y212710D01*
X20090Y212701D01*
X20014Y212688D01*
X19939Y212671D01*
X19865Y212651D01*
X19792Y212626D01*
X19721Y212599D01*
X19650Y212568D01*
X19582Y212533D01*
X19515Y212495D01*
X19450Y212454D01*
X19387Y212410D01*
X19327Y212363D01*
X19268Y212312D01*
X19213Y212259D01*
X19160Y212204D01*
X19109Y212145D01*
X19062Y212085D01*
X19018Y212022D01*
X18977Y211957D01*
X18939Y211890D01*
X18904Y211822D01*
X18873Y211751D01*
X18846Y211680D01*
X18821Y211607D01*
X18801Y211533D01*
X18784Y211458D01*
X18771Y211382D01*
X18762Y211305D01*
X18756Y211229D01*
X18754Y211152D01*
X18754Y209063D01*
X18754Y216771D02*
X25019Y216771D01*
X16143Y216510D02*
X15621Y216510D01*
X15621Y217032D01*
X16143Y217032D01*
X16143Y216510D01*
X18754Y220779D02*
X25019Y220779D01*
X18754Y220779D02*
X18754Y223389D01*
X18756Y223466D01*
X18762Y223542D01*
X18771Y223619D01*
X18784Y223695D01*
X18801Y223770D01*
X18821Y223844D01*
X18846Y223917D01*
X18873Y223988D01*
X18904Y224059D01*
X18939Y224127D01*
X18977Y224194D01*
X19018Y224259D01*
X19062Y224322D01*
X19109Y224382D01*
X19160Y224441D01*
X19213Y224496D01*
X19268Y224549D01*
X19327Y224600D01*
X19387Y224647D01*
X19450Y224691D01*
X19515Y224732D01*
X19582Y224770D01*
X19650Y224805D01*
X19721Y224836D01*
X19792Y224863D01*
X19865Y224888D01*
X19939Y224908D01*
X20014Y224925D01*
X20090Y224938D01*
X20166Y224947D01*
X20243Y224953D01*
X20320Y224955D01*
X20320Y224956D02*
X25019Y224956D01*
X25019Y229488D02*
X18754Y229488D01*
X18754Y234187D01*
X18756Y234264D01*
X18762Y234340D01*
X18771Y234417D01*
X18784Y234493D01*
X18801Y234568D01*
X18821Y234642D01*
X18846Y234715D01*
X18873Y234786D01*
X18904Y234857D01*
X18939Y234925D01*
X18977Y234992D01*
X19018Y235057D01*
X19062Y235120D01*
X19109Y235180D01*
X19160Y235239D01*
X19213Y235294D01*
X19268Y235347D01*
X19327Y235398D01*
X19387Y235445D01*
X19450Y235489D01*
X19515Y235530D01*
X19582Y235568D01*
X19650Y235603D01*
X19721Y235634D01*
X19792Y235661D01*
X19865Y235686D01*
X19939Y235706D01*
X20014Y235723D01*
X20090Y235736D01*
X20167Y235745D01*
X20243Y235751D01*
X20320Y235753D01*
X20320Y235754D02*
X25019Y235754D01*
X25019Y232621D02*
X18754Y232621D01*
X25019Y241547D02*
X25019Y244158D01*
X25019Y241547D02*
X25017Y241470D01*
X25011Y241394D01*
X25002Y241317D01*
X24989Y241241D01*
X24972Y241166D01*
X24952Y241092D01*
X24927Y241019D01*
X24900Y240948D01*
X24869Y240877D01*
X24834Y240809D01*
X24796Y240742D01*
X24755Y240677D01*
X24711Y240614D01*
X24664Y240554D01*
X24613Y240495D01*
X24560Y240440D01*
X24505Y240387D01*
X24446Y240336D01*
X24386Y240289D01*
X24323Y240245D01*
X24258Y240204D01*
X24191Y240166D01*
X24123Y240131D01*
X24052Y240100D01*
X23981Y240073D01*
X23908Y240048D01*
X23834Y240028D01*
X23759Y240011D01*
X23683Y239998D01*
X23606Y239989D01*
X23530Y239983D01*
X23453Y239981D01*
X20842Y239981D01*
X20842Y239982D02*
X20752Y239984D01*
X20663Y239990D01*
X20573Y239999D01*
X20484Y240013D01*
X20396Y240030D01*
X20309Y240051D01*
X20222Y240076D01*
X20137Y240105D01*
X20053Y240137D01*
X19971Y240172D01*
X19890Y240212D01*
X19811Y240254D01*
X19734Y240300D01*
X19659Y240350D01*
X19586Y240402D01*
X19515Y240458D01*
X19447Y240516D01*
X19382Y240578D01*
X19319Y240642D01*
X19259Y240709D01*
X19202Y240778D01*
X19148Y240850D01*
X19097Y240924D01*
X19049Y241000D01*
X19005Y241078D01*
X18964Y241158D01*
X18926Y241240D01*
X18892Y241323D01*
X18862Y241408D01*
X18835Y241494D01*
X18812Y241580D01*
X18793Y241668D01*
X18778Y241757D01*
X18766Y241846D01*
X18758Y241935D01*
X18754Y242025D01*
X18754Y242115D01*
X18758Y242205D01*
X18766Y242294D01*
X18778Y242383D01*
X18793Y242472D01*
X18812Y242560D01*
X18835Y242646D01*
X18862Y242732D01*
X18892Y242817D01*
X18926Y242900D01*
X18964Y242982D01*
X19005Y243062D01*
X19049Y243140D01*
X19097Y243216D01*
X19148Y243290D01*
X19202Y243362D01*
X19259Y243431D01*
X19319Y243498D01*
X19382Y243562D01*
X19447Y243624D01*
X19515Y243682D01*
X19586Y243738D01*
X19659Y243790D01*
X19734Y243840D01*
X19811Y243886D01*
X19890Y243928D01*
X19971Y243968D01*
X20053Y244003D01*
X20137Y244035D01*
X20222Y244064D01*
X20309Y244089D01*
X20396Y244110D01*
X20484Y244127D01*
X20573Y244141D01*
X20663Y244150D01*
X20752Y244156D01*
X20842Y244158D01*
X21886Y244158D01*
X21886Y239981D01*
X18754Y248211D02*
X25019Y248211D01*
X18754Y248211D02*
X18754Y250821D01*
X18756Y250898D01*
X18762Y250974D01*
X18771Y251051D01*
X18784Y251127D01*
X18801Y251202D01*
X18821Y251276D01*
X18846Y251349D01*
X18873Y251420D01*
X18904Y251491D01*
X18939Y251559D01*
X18977Y251626D01*
X19018Y251691D01*
X19062Y251754D01*
X19109Y251814D01*
X19160Y251873D01*
X19213Y251928D01*
X19268Y251981D01*
X19327Y252032D01*
X19387Y252079D01*
X19450Y252123D01*
X19515Y252164D01*
X19582Y252202D01*
X19650Y252237D01*
X19721Y252268D01*
X19792Y252295D01*
X19865Y252320D01*
X19939Y252340D01*
X20014Y252357D01*
X20090Y252370D01*
X20166Y252379D01*
X20243Y252385D01*
X20320Y252387D01*
X20320Y252388D02*
X25019Y252388D01*
X18754Y255672D02*
X18754Y258804D01*
X15621Y256716D02*
X23453Y256716D01*
X23530Y256718D01*
X23606Y256724D01*
X23683Y256733D01*
X23759Y256746D01*
X23834Y256763D01*
X23908Y256783D01*
X23981Y256808D01*
X24052Y256835D01*
X24123Y256866D01*
X24191Y256901D01*
X24258Y256939D01*
X24323Y256980D01*
X24386Y257024D01*
X24446Y257071D01*
X24505Y257122D01*
X24560Y257175D01*
X24613Y257230D01*
X24664Y257289D01*
X24711Y257349D01*
X24755Y257412D01*
X24796Y257477D01*
X24834Y257544D01*
X24869Y257612D01*
X24900Y257683D01*
X24927Y257754D01*
X24952Y257827D01*
X24972Y257901D01*
X24989Y257976D01*
X25002Y258052D01*
X25011Y258129D01*
X25017Y258205D01*
X25019Y258282D01*
X25019Y258804D01*
X25019Y271239D02*
X15621Y271239D01*
X25019Y271239D02*
X25019Y268629D01*
X25017Y268552D01*
X25011Y268476D01*
X25002Y268399D01*
X24989Y268323D01*
X24972Y268248D01*
X24952Y268174D01*
X24927Y268101D01*
X24900Y268030D01*
X24869Y267959D01*
X24834Y267891D01*
X24796Y267824D01*
X24755Y267759D01*
X24711Y267696D01*
X24664Y267636D01*
X24613Y267577D01*
X24560Y267522D01*
X24505Y267469D01*
X24446Y267418D01*
X24386Y267371D01*
X24323Y267327D01*
X24258Y267286D01*
X24191Y267248D01*
X24123Y267213D01*
X24052Y267182D01*
X23981Y267155D01*
X23908Y267130D01*
X23834Y267110D01*
X23759Y267093D01*
X23683Y267080D01*
X23606Y267071D01*
X23530Y267065D01*
X23453Y267063D01*
X20320Y267063D01*
X20243Y267065D01*
X20167Y267071D01*
X20090Y267080D01*
X20014Y267093D01*
X19939Y267110D01*
X19865Y267130D01*
X19792Y267155D01*
X19721Y267182D01*
X19650Y267213D01*
X19582Y267248D01*
X19515Y267286D01*
X19450Y267327D01*
X19387Y267371D01*
X19327Y267418D01*
X19268Y267469D01*
X19213Y267522D01*
X19160Y267577D01*
X19109Y267636D01*
X19062Y267696D01*
X19018Y267759D01*
X18977Y267824D01*
X18939Y267891D01*
X18904Y267959D01*
X18873Y268030D01*
X18846Y268101D01*
X18821Y268174D01*
X18801Y268248D01*
X18784Y268323D01*
X18771Y268399D01*
X18762Y268476D01*
X18756Y268552D01*
X18754Y268629D01*
X18754Y271239D01*
X25019Y276904D02*
X25019Y279515D01*
X25019Y276904D02*
X25017Y276827D01*
X25011Y276751D01*
X25002Y276674D01*
X24989Y276598D01*
X24972Y276523D01*
X24952Y276449D01*
X24927Y276376D01*
X24900Y276305D01*
X24869Y276234D01*
X24834Y276166D01*
X24796Y276099D01*
X24755Y276034D01*
X24711Y275971D01*
X24664Y275911D01*
X24613Y275852D01*
X24560Y275797D01*
X24505Y275744D01*
X24446Y275693D01*
X24386Y275646D01*
X24323Y275602D01*
X24258Y275561D01*
X24191Y275523D01*
X24123Y275488D01*
X24052Y275457D01*
X23981Y275430D01*
X23908Y275405D01*
X23834Y275385D01*
X23759Y275368D01*
X23683Y275355D01*
X23606Y275346D01*
X23530Y275340D01*
X23453Y275338D01*
X20842Y275338D01*
X20752Y275340D01*
X20663Y275346D01*
X20573Y275355D01*
X20484Y275369D01*
X20396Y275386D01*
X20309Y275407D01*
X20222Y275432D01*
X20137Y275461D01*
X20053Y275493D01*
X19971Y275528D01*
X19890Y275568D01*
X19811Y275610D01*
X19734Y275656D01*
X19659Y275706D01*
X19586Y275758D01*
X19515Y275814D01*
X19447Y275872D01*
X19382Y275934D01*
X19319Y275998D01*
X19259Y276065D01*
X19202Y276134D01*
X19148Y276206D01*
X19097Y276280D01*
X19049Y276356D01*
X19005Y276434D01*
X18964Y276514D01*
X18926Y276596D01*
X18892Y276679D01*
X18862Y276764D01*
X18835Y276850D01*
X18812Y276936D01*
X18793Y277024D01*
X18778Y277113D01*
X18766Y277202D01*
X18758Y277291D01*
X18754Y277381D01*
X18754Y277471D01*
X18758Y277561D01*
X18766Y277650D01*
X18778Y277739D01*
X18793Y277828D01*
X18812Y277916D01*
X18835Y278002D01*
X18862Y278088D01*
X18892Y278173D01*
X18926Y278256D01*
X18964Y278338D01*
X19005Y278418D01*
X19049Y278496D01*
X19097Y278572D01*
X19148Y278646D01*
X19202Y278718D01*
X19259Y278787D01*
X19319Y278854D01*
X19382Y278918D01*
X19447Y278980D01*
X19515Y279038D01*
X19586Y279094D01*
X19659Y279146D01*
X19734Y279196D01*
X19811Y279242D01*
X19890Y279284D01*
X19971Y279324D01*
X20053Y279359D01*
X20137Y279391D01*
X20222Y279420D01*
X20309Y279445D01*
X20396Y279466D01*
X20484Y279483D01*
X20573Y279497D01*
X20663Y279506D01*
X20752Y279512D01*
X20842Y279514D01*
X20842Y279515D02*
X21886Y279515D01*
X21886Y275338D01*
X18754Y282958D02*
X25019Y285046D01*
X18754Y287135D01*
X18754Y290532D02*
X25019Y290532D01*
X16143Y290271D02*
X15621Y290271D01*
X15621Y290794D01*
X16143Y290794D01*
X16143Y290271D01*
X25019Y295812D02*
X25019Y297900D01*
X25019Y295812D02*
X25017Y295735D01*
X25011Y295659D01*
X25002Y295582D01*
X24989Y295506D01*
X24972Y295431D01*
X24952Y295357D01*
X24927Y295284D01*
X24900Y295213D01*
X24869Y295142D01*
X24834Y295074D01*
X24796Y295007D01*
X24755Y294942D01*
X24711Y294879D01*
X24664Y294819D01*
X24613Y294760D01*
X24560Y294705D01*
X24505Y294652D01*
X24446Y294601D01*
X24386Y294554D01*
X24323Y294510D01*
X24258Y294469D01*
X24191Y294431D01*
X24123Y294396D01*
X24052Y294365D01*
X23981Y294338D01*
X23908Y294313D01*
X23834Y294293D01*
X23759Y294276D01*
X23683Y294263D01*
X23606Y294254D01*
X23530Y294248D01*
X23453Y294246D01*
X20320Y294246D01*
X20243Y294248D01*
X20167Y294254D01*
X20090Y294263D01*
X20014Y294276D01*
X19939Y294293D01*
X19865Y294313D01*
X19792Y294338D01*
X19721Y294365D01*
X19650Y294396D01*
X19582Y294431D01*
X19515Y294469D01*
X19450Y294510D01*
X19387Y294554D01*
X19327Y294601D01*
X19268Y294652D01*
X19213Y294705D01*
X19160Y294760D01*
X19109Y294819D01*
X19062Y294879D01*
X19018Y294942D01*
X18977Y295007D01*
X18939Y295074D01*
X18904Y295142D01*
X18873Y295213D01*
X18846Y295284D01*
X18821Y295357D01*
X18801Y295431D01*
X18784Y295506D01*
X18771Y295582D01*
X18762Y295659D01*
X18756Y295735D01*
X18754Y295812D01*
X18754Y297900D01*
X25019Y302812D02*
X25019Y305422D01*
X25019Y302812D02*
X25017Y302735D01*
X25011Y302659D01*
X25002Y302582D01*
X24989Y302506D01*
X24972Y302431D01*
X24952Y302357D01*
X24927Y302284D01*
X24900Y302213D01*
X24869Y302142D01*
X24834Y302074D01*
X24796Y302007D01*
X24755Y301942D01*
X24711Y301879D01*
X24664Y301819D01*
X24613Y301760D01*
X24560Y301705D01*
X24505Y301652D01*
X24446Y301601D01*
X24386Y301554D01*
X24323Y301510D01*
X24258Y301469D01*
X24191Y301431D01*
X24123Y301396D01*
X24052Y301365D01*
X23981Y301338D01*
X23908Y301313D01*
X23834Y301293D01*
X23759Y301276D01*
X23683Y301263D01*
X23606Y301254D01*
X23530Y301248D01*
X23453Y301246D01*
X20842Y301246D01*
X20752Y301248D01*
X20663Y301254D01*
X20573Y301263D01*
X20484Y301277D01*
X20396Y301294D01*
X20309Y301315D01*
X20222Y301340D01*
X20137Y301369D01*
X20053Y301401D01*
X19971Y301436D01*
X19890Y301476D01*
X19811Y301518D01*
X19734Y301564D01*
X19659Y301614D01*
X19586Y301666D01*
X19515Y301722D01*
X19447Y301780D01*
X19382Y301842D01*
X19319Y301906D01*
X19259Y301973D01*
X19202Y302042D01*
X19148Y302114D01*
X19097Y302188D01*
X19049Y302264D01*
X19005Y302342D01*
X18964Y302422D01*
X18926Y302504D01*
X18892Y302587D01*
X18862Y302672D01*
X18835Y302758D01*
X18812Y302844D01*
X18793Y302932D01*
X18778Y303021D01*
X18766Y303110D01*
X18758Y303199D01*
X18754Y303289D01*
X18754Y303379D01*
X18758Y303469D01*
X18766Y303558D01*
X18778Y303647D01*
X18793Y303736D01*
X18812Y303824D01*
X18835Y303910D01*
X18862Y303996D01*
X18892Y304081D01*
X18926Y304164D01*
X18964Y304246D01*
X19005Y304326D01*
X19049Y304404D01*
X19097Y304480D01*
X19148Y304554D01*
X19202Y304626D01*
X19259Y304695D01*
X19319Y304762D01*
X19382Y304826D01*
X19447Y304888D01*
X19515Y304946D01*
X19586Y305002D01*
X19659Y305054D01*
X19734Y305104D01*
X19811Y305150D01*
X19890Y305192D01*
X19971Y305232D01*
X20053Y305267D01*
X20137Y305299D01*
X20222Y305328D01*
X20309Y305353D01*
X20396Y305374D01*
X20484Y305391D01*
X20573Y305405D01*
X20663Y305414D01*
X20752Y305420D01*
X20842Y305422D01*
X21886Y305422D01*
X21886Y301246D01*
X19798Y368681D02*
X19798Y371292D01*
X19797Y371292D02*
X19799Y371393D01*
X19805Y371494D01*
X19815Y371595D01*
X19828Y371695D01*
X19846Y371795D01*
X19867Y371894D01*
X19893Y371992D01*
X19922Y372089D01*
X19954Y372185D01*
X19991Y372279D01*
X20031Y372372D01*
X20075Y372464D01*
X20122Y372553D01*
X20173Y372641D01*
X20227Y372727D01*
X20284Y372810D01*
X20344Y372892D01*
X20408Y372970D01*
X20474Y373047D01*
X20544Y373120D01*
X20616Y373191D01*
X20691Y373259D01*
X20769Y373324D01*
X20849Y373386D01*
X20931Y373445D01*
X21016Y373501D01*
X21103Y373553D01*
X21191Y373602D01*
X21282Y373648D01*
X21374Y373689D01*
X21468Y373728D01*
X21563Y373762D01*
X21659Y373793D01*
X21757Y373820D01*
X21855Y373844D01*
X21955Y373863D01*
X22055Y373879D01*
X22155Y373891D01*
X22256Y373899D01*
X22357Y373903D01*
X22459Y373903D01*
X22560Y373899D01*
X22661Y373891D01*
X22761Y373879D01*
X22861Y373863D01*
X22961Y373844D01*
X23059Y373820D01*
X23157Y373793D01*
X23253Y373762D01*
X23348Y373728D01*
X23442Y373689D01*
X23534Y373648D01*
X23625Y373602D01*
X23714Y373553D01*
X23800Y373501D01*
X23885Y373445D01*
X23967Y373386D01*
X24047Y373324D01*
X24125Y373259D01*
X24200Y373191D01*
X24272Y373120D01*
X24342Y373047D01*
X24408Y372970D01*
X24472Y372892D01*
X24532Y372810D01*
X24589Y372727D01*
X24643Y372641D01*
X24694Y372553D01*
X24741Y372464D01*
X24785Y372372D01*
X24825Y372279D01*
X24862Y372185D01*
X24894Y372089D01*
X24923Y371992D01*
X24949Y371894D01*
X24970Y371795D01*
X24988Y371695D01*
X25001Y371595D01*
X25011Y371494D01*
X25017Y371393D01*
X25019Y371292D01*
X25019Y368681D01*
X15621Y368681D01*
X15621Y371292D01*
X15623Y371382D01*
X15629Y371471D01*
X15638Y371561D01*
X15652Y371650D01*
X15669Y371738D01*
X15690Y371825D01*
X15715Y371912D01*
X15744Y371997D01*
X15776Y372081D01*
X15811Y372163D01*
X15851Y372244D01*
X15893Y372323D01*
X15939Y372400D01*
X15989Y372475D01*
X16041Y372548D01*
X16097Y372619D01*
X16155Y372687D01*
X16217Y372752D01*
X16281Y372815D01*
X16348Y372875D01*
X16417Y372932D01*
X16489Y372986D01*
X16563Y373037D01*
X16639Y373085D01*
X16717Y373129D01*
X16797Y373170D01*
X16879Y373208D01*
X16962Y373242D01*
X17047Y373272D01*
X17133Y373299D01*
X17219Y373322D01*
X17307Y373341D01*
X17396Y373356D01*
X17485Y373368D01*
X17574Y373376D01*
X17664Y373380D01*
X17754Y373380D01*
X17844Y373376D01*
X17933Y373368D01*
X18022Y373356D01*
X18111Y373341D01*
X18199Y373322D01*
X18285Y373299D01*
X18371Y373272D01*
X18456Y373242D01*
X18539Y373208D01*
X18621Y373170D01*
X18701Y373129D01*
X18779Y373085D01*
X18855Y373037D01*
X18929Y372986D01*
X19001Y372932D01*
X19070Y372875D01*
X19137Y372815D01*
X19201Y372752D01*
X19263Y372687D01*
X19321Y372619D01*
X19377Y372548D01*
X19429Y372475D01*
X19479Y372400D01*
X19525Y372323D01*
X19567Y372244D01*
X19607Y372163D01*
X19642Y372081D01*
X19674Y371997D01*
X19703Y371912D01*
X19728Y371825D01*
X19749Y371738D01*
X19766Y371650D01*
X19780Y371561D01*
X19789Y371471D01*
X19795Y371382D01*
X19797Y371292D01*
X28152Y376997D02*
X28152Y378041D01*
X18754Y381174D01*
X18754Y376997D02*
X25019Y379085D01*
X25019Y391644D02*
X25019Y393732D01*
X25019Y391644D02*
X25017Y391555D01*
X25011Y391467D01*
X25002Y391379D01*
X24989Y391291D01*
X24972Y391204D01*
X24952Y391118D01*
X24927Y391033D01*
X24900Y390948D01*
X24868Y390865D01*
X24834Y390784D01*
X24795Y390704D01*
X24754Y390626D01*
X24709Y390549D01*
X24661Y390475D01*
X24610Y390402D01*
X24556Y390332D01*
X24498Y390265D01*
X24438Y390199D01*
X24376Y390137D01*
X24310Y390077D01*
X24243Y390019D01*
X24173Y389965D01*
X24100Y389914D01*
X24026Y389866D01*
X23949Y389821D01*
X23871Y389780D01*
X23791Y389741D01*
X23710Y389707D01*
X23627Y389675D01*
X23542Y389648D01*
X23457Y389623D01*
X23371Y389603D01*
X23284Y389586D01*
X23196Y389573D01*
X23108Y389564D01*
X23020Y389558D01*
X22931Y389556D01*
X22931Y389555D02*
X17709Y389555D01*
X17618Y389557D01*
X17527Y389563D01*
X17436Y389573D01*
X17346Y389587D01*
X17257Y389605D01*
X17168Y389626D01*
X17081Y389652D01*
X16995Y389681D01*
X16910Y389714D01*
X16826Y389751D01*
X16744Y389791D01*
X16665Y389835D01*
X16587Y389882D01*
X16511Y389933D01*
X16437Y389987D01*
X16366Y390044D01*
X16298Y390104D01*
X16232Y390167D01*
X16169Y390233D01*
X16109Y390301D01*
X16052Y390372D01*
X15998Y390446D01*
X15947Y390522D01*
X15900Y390599D01*
X15856Y390679D01*
X15816Y390761D01*
X15779Y390845D01*
X15746Y390929D01*
X15717Y391016D01*
X15691Y391103D01*
X15670Y391192D01*
X15652Y391281D01*
X15638Y391371D01*
X15628Y391462D01*
X15622Y391553D01*
X15620Y391644D01*
X15621Y391644D02*
X15621Y393732D01*
X20842Y397113D02*
X22931Y397113D01*
X20842Y397114D02*
X20752Y397116D01*
X20663Y397122D01*
X20573Y397131D01*
X20484Y397145D01*
X20396Y397162D01*
X20309Y397183D01*
X20222Y397208D01*
X20137Y397237D01*
X20053Y397269D01*
X19971Y397304D01*
X19890Y397344D01*
X19811Y397386D01*
X19734Y397432D01*
X19659Y397482D01*
X19586Y397534D01*
X19515Y397590D01*
X19447Y397648D01*
X19382Y397710D01*
X19319Y397774D01*
X19259Y397841D01*
X19202Y397910D01*
X19148Y397982D01*
X19097Y398056D01*
X19049Y398132D01*
X19005Y398210D01*
X18964Y398290D01*
X18926Y398372D01*
X18892Y398455D01*
X18862Y398540D01*
X18835Y398626D01*
X18812Y398712D01*
X18793Y398800D01*
X18778Y398889D01*
X18766Y398978D01*
X18758Y399067D01*
X18754Y399157D01*
X18754Y399247D01*
X18758Y399337D01*
X18766Y399426D01*
X18778Y399515D01*
X18793Y399604D01*
X18812Y399692D01*
X18835Y399778D01*
X18862Y399864D01*
X18892Y399949D01*
X18926Y400032D01*
X18964Y400114D01*
X19005Y400194D01*
X19049Y400272D01*
X19097Y400348D01*
X19148Y400422D01*
X19202Y400494D01*
X19259Y400563D01*
X19319Y400630D01*
X19382Y400694D01*
X19447Y400756D01*
X19515Y400814D01*
X19586Y400870D01*
X19659Y400922D01*
X19734Y400972D01*
X19811Y401018D01*
X19890Y401060D01*
X19971Y401100D01*
X20053Y401135D01*
X20137Y401167D01*
X20222Y401196D01*
X20309Y401221D01*
X20396Y401242D01*
X20484Y401259D01*
X20573Y401273D01*
X20663Y401282D01*
X20752Y401288D01*
X20842Y401290D01*
X22931Y401290D01*
X23021Y401288D01*
X23110Y401282D01*
X23200Y401273D01*
X23289Y401259D01*
X23377Y401242D01*
X23464Y401221D01*
X23551Y401196D01*
X23636Y401167D01*
X23720Y401135D01*
X23802Y401100D01*
X23883Y401060D01*
X23962Y401018D01*
X24039Y400972D01*
X24114Y400922D01*
X24187Y400870D01*
X24258Y400814D01*
X24326Y400756D01*
X24391Y400694D01*
X24454Y400630D01*
X24514Y400563D01*
X24571Y400494D01*
X24625Y400422D01*
X24676Y400348D01*
X24724Y400272D01*
X24768Y400194D01*
X24809Y400114D01*
X24847Y400032D01*
X24881Y399949D01*
X24911Y399864D01*
X24938Y399778D01*
X24961Y399692D01*
X24980Y399604D01*
X24995Y399515D01*
X25007Y399426D01*
X25015Y399337D01*
X25019Y399247D01*
X25019Y399157D01*
X25015Y399067D01*
X25007Y398978D01*
X24995Y398889D01*
X24980Y398800D01*
X24961Y398712D01*
X24938Y398626D01*
X24911Y398540D01*
X24881Y398455D01*
X24847Y398372D01*
X24809Y398290D01*
X24768Y398210D01*
X24724Y398132D01*
X24676Y398056D01*
X24625Y397982D01*
X24571Y397910D01*
X24514Y397841D01*
X24454Y397774D01*
X24391Y397710D01*
X24326Y397648D01*
X24258Y397590D01*
X24187Y397534D01*
X24114Y397482D01*
X24039Y397432D01*
X23962Y397386D01*
X23883Y397344D01*
X23802Y397304D01*
X23720Y397269D01*
X23636Y397237D01*
X23551Y397208D01*
X23464Y397183D01*
X23377Y397162D01*
X23289Y397145D01*
X23200Y397131D01*
X23110Y397122D01*
X23021Y397116D01*
X22931Y397114D01*
X23453Y405163D02*
X15621Y405163D01*
X23453Y405164D02*
X23530Y405166D01*
X23606Y405172D01*
X23683Y405181D01*
X23759Y405194D01*
X23834Y405211D01*
X23908Y405231D01*
X23981Y405256D01*
X24052Y405283D01*
X24123Y405314D01*
X24191Y405349D01*
X24258Y405387D01*
X24323Y405428D01*
X24386Y405472D01*
X24446Y405519D01*
X24505Y405570D01*
X24560Y405623D01*
X24613Y405678D01*
X24664Y405737D01*
X24711Y405797D01*
X24755Y405860D01*
X24796Y405925D01*
X24834Y405992D01*
X24869Y406060D01*
X24900Y406131D01*
X24927Y406202D01*
X24952Y406275D01*
X24972Y406349D01*
X24989Y406424D01*
X25002Y406500D01*
X25011Y406577D01*
X25017Y406653D01*
X25019Y406730D01*
X18754Y409146D02*
X18754Y412279D01*
X15621Y410190D02*
X23453Y410190D01*
X23453Y410191D02*
X23530Y410193D01*
X23606Y410199D01*
X23683Y410208D01*
X23759Y410221D01*
X23834Y410238D01*
X23908Y410258D01*
X23981Y410283D01*
X24052Y410310D01*
X24123Y410341D01*
X24191Y410376D01*
X24258Y410414D01*
X24323Y410455D01*
X24386Y410499D01*
X24446Y410546D01*
X24505Y410597D01*
X24560Y410650D01*
X24613Y410705D01*
X24664Y410764D01*
X24711Y410824D01*
X24755Y410887D01*
X24796Y410952D01*
X24834Y411019D01*
X24869Y411087D01*
X24900Y411158D01*
X24927Y411229D01*
X24952Y411302D01*
X24972Y411376D01*
X24989Y411451D01*
X25002Y411527D01*
X25011Y411604D01*
X25017Y411680D01*
X25019Y411757D01*
X25019Y412279D01*
X19798Y421106D02*
X19798Y423717D01*
X19797Y423717D02*
X19799Y423818D01*
X19805Y423919D01*
X19815Y424020D01*
X19828Y424120D01*
X19846Y424220D01*
X19867Y424319D01*
X19893Y424417D01*
X19922Y424514D01*
X19954Y424610D01*
X19991Y424704D01*
X20031Y424797D01*
X20075Y424889D01*
X20122Y424978D01*
X20173Y425066D01*
X20227Y425152D01*
X20284Y425235D01*
X20344Y425317D01*
X20408Y425395D01*
X20474Y425472D01*
X20544Y425545D01*
X20616Y425616D01*
X20691Y425684D01*
X20769Y425749D01*
X20849Y425811D01*
X20931Y425870D01*
X21016Y425926D01*
X21103Y425978D01*
X21191Y426027D01*
X21282Y426073D01*
X21374Y426114D01*
X21468Y426153D01*
X21563Y426187D01*
X21659Y426218D01*
X21757Y426245D01*
X21855Y426269D01*
X21955Y426288D01*
X22055Y426304D01*
X22155Y426316D01*
X22256Y426324D01*
X22357Y426328D01*
X22459Y426328D01*
X22560Y426324D01*
X22661Y426316D01*
X22761Y426304D01*
X22861Y426288D01*
X22961Y426269D01*
X23059Y426245D01*
X23157Y426218D01*
X23253Y426187D01*
X23348Y426153D01*
X23442Y426114D01*
X23534Y426073D01*
X23625Y426027D01*
X23714Y425978D01*
X23800Y425926D01*
X23885Y425870D01*
X23967Y425811D01*
X24047Y425749D01*
X24125Y425684D01*
X24200Y425616D01*
X24272Y425545D01*
X24342Y425472D01*
X24408Y425395D01*
X24472Y425317D01*
X24532Y425235D01*
X24589Y425152D01*
X24643Y425066D01*
X24694Y424978D01*
X24741Y424889D01*
X24785Y424797D01*
X24825Y424704D01*
X24862Y424610D01*
X24894Y424514D01*
X24923Y424417D01*
X24949Y424319D01*
X24970Y424220D01*
X24988Y424120D01*
X25001Y424020D01*
X25011Y423919D01*
X25017Y423818D01*
X25019Y423717D01*
X25019Y421106D01*
X15621Y421106D01*
X15621Y423717D01*
X15623Y423807D01*
X15629Y423896D01*
X15638Y423986D01*
X15652Y424075D01*
X15669Y424163D01*
X15690Y424250D01*
X15715Y424337D01*
X15744Y424422D01*
X15776Y424506D01*
X15811Y424588D01*
X15851Y424669D01*
X15893Y424748D01*
X15939Y424825D01*
X15989Y424900D01*
X16041Y424973D01*
X16097Y425044D01*
X16155Y425112D01*
X16217Y425177D01*
X16281Y425240D01*
X16348Y425300D01*
X16417Y425357D01*
X16489Y425411D01*
X16563Y425462D01*
X16639Y425510D01*
X16717Y425554D01*
X16797Y425595D01*
X16879Y425633D01*
X16962Y425667D01*
X17047Y425697D01*
X17133Y425724D01*
X17219Y425747D01*
X17307Y425766D01*
X17396Y425781D01*
X17485Y425793D01*
X17574Y425801D01*
X17664Y425805D01*
X17754Y425805D01*
X17844Y425801D01*
X17933Y425793D01*
X18022Y425781D01*
X18111Y425766D01*
X18199Y425747D01*
X18285Y425724D01*
X18371Y425697D01*
X18456Y425667D01*
X18539Y425633D01*
X18621Y425595D01*
X18701Y425554D01*
X18779Y425510D01*
X18855Y425462D01*
X18929Y425411D01*
X19001Y425357D01*
X19070Y425300D01*
X19137Y425240D01*
X19201Y425177D01*
X19263Y425112D01*
X19321Y425044D01*
X19377Y424973D01*
X19429Y424900D01*
X19479Y424825D01*
X19525Y424748D01*
X19567Y424669D01*
X19607Y424588D01*
X19642Y424506D01*
X19674Y424422D01*
X19703Y424337D01*
X19728Y424250D01*
X19749Y424163D01*
X19766Y424075D01*
X19780Y423986D01*
X19789Y423896D01*
X19795Y423807D01*
X19797Y423717D01*
X20842Y429727D02*
X22931Y429727D01*
X20842Y429727D02*
X20752Y429729D01*
X20663Y429735D01*
X20573Y429744D01*
X20484Y429758D01*
X20396Y429775D01*
X20309Y429796D01*
X20222Y429821D01*
X20137Y429850D01*
X20053Y429882D01*
X19971Y429917D01*
X19890Y429957D01*
X19811Y429999D01*
X19734Y430045D01*
X19659Y430095D01*
X19586Y430147D01*
X19515Y430203D01*
X19447Y430261D01*
X19382Y430323D01*
X19319Y430387D01*
X19259Y430454D01*
X19202Y430523D01*
X19148Y430595D01*
X19097Y430669D01*
X19049Y430745D01*
X19005Y430823D01*
X18964Y430903D01*
X18926Y430985D01*
X18892Y431068D01*
X18862Y431153D01*
X18835Y431239D01*
X18812Y431325D01*
X18793Y431413D01*
X18778Y431502D01*
X18766Y431591D01*
X18758Y431680D01*
X18754Y431770D01*
X18754Y431860D01*
X18758Y431950D01*
X18766Y432039D01*
X18778Y432128D01*
X18793Y432217D01*
X18812Y432305D01*
X18835Y432391D01*
X18862Y432477D01*
X18892Y432562D01*
X18926Y432645D01*
X18964Y432727D01*
X19005Y432807D01*
X19049Y432885D01*
X19097Y432961D01*
X19148Y433035D01*
X19202Y433107D01*
X19259Y433176D01*
X19319Y433243D01*
X19382Y433307D01*
X19447Y433369D01*
X19515Y433427D01*
X19586Y433483D01*
X19659Y433535D01*
X19734Y433585D01*
X19811Y433631D01*
X19890Y433673D01*
X19971Y433713D01*
X20053Y433748D01*
X20137Y433780D01*
X20222Y433809D01*
X20309Y433834D01*
X20396Y433855D01*
X20484Y433872D01*
X20573Y433886D01*
X20663Y433895D01*
X20752Y433901D01*
X20842Y433903D01*
X20842Y433904D02*
X22931Y433904D01*
X22931Y433903D02*
X23021Y433901D01*
X23110Y433895D01*
X23200Y433886D01*
X23289Y433872D01*
X23377Y433855D01*
X23464Y433834D01*
X23551Y433809D01*
X23636Y433780D01*
X23720Y433748D01*
X23802Y433713D01*
X23883Y433673D01*
X23962Y433631D01*
X24039Y433585D01*
X24114Y433535D01*
X24187Y433483D01*
X24258Y433427D01*
X24326Y433369D01*
X24391Y433307D01*
X24454Y433243D01*
X24514Y433176D01*
X24571Y433107D01*
X24625Y433035D01*
X24676Y432961D01*
X24724Y432885D01*
X24768Y432807D01*
X24809Y432727D01*
X24847Y432645D01*
X24881Y432562D01*
X24911Y432477D01*
X24938Y432391D01*
X24961Y432305D01*
X24980Y432217D01*
X24995Y432128D01*
X25007Y432039D01*
X25015Y431950D01*
X25019Y431860D01*
X25019Y431770D01*
X25015Y431680D01*
X25007Y431591D01*
X24995Y431502D01*
X24980Y431413D01*
X24961Y431325D01*
X24938Y431239D01*
X24911Y431153D01*
X24881Y431068D01*
X24847Y430985D01*
X24809Y430903D01*
X24768Y430823D01*
X24724Y430745D01*
X24676Y430669D01*
X24625Y430595D01*
X24571Y430523D01*
X24514Y430454D01*
X24454Y430387D01*
X24391Y430323D01*
X24326Y430261D01*
X24258Y430203D01*
X24187Y430147D01*
X24114Y430095D01*
X24039Y430045D01*
X23962Y429999D01*
X23883Y429957D01*
X23802Y429917D01*
X23720Y429882D01*
X23636Y429850D01*
X23551Y429821D01*
X23464Y429796D01*
X23377Y429775D01*
X23289Y429758D01*
X23200Y429744D01*
X23110Y429735D01*
X23021Y429729D01*
X22931Y429727D01*
X28152Y437347D02*
X28152Y438391D01*
X18754Y441523D01*
X18754Y437347D02*
X25019Y439435D01*
X25019Y449098D02*
X15621Y449098D01*
X25019Y449098D02*
X25019Y446487D01*
X25017Y446410D01*
X25011Y446334D01*
X25002Y446257D01*
X24989Y446181D01*
X24972Y446106D01*
X24952Y446032D01*
X24927Y445959D01*
X24900Y445888D01*
X24869Y445817D01*
X24834Y445749D01*
X24796Y445682D01*
X24755Y445617D01*
X24711Y445554D01*
X24664Y445494D01*
X24613Y445435D01*
X24560Y445380D01*
X24505Y445327D01*
X24446Y445276D01*
X24386Y445229D01*
X24323Y445185D01*
X24258Y445144D01*
X24191Y445106D01*
X24123Y445071D01*
X24052Y445040D01*
X23981Y445013D01*
X23908Y444988D01*
X23834Y444968D01*
X23759Y444951D01*
X23683Y444938D01*
X23606Y444929D01*
X23530Y444923D01*
X23453Y444921D01*
X20320Y444921D01*
X20243Y444923D01*
X20167Y444929D01*
X20090Y444938D01*
X20014Y444951D01*
X19939Y444968D01*
X19865Y444988D01*
X19792Y445013D01*
X19721Y445040D01*
X19650Y445071D01*
X19582Y445106D01*
X19515Y445144D01*
X19450Y445185D01*
X19387Y445229D01*
X19327Y445276D01*
X19268Y445327D01*
X19213Y445380D01*
X19160Y445435D01*
X19109Y445494D01*
X19062Y445554D01*
X19018Y445617D01*
X18977Y445682D01*
X18939Y445749D01*
X18904Y445817D01*
X18873Y445888D01*
X18846Y445959D01*
X18821Y446032D01*
X18801Y446106D01*
X18784Y446181D01*
X18771Y446257D01*
X18762Y446334D01*
X18756Y446410D01*
X18754Y446487D01*
X18754Y449098D01*
X25019Y452856D02*
X25019Y453378D01*
X25019Y452856D02*
X24497Y452856D01*
X24497Y453378D01*
X25019Y453378D01*
X27107Y452595D01*
X15621Y464689D02*
X15623Y464784D01*
X15629Y464878D01*
X15638Y464972D01*
X15651Y465066D01*
X15668Y465159D01*
X15689Y465251D01*
X15714Y465343D01*
X15742Y465433D01*
X15774Y465522D01*
X15809Y465610D01*
X15848Y465696D01*
X15890Y465781D01*
X15936Y465864D01*
X15985Y465945D01*
X16037Y466024D01*
X16092Y466101D01*
X16151Y466175D01*
X16212Y466247D01*
X16276Y466317D01*
X16343Y466384D01*
X16413Y466448D01*
X16485Y466509D01*
X16559Y466568D01*
X16636Y466623D01*
X16715Y466675D01*
X16796Y466724D01*
X16879Y466770D01*
X16964Y466812D01*
X17050Y466851D01*
X17138Y466886D01*
X17227Y466918D01*
X17317Y466946D01*
X17409Y466971D01*
X17501Y466992D01*
X17594Y467009D01*
X17688Y467022D01*
X17782Y467031D01*
X17876Y467037D01*
X17971Y467039D01*
X15621Y464689D02*
X15623Y464581D01*
X15629Y464472D01*
X15639Y464364D01*
X15652Y464257D01*
X15670Y464150D01*
X15691Y464043D01*
X15716Y463938D01*
X15745Y463833D01*
X15777Y463730D01*
X15814Y463628D01*
X15854Y463527D01*
X15897Y463428D01*
X15944Y463330D01*
X15995Y463234D01*
X16049Y463140D01*
X16106Y463048D01*
X16167Y462958D01*
X16231Y462870D01*
X16297Y462785D01*
X16367Y462702D01*
X16440Y462622D01*
X16516Y462544D01*
X16594Y462469D01*
X16675Y462397D01*
X16759Y462328D01*
X16845Y462262D01*
X16933Y462199D01*
X17024Y462140D01*
X17116Y462083D01*
X17211Y462030D01*
X17308Y461981D01*
X17406Y461935D01*
X17505Y461892D01*
X17607Y461853D01*
X17709Y461818D01*
X19799Y466256D02*
X19730Y466325D01*
X19659Y466391D01*
X19586Y466455D01*
X19510Y466516D01*
X19431Y466574D01*
X19351Y466628D01*
X19268Y466680D01*
X19184Y466728D01*
X19098Y466774D01*
X19010Y466815D01*
X18920Y466854D01*
X18829Y466889D01*
X18737Y466920D01*
X18644Y466948D01*
X18550Y466972D01*
X18455Y466992D01*
X18359Y467009D01*
X18262Y467022D01*
X18165Y467031D01*
X18068Y467037D01*
X17971Y467039D01*
X19798Y466256D02*
X25019Y461818D01*
X25019Y467039D01*
X20320Y470962D02*
X20135Y470964D01*
X19950Y470971D01*
X19766Y470982D01*
X19582Y470997D01*
X19398Y471017D01*
X19214Y471041D01*
X19032Y471070D01*
X18850Y471103D01*
X18669Y471140D01*
X18489Y471182D01*
X18309Y471228D01*
X18131Y471278D01*
X17955Y471332D01*
X17779Y471391D01*
X17605Y471453D01*
X17433Y471520D01*
X17262Y471591D01*
X17093Y471666D01*
X16926Y471745D01*
X16926Y471744D02*
X16846Y471774D01*
X16767Y471807D01*
X16690Y471844D01*
X16614Y471884D01*
X16540Y471927D01*
X16468Y471973D01*
X16399Y472023D01*
X16331Y472075D01*
X16266Y472131D01*
X16203Y472189D01*
X16144Y472251D01*
X16086Y472314D01*
X16032Y472381D01*
X15981Y472449D01*
X15933Y472520D01*
X15888Y472593D01*
X15846Y472667D01*
X15808Y472744D01*
X15773Y472822D01*
X15741Y472901D01*
X15713Y472982D01*
X15689Y473064D01*
X15668Y473148D01*
X15651Y473231D01*
X15638Y473316D01*
X15629Y473401D01*
X15623Y473486D01*
X15621Y473572D01*
X15623Y473658D01*
X15629Y473743D01*
X15638Y473828D01*
X15651Y473913D01*
X15668Y473996D01*
X15689Y474080D01*
X15713Y474162D01*
X15741Y474243D01*
X15773Y474322D01*
X15808Y474400D01*
X15846Y474477D01*
X15888Y474551D01*
X15933Y474624D01*
X15981Y474695D01*
X16032Y474763D01*
X16086Y474830D01*
X16144Y474893D01*
X16203Y474955D01*
X16266Y475013D01*
X16331Y475069D01*
X16399Y475121D01*
X16468Y475171D01*
X16540Y475217D01*
X16614Y475260D01*
X16690Y475300D01*
X16767Y475337D01*
X16846Y475370D01*
X16926Y475400D01*
X17093Y475479D01*
X17262Y475554D01*
X17433Y475625D01*
X17605Y475692D01*
X17779Y475754D01*
X17955Y475813D01*
X18131Y475867D01*
X18309Y475917D01*
X18489Y475963D01*
X18669Y476005D01*
X18850Y476042D01*
X19032Y476075D01*
X19214Y476104D01*
X19398Y476128D01*
X19582Y476148D01*
X19766Y476163D01*
X19950Y476174D01*
X20135Y476181D01*
X20320Y476183D01*
X20320Y470962D02*
X20505Y470964D01*
X20690Y470971D01*
X20874Y470982D01*
X21058Y470997D01*
X21242Y471017D01*
X21426Y471041D01*
X21608Y471070D01*
X21790Y471103D01*
X21971Y471140D01*
X22151Y471182D01*
X22331Y471228D01*
X22509Y471278D01*
X22685Y471332D01*
X22861Y471391D01*
X23035Y471453D01*
X23207Y471520D01*
X23378Y471591D01*
X23547Y471666D01*
X23714Y471745D01*
X23714Y471744D02*
X23794Y471774D01*
X23873Y471807D01*
X23950Y471844D01*
X24026Y471884D01*
X24100Y471927D01*
X24172Y471973D01*
X24241Y472023D01*
X24309Y472076D01*
X24374Y472131D01*
X24437Y472190D01*
X24496Y472251D01*
X24554Y472314D01*
X24608Y472381D01*
X24659Y472449D01*
X24707Y472520D01*
X24752Y472593D01*
X24794Y472667D01*
X24832Y472744D01*
X24867Y472822D01*
X24899Y472901D01*
X24927Y472982D01*
X24951Y473064D01*
X24972Y473148D01*
X24989Y473231D01*
X25002Y473316D01*
X25011Y473401D01*
X25017Y473486D01*
X25019Y473572D01*
X23714Y475400D02*
X23547Y475479D01*
X23378Y475554D01*
X23207Y475625D01*
X23035Y475692D01*
X22861Y475754D01*
X22685Y475813D01*
X22509Y475867D01*
X22331Y475917D01*
X22151Y475963D01*
X21971Y476005D01*
X21790Y476042D01*
X21608Y476075D01*
X21426Y476104D01*
X21242Y476128D01*
X21058Y476148D01*
X20874Y476163D01*
X20690Y476174D01*
X20505Y476181D01*
X20320Y476183D01*
X23714Y475400D02*
X23794Y475370D01*
X23873Y475337D01*
X23950Y475300D01*
X24026Y475260D01*
X24100Y475217D01*
X24172Y475171D01*
X24241Y475121D01*
X24309Y475069D01*
X24374Y475013D01*
X24437Y474955D01*
X24496Y474893D01*
X24554Y474830D01*
X24608Y474763D01*
X24659Y474695D01*
X24707Y474624D01*
X24752Y474551D01*
X24794Y474477D01*
X24832Y474400D01*
X24867Y474322D01*
X24899Y474243D01*
X24927Y474162D01*
X24951Y474080D01*
X24972Y473996D01*
X24989Y473913D01*
X25002Y473828D01*
X25011Y473743D01*
X25017Y473658D01*
X25019Y473572D01*
X22931Y471484D02*
X17709Y475661D01*
X17709Y480106D02*
X15621Y482716D01*
X25019Y482716D01*
X25019Y480106D02*
X25019Y485327D01*
X20842Y491338D02*
X20842Y494471D01*
X20842Y491338D02*
X20840Y491249D01*
X20834Y491161D01*
X20825Y491073D01*
X20812Y490985D01*
X20795Y490898D01*
X20775Y490812D01*
X20750Y490727D01*
X20723Y490642D01*
X20691Y490559D01*
X20657Y490478D01*
X20618Y490398D01*
X20577Y490320D01*
X20532Y490243D01*
X20484Y490169D01*
X20433Y490096D01*
X20379Y490026D01*
X20321Y489959D01*
X20261Y489893D01*
X20199Y489831D01*
X20133Y489771D01*
X20066Y489713D01*
X19996Y489659D01*
X19923Y489608D01*
X19849Y489560D01*
X19772Y489515D01*
X19694Y489474D01*
X19614Y489435D01*
X19533Y489401D01*
X19450Y489369D01*
X19365Y489342D01*
X19280Y489317D01*
X19194Y489297D01*
X19107Y489280D01*
X19019Y489267D01*
X18931Y489258D01*
X18843Y489252D01*
X18754Y489250D01*
X18232Y489250D01*
X18232Y489249D02*
X18131Y489251D01*
X18030Y489257D01*
X17929Y489267D01*
X17829Y489280D01*
X17729Y489298D01*
X17630Y489319D01*
X17532Y489345D01*
X17435Y489374D01*
X17339Y489406D01*
X17245Y489443D01*
X17152Y489483D01*
X17060Y489527D01*
X16971Y489574D01*
X16883Y489625D01*
X16797Y489679D01*
X16714Y489736D01*
X16632Y489796D01*
X16554Y489860D01*
X16477Y489926D01*
X16404Y489996D01*
X16333Y490068D01*
X16265Y490143D01*
X16200Y490221D01*
X16138Y490301D01*
X16079Y490383D01*
X16023Y490468D01*
X15971Y490555D01*
X15922Y490643D01*
X15876Y490734D01*
X15835Y490826D01*
X15796Y490920D01*
X15762Y491015D01*
X15731Y491111D01*
X15704Y491209D01*
X15680Y491307D01*
X15661Y491407D01*
X15645Y491507D01*
X15633Y491607D01*
X15625Y491708D01*
X15621Y491809D01*
X15621Y491911D01*
X15625Y492012D01*
X15633Y492113D01*
X15645Y492213D01*
X15661Y492313D01*
X15680Y492413D01*
X15704Y492511D01*
X15731Y492609D01*
X15762Y492705D01*
X15796Y492800D01*
X15835Y492894D01*
X15876Y492986D01*
X15922Y493077D01*
X15971Y493166D01*
X16023Y493252D01*
X16079Y493337D01*
X16138Y493419D01*
X16200Y493499D01*
X16265Y493577D01*
X16333Y493652D01*
X16404Y493724D01*
X16477Y493794D01*
X16554Y493860D01*
X16632Y493924D01*
X16714Y493984D01*
X16797Y494041D01*
X16883Y494095D01*
X16971Y494146D01*
X17060Y494193D01*
X17152Y494237D01*
X17245Y494277D01*
X17339Y494314D01*
X17435Y494346D01*
X17532Y494375D01*
X17630Y494401D01*
X17729Y494422D01*
X17829Y494440D01*
X17929Y494453D01*
X18030Y494463D01*
X18131Y494469D01*
X18232Y494471D01*
X20842Y494471D01*
X20968Y494469D01*
X21094Y494463D01*
X21220Y494454D01*
X21345Y494441D01*
X21470Y494423D01*
X21595Y494403D01*
X21719Y494378D01*
X21842Y494350D01*
X21964Y494318D01*
X22085Y494282D01*
X22205Y494243D01*
X22323Y494200D01*
X22440Y494153D01*
X22556Y494103D01*
X22671Y494049D01*
X22783Y493993D01*
X22894Y493932D01*
X23003Y493869D01*
X23110Y493802D01*
X23215Y493732D01*
X23318Y493658D01*
X23418Y493582D01*
X23516Y493503D01*
X23612Y493421D01*
X23705Y493335D01*
X23796Y493248D01*
X23883Y493157D01*
X23969Y493064D01*
X24051Y492968D01*
X24130Y492870D01*
X24206Y492770D01*
X24280Y492667D01*
X24350Y492562D01*
X24417Y492455D01*
X24480Y492346D01*
X24541Y492235D01*
X24597Y492123D01*
X24651Y492008D01*
X24701Y491892D01*
X24748Y491775D01*
X24791Y491657D01*
X24830Y491537D01*
X24866Y491416D01*
X24898Y491294D01*
X24926Y491171D01*
X24951Y491047D01*
X24971Y490922D01*
X24989Y490797D01*
X25002Y490672D01*
X25011Y490546D01*
X25017Y490420D01*
X25019Y490294D01*
X416179Y251841D02*
X416179Y249230D01*
X416177Y249153D01*
X416171Y249077D01*
X416162Y249000D01*
X416149Y248924D01*
X416132Y248849D01*
X416112Y248775D01*
X416087Y248702D01*
X416060Y248631D01*
X416029Y248560D01*
X415994Y248492D01*
X415956Y248425D01*
X415915Y248360D01*
X415871Y248297D01*
X415824Y248237D01*
X415773Y248178D01*
X415720Y248123D01*
X415665Y248070D01*
X415606Y248019D01*
X415546Y247972D01*
X415483Y247928D01*
X415418Y247887D01*
X415351Y247849D01*
X415283Y247814D01*
X415212Y247783D01*
X415141Y247756D01*
X415068Y247731D01*
X414994Y247711D01*
X414919Y247694D01*
X414843Y247681D01*
X414766Y247672D01*
X414690Y247666D01*
X414613Y247664D01*
X411480Y247664D01*
X411403Y247666D01*
X411327Y247672D01*
X411250Y247681D01*
X411174Y247694D01*
X411099Y247711D01*
X411025Y247731D01*
X410952Y247756D01*
X410881Y247783D01*
X410810Y247814D01*
X410742Y247849D01*
X410675Y247887D01*
X410610Y247928D01*
X410547Y247972D01*
X410487Y248019D01*
X410428Y248070D01*
X410373Y248123D01*
X410320Y248178D01*
X410269Y248237D01*
X410222Y248297D01*
X410178Y248360D01*
X410137Y248425D01*
X410099Y248492D01*
X410064Y248560D01*
X410033Y248631D01*
X410006Y248702D01*
X409981Y248775D01*
X409961Y248849D01*
X409944Y248924D01*
X409931Y249000D01*
X409922Y249077D01*
X409916Y249153D01*
X409914Y249230D01*
X409914Y251841D01*
X417745Y251841D01*
X417745Y251840D02*
X417822Y251838D01*
X417898Y251832D01*
X417975Y251823D01*
X418051Y251810D01*
X418126Y251793D01*
X418200Y251773D01*
X418273Y251748D01*
X418344Y251721D01*
X418415Y251690D01*
X418483Y251655D01*
X418550Y251617D01*
X418615Y251576D01*
X418678Y251532D01*
X418738Y251485D01*
X418797Y251434D01*
X418852Y251381D01*
X418905Y251326D01*
X418956Y251267D01*
X419003Y251207D01*
X419047Y251144D01*
X419088Y251079D01*
X419126Y251012D01*
X419161Y250944D01*
X419192Y250873D01*
X419219Y250802D01*
X419244Y250729D01*
X419264Y250655D01*
X419281Y250580D01*
X419294Y250504D01*
X419303Y250427D01*
X419309Y250351D01*
X419311Y250274D01*
X419312Y250274D02*
X419312Y248186D01*
X416179Y255894D02*
X409914Y255894D01*
X407303Y255633D02*
X406781Y255633D01*
X406781Y256155D01*
X407303Y256155D01*
X407303Y255633D01*
X409914Y258828D02*
X409914Y261960D01*
X406781Y259872D02*
X414613Y259872D01*
X414690Y259874D01*
X414766Y259880D01*
X414843Y259889D01*
X414919Y259902D01*
X414994Y259919D01*
X415068Y259939D01*
X415141Y259964D01*
X415212Y259991D01*
X415283Y260022D01*
X415351Y260057D01*
X415418Y260095D01*
X415483Y260136D01*
X415546Y260180D01*
X415606Y260227D01*
X415665Y260278D01*
X415720Y260331D01*
X415773Y260386D01*
X415824Y260445D01*
X415871Y260505D01*
X415915Y260568D01*
X415956Y260633D01*
X415994Y260700D01*
X416029Y260768D01*
X416060Y260839D01*
X416087Y260910D01*
X416112Y260983D01*
X416132Y261057D01*
X416149Y261132D01*
X416162Y261208D01*
X416171Y261285D01*
X416177Y261361D01*
X416179Y261438D01*
X416179Y261960D01*
X416179Y265692D02*
X406781Y265692D01*
X409914Y265692D02*
X409914Y268303D01*
X409916Y268380D01*
X409922Y268456D01*
X409931Y268533D01*
X409944Y268609D01*
X409961Y268684D01*
X409981Y268758D01*
X410006Y268831D01*
X410033Y268902D01*
X410064Y268973D01*
X410099Y269041D01*
X410137Y269108D01*
X410178Y269173D01*
X410222Y269236D01*
X410269Y269296D01*
X410320Y269355D01*
X410373Y269410D01*
X410428Y269463D01*
X410487Y269514D01*
X410547Y269561D01*
X410610Y269605D01*
X410675Y269646D01*
X410742Y269684D01*
X410810Y269719D01*
X410881Y269750D01*
X410952Y269777D01*
X411025Y269802D01*
X411099Y269822D01*
X411174Y269839D01*
X411250Y269852D01*
X411326Y269861D01*
X411403Y269867D01*
X411480Y269869D01*
X416179Y269869D01*
X414613Y274227D02*
X409914Y274227D01*
X414613Y274227D02*
X414690Y274229D01*
X414766Y274235D01*
X414843Y274244D01*
X414919Y274257D01*
X414994Y274274D01*
X415068Y274294D01*
X415141Y274319D01*
X415212Y274346D01*
X415283Y274377D01*
X415351Y274412D01*
X415418Y274450D01*
X415483Y274491D01*
X415546Y274535D01*
X415606Y274582D01*
X415665Y274633D01*
X415720Y274686D01*
X415773Y274741D01*
X415824Y274800D01*
X415871Y274860D01*
X415915Y274923D01*
X415956Y274988D01*
X415994Y275055D01*
X416029Y275123D01*
X416060Y275194D01*
X416087Y275265D01*
X416112Y275338D01*
X416132Y275412D01*
X416149Y275487D01*
X416162Y275563D01*
X416171Y275640D01*
X416177Y275716D01*
X416179Y275793D01*
X416179Y278404D01*
X409914Y278404D01*
X406781Y282807D02*
X416179Y282807D01*
X416179Y285417D01*
X416177Y285494D01*
X416171Y285570D01*
X416162Y285647D01*
X416149Y285723D01*
X416132Y285798D01*
X416112Y285872D01*
X416087Y285945D01*
X416060Y286016D01*
X416029Y286087D01*
X415994Y286155D01*
X415956Y286222D01*
X415915Y286287D01*
X415871Y286350D01*
X415824Y286410D01*
X415773Y286469D01*
X415720Y286524D01*
X415665Y286577D01*
X415606Y286628D01*
X415546Y286675D01*
X415483Y286719D01*
X415418Y286760D01*
X415351Y286798D01*
X415283Y286833D01*
X415212Y286864D01*
X415141Y286891D01*
X415068Y286916D01*
X414994Y286936D01*
X414919Y286953D01*
X414843Y286966D01*
X414766Y286975D01*
X414690Y286981D01*
X414613Y286983D01*
X414613Y286984D02*
X411480Y286984D01*
X411480Y286983D02*
X411403Y286981D01*
X411327Y286975D01*
X411250Y286966D01*
X411174Y286953D01*
X411099Y286936D01*
X411025Y286916D01*
X410952Y286891D01*
X410881Y286864D01*
X410810Y286833D01*
X410742Y286798D01*
X410675Y286760D01*
X410610Y286719D01*
X410547Y286675D01*
X410487Y286628D01*
X410428Y286577D01*
X410373Y286524D01*
X410320Y286469D01*
X410269Y286410D01*
X410222Y286350D01*
X410178Y286287D01*
X410137Y286222D01*
X410099Y286155D01*
X410064Y286087D01*
X410033Y286016D01*
X410006Y285945D01*
X409981Y285872D01*
X409961Y285798D01*
X409944Y285723D01*
X409931Y285647D01*
X409922Y285570D01*
X409916Y285494D01*
X409914Y285417D01*
X409914Y282807D01*
X415657Y290380D02*
X416179Y290380D01*
X415657Y290380D02*
X415657Y290902D01*
X416179Y290902D01*
X416179Y290380D01*
X416179Y295920D02*
X416179Y298009D01*
X416179Y295920D02*
X416177Y295843D01*
X416171Y295767D01*
X416162Y295690D01*
X416149Y295614D01*
X416132Y295539D01*
X416112Y295465D01*
X416087Y295392D01*
X416060Y295321D01*
X416029Y295250D01*
X415994Y295182D01*
X415956Y295115D01*
X415915Y295050D01*
X415871Y294987D01*
X415824Y294927D01*
X415773Y294868D01*
X415720Y294813D01*
X415665Y294760D01*
X415606Y294709D01*
X415546Y294662D01*
X415483Y294618D01*
X415418Y294577D01*
X415351Y294539D01*
X415283Y294504D01*
X415212Y294473D01*
X415141Y294446D01*
X415068Y294421D01*
X414994Y294401D01*
X414919Y294384D01*
X414843Y294371D01*
X414766Y294362D01*
X414690Y294356D01*
X414613Y294354D01*
X411480Y294354D01*
X411403Y294356D01*
X411327Y294362D01*
X411250Y294371D01*
X411174Y294384D01*
X411099Y294401D01*
X411025Y294421D01*
X410952Y294446D01*
X410881Y294473D01*
X410810Y294504D01*
X410742Y294539D01*
X410675Y294577D01*
X410610Y294618D01*
X410547Y294662D01*
X410487Y294709D01*
X410428Y294760D01*
X410373Y294813D01*
X410320Y294868D01*
X410269Y294927D01*
X410222Y294987D01*
X410178Y295050D01*
X410137Y295115D01*
X410099Y295182D01*
X410064Y295250D01*
X410033Y295321D01*
X410006Y295392D01*
X409981Y295465D01*
X409961Y295539D01*
X409944Y295614D01*
X409931Y295690D01*
X409922Y295767D01*
X409916Y295843D01*
X409914Y295920D01*
X409914Y298009D01*
X412002Y301354D02*
X414091Y301354D01*
X412002Y301354D02*
X411912Y301356D01*
X411823Y301362D01*
X411733Y301371D01*
X411644Y301385D01*
X411556Y301402D01*
X411469Y301423D01*
X411382Y301448D01*
X411297Y301477D01*
X411213Y301509D01*
X411131Y301544D01*
X411050Y301584D01*
X410971Y301626D01*
X410894Y301672D01*
X410819Y301722D01*
X410746Y301774D01*
X410675Y301830D01*
X410607Y301888D01*
X410542Y301950D01*
X410479Y302014D01*
X410419Y302081D01*
X410362Y302150D01*
X410308Y302222D01*
X410257Y302296D01*
X410209Y302372D01*
X410165Y302450D01*
X410124Y302530D01*
X410086Y302612D01*
X410052Y302695D01*
X410022Y302780D01*
X409995Y302866D01*
X409972Y302952D01*
X409953Y303040D01*
X409938Y303129D01*
X409926Y303218D01*
X409918Y303307D01*
X409914Y303397D01*
X409914Y303487D01*
X409918Y303577D01*
X409926Y303666D01*
X409938Y303755D01*
X409953Y303844D01*
X409972Y303932D01*
X409995Y304018D01*
X410022Y304104D01*
X410052Y304189D01*
X410086Y304272D01*
X410124Y304354D01*
X410165Y304434D01*
X410209Y304512D01*
X410257Y304588D01*
X410308Y304662D01*
X410362Y304734D01*
X410419Y304803D01*
X410479Y304870D01*
X410542Y304934D01*
X410607Y304996D01*
X410675Y305054D01*
X410746Y305110D01*
X410819Y305162D01*
X410894Y305212D01*
X410971Y305258D01*
X411050Y305300D01*
X411131Y305340D01*
X411213Y305375D01*
X411297Y305407D01*
X411382Y305436D01*
X411469Y305461D01*
X411556Y305482D01*
X411644Y305499D01*
X411733Y305513D01*
X411823Y305522D01*
X411912Y305528D01*
X412002Y305530D01*
X412002Y305531D02*
X414091Y305531D01*
X414091Y305530D02*
X414181Y305528D01*
X414270Y305522D01*
X414360Y305513D01*
X414449Y305499D01*
X414537Y305482D01*
X414624Y305461D01*
X414711Y305436D01*
X414796Y305407D01*
X414880Y305375D01*
X414962Y305340D01*
X415043Y305300D01*
X415122Y305258D01*
X415199Y305212D01*
X415274Y305162D01*
X415347Y305110D01*
X415418Y305054D01*
X415486Y304996D01*
X415551Y304934D01*
X415614Y304870D01*
X415674Y304803D01*
X415731Y304734D01*
X415785Y304662D01*
X415836Y304588D01*
X415884Y304512D01*
X415928Y304434D01*
X415969Y304354D01*
X416007Y304272D01*
X416041Y304189D01*
X416071Y304104D01*
X416098Y304018D01*
X416121Y303932D01*
X416140Y303844D01*
X416155Y303755D01*
X416167Y303666D01*
X416175Y303577D01*
X416179Y303487D01*
X416179Y303397D01*
X416175Y303307D01*
X416167Y303218D01*
X416155Y303129D01*
X416140Y303040D01*
X416121Y302952D01*
X416098Y302866D01*
X416071Y302780D01*
X416041Y302695D01*
X416007Y302612D01*
X415969Y302530D01*
X415928Y302450D01*
X415884Y302372D01*
X415836Y302296D01*
X415785Y302222D01*
X415731Y302150D01*
X415674Y302081D01*
X415614Y302014D01*
X415551Y301950D01*
X415486Y301888D01*
X415418Y301830D01*
X415347Y301774D01*
X415274Y301722D01*
X415199Y301672D01*
X415122Y301626D01*
X415043Y301584D01*
X414962Y301544D01*
X414880Y301509D01*
X414796Y301477D01*
X414711Y301448D01*
X414624Y301423D01*
X414537Y301402D01*
X414449Y301385D01*
X414360Y301371D01*
X414270Y301362D01*
X414181Y301356D01*
X414091Y301354D01*
X416179Y309758D02*
X409914Y309758D01*
X409914Y314457D01*
X409916Y314534D01*
X409922Y314610D01*
X409931Y314687D01*
X409944Y314763D01*
X409961Y314838D01*
X409981Y314912D01*
X410006Y314985D01*
X410033Y315056D01*
X410064Y315127D01*
X410099Y315195D01*
X410137Y315262D01*
X410178Y315327D01*
X410222Y315390D01*
X410269Y315450D01*
X410320Y315509D01*
X410373Y315564D01*
X410428Y315617D01*
X410487Y315668D01*
X410547Y315715D01*
X410610Y315759D01*
X410675Y315800D01*
X410742Y315838D01*
X410810Y315873D01*
X410881Y315904D01*
X410952Y315931D01*
X411025Y315956D01*
X411099Y315976D01*
X411174Y315993D01*
X411250Y316006D01*
X411327Y316015D01*
X411403Y316021D01*
X411480Y316023D01*
X411480Y316024D02*
X416179Y316024D01*
X416179Y312891D02*
X409914Y312891D01*
X417223Y319947D02*
X405737Y324123D01*
X416179Y329717D02*
X416179Y331805D01*
X416179Y329717D02*
X416177Y329628D01*
X416171Y329540D01*
X416162Y329452D01*
X416149Y329364D01*
X416132Y329277D01*
X416112Y329191D01*
X416087Y329106D01*
X416060Y329021D01*
X416028Y328938D01*
X415994Y328857D01*
X415955Y328777D01*
X415914Y328699D01*
X415869Y328622D01*
X415821Y328548D01*
X415770Y328475D01*
X415716Y328405D01*
X415658Y328338D01*
X415598Y328272D01*
X415536Y328210D01*
X415470Y328150D01*
X415403Y328092D01*
X415333Y328038D01*
X415260Y327987D01*
X415186Y327939D01*
X415109Y327894D01*
X415031Y327853D01*
X414951Y327814D01*
X414870Y327780D01*
X414787Y327748D01*
X414702Y327721D01*
X414617Y327696D01*
X414531Y327676D01*
X414444Y327659D01*
X414356Y327646D01*
X414268Y327637D01*
X414180Y327631D01*
X414091Y327629D01*
X414091Y327628D02*
X408869Y327628D01*
X408778Y327630D01*
X408687Y327636D01*
X408596Y327646D01*
X408506Y327660D01*
X408417Y327678D01*
X408328Y327699D01*
X408241Y327725D01*
X408155Y327754D01*
X408070Y327787D01*
X407986Y327824D01*
X407904Y327864D01*
X407825Y327908D01*
X407747Y327955D01*
X407671Y328006D01*
X407597Y328060D01*
X407526Y328117D01*
X407458Y328177D01*
X407392Y328240D01*
X407329Y328306D01*
X407269Y328374D01*
X407212Y328445D01*
X407158Y328519D01*
X407107Y328595D01*
X407060Y328672D01*
X407016Y328752D01*
X406976Y328834D01*
X406939Y328918D01*
X406906Y329002D01*
X406877Y329089D01*
X406851Y329176D01*
X406830Y329265D01*
X406812Y329354D01*
X406798Y329444D01*
X406788Y329535D01*
X406782Y329626D01*
X406780Y329717D01*
X406781Y329717D02*
X406781Y331805D01*
X412002Y335186D02*
X414091Y335186D01*
X412002Y335187D02*
X411912Y335189D01*
X411823Y335195D01*
X411733Y335204D01*
X411644Y335218D01*
X411556Y335235D01*
X411469Y335256D01*
X411382Y335281D01*
X411297Y335310D01*
X411213Y335342D01*
X411131Y335377D01*
X411050Y335417D01*
X410971Y335459D01*
X410894Y335505D01*
X410819Y335555D01*
X410746Y335607D01*
X410675Y335663D01*
X410607Y335721D01*
X410542Y335783D01*
X410479Y335847D01*
X410419Y335914D01*
X410362Y335983D01*
X410308Y336055D01*
X410257Y336129D01*
X410209Y336205D01*
X410165Y336283D01*
X410124Y336363D01*
X410086Y336445D01*
X410052Y336528D01*
X410022Y336613D01*
X409995Y336699D01*
X409972Y336785D01*
X409953Y336873D01*
X409938Y336962D01*
X409926Y337051D01*
X409918Y337140D01*
X409914Y337230D01*
X409914Y337320D01*
X409918Y337410D01*
X409926Y337499D01*
X409938Y337588D01*
X409953Y337677D01*
X409972Y337765D01*
X409995Y337851D01*
X410022Y337937D01*
X410052Y338022D01*
X410086Y338105D01*
X410124Y338187D01*
X410165Y338267D01*
X410209Y338345D01*
X410257Y338421D01*
X410308Y338495D01*
X410362Y338567D01*
X410419Y338636D01*
X410479Y338703D01*
X410542Y338767D01*
X410607Y338829D01*
X410675Y338887D01*
X410746Y338943D01*
X410819Y338995D01*
X410894Y339045D01*
X410971Y339091D01*
X411050Y339133D01*
X411131Y339173D01*
X411213Y339208D01*
X411297Y339240D01*
X411382Y339269D01*
X411469Y339294D01*
X411556Y339315D01*
X411644Y339332D01*
X411733Y339346D01*
X411823Y339355D01*
X411912Y339361D01*
X412002Y339363D01*
X414091Y339363D01*
X414181Y339361D01*
X414270Y339355D01*
X414360Y339346D01*
X414449Y339332D01*
X414537Y339315D01*
X414624Y339294D01*
X414711Y339269D01*
X414796Y339240D01*
X414880Y339208D01*
X414962Y339173D01*
X415043Y339133D01*
X415122Y339091D01*
X415199Y339045D01*
X415274Y338995D01*
X415347Y338943D01*
X415418Y338887D01*
X415486Y338829D01*
X415551Y338767D01*
X415614Y338703D01*
X415674Y338636D01*
X415731Y338567D01*
X415785Y338495D01*
X415836Y338421D01*
X415884Y338345D01*
X415928Y338267D01*
X415969Y338187D01*
X416007Y338105D01*
X416041Y338022D01*
X416071Y337937D01*
X416098Y337851D01*
X416121Y337765D01*
X416140Y337677D01*
X416155Y337588D01*
X416167Y337499D01*
X416175Y337410D01*
X416179Y337320D01*
X416179Y337230D01*
X416175Y337140D01*
X416167Y337051D01*
X416155Y336962D01*
X416140Y336873D01*
X416121Y336785D01*
X416098Y336699D01*
X416071Y336613D01*
X416041Y336528D01*
X416007Y336445D01*
X415969Y336363D01*
X415928Y336283D01*
X415884Y336205D01*
X415836Y336129D01*
X415785Y336055D01*
X415731Y335983D01*
X415674Y335914D01*
X415614Y335847D01*
X415551Y335783D01*
X415486Y335721D01*
X415418Y335663D01*
X415347Y335607D01*
X415274Y335555D01*
X415199Y335505D01*
X415122Y335459D01*
X415043Y335417D01*
X414962Y335377D01*
X414880Y335342D01*
X414796Y335310D01*
X414711Y335281D01*
X414624Y335256D01*
X414537Y335235D01*
X414449Y335218D01*
X414360Y335204D01*
X414270Y335195D01*
X414181Y335189D01*
X414091Y335187D01*
X414613Y343237D02*
X406781Y343237D01*
X414613Y343237D02*
X414690Y343239D01*
X414766Y343245D01*
X414843Y343254D01*
X414919Y343267D01*
X414994Y343284D01*
X415068Y343304D01*
X415141Y343329D01*
X415212Y343356D01*
X415283Y343387D01*
X415351Y343422D01*
X415418Y343460D01*
X415483Y343501D01*
X415546Y343545D01*
X415606Y343592D01*
X415665Y343643D01*
X415720Y343696D01*
X415773Y343751D01*
X415824Y343810D01*
X415871Y343870D01*
X415915Y343933D01*
X415956Y343998D01*
X415994Y344065D01*
X416029Y344133D01*
X416060Y344204D01*
X416087Y344275D01*
X416112Y344348D01*
X416132Y344422D01*
X416149Y344497D01*
X416162Y344573D01*
X416171Y344650D01*
X416177Y344726D01*
X416179Y344803D01*
X409914Y347219D02*
X409914Y350352D01*
X406781Y348264D02*
X414613Y348264D01*
X414690Y348266D01*
X414766Y348272D01*
X414843Y348281D01*
X414919Y348294D01*
X414994Y348311D01*
X415068Y348331D01*
X415141Y348356D01*
X415212Y348383D01*
X415283Y348414D01*
X415351Y348449D01*
X415418Y348487D01*
X415483Y348528D01*
X415546Y348572D01*
X415606Y348619D01*
X415665Y348670D01*
X415720Y348723D01*
X415773Y348778D01*
X415824Y348837D01*
X415871Y348897D01*
X415915Y348960D01*
X415956Y349025D01*
X415994Y349092D01*
X416029Y349160D01*
X416060Y349231D01*
X416087Y349302D01*
X416112Y349375D01*
X416132Y349449D01*
X416149Y349524D01*
X416162Y349600D01*
X416171Y349677D01*
X416177Y349753D01*
X416179Y349830D01*
X416179Y350352D01*
X410958Y354303D02*
X410958Y356913D01*
X410957Y356913D02*
X410959Y357014D01*
X410965Y357115D01*
X410975Y357216D01*
X410988Y357316D01*
X411006Y357416D01*
X411027Y357515D01*
X411053Y357613D01*
X411082Y357710D01*
X411114Y357806D01*
X411151Y357900D01*
X411191Y357993D01*
X411235Y358085D01*
X411282Y358174D01*
X411333Y358262D01*
X411387Y358348D01*
X411444Y358431D01*
X411504Y358513D01*
X411568Y358591D01*
X411634Y358668D01*
X411704Y358741D01*
X411776Y358812D01*
X411851Y358880D01*
X411929Y358945D01*
X412009Y359007D01*
X412091Y359066D01*
X412176Y359122D01*
X412263Y359174D01*
X412351Y359223D01*
X412442Y359269D01*
X412534Y359310D01*
X412628Y359349D01*
X412723Y359383D01*
X412819Y359414D01*
X412917Y359441D01*
X413015Y359465D01*
X413115Y359484D01*
X413215Y359500D01*
X413315Y359512D01*
X413416Y359520D01*
X413517Y359524D01*
X413619Y359524D01*
X413720Y359520D01*
X413821Y359512D01*
X413921Y359500D01*
X414021Y359484D01*
X414121Y359465D01*
X414219Y359441D01*
X414317Y359414D01*
X414413Y359383D01*
X414508Y359349D01*
X414602Y359310D01*
X414694Y359269D01*
X414785Y359223D01*
X414874Y359174D01*
X414960Y359122D01*
X415045Y359066D01*
X415127Y359007D01*
X415207Y358945D01*
X415285Y358880D01*
X415360Y358812D01*
X415432Y358741D01*
X415502Y358668D01*
X415568Y358591D01*
X415632Y358513D01*
X415692Y358431D01*
X415749Y358348D01*
X415803Y358262D01*
X415854Y358174D01*
X415901Y358085D01*
X415945Y357993D01*
X415985Y357900D01*
X416022Y357806D01*
X416054Y357710D01*
X416083Y357613D01*
X416109Y357515D01*
X416130Y357416D01*
X416148Y357316D01*
X416161Y357216D01*
X416171Y357115D01*
X416177Y357014D01*
X416179Y356913D01*
X416179Y354303D01*
X406781Y354303D01*
X406781Y356913D01*
X406783Y357003D01*
X406789Y357092D01*
X406798Y357182D01*
X406812Y357271D01*
X406829Y357359D01*
X406850Y357446D01*
X406875Y357533D01*
X406904Y357618D01*
X406936Y357702D01*
X406971Y357784D01*
X407011Y357865D01*
X407053Y357944D01*
X407099Y358021D01*
X407149Y358096D01*
X407201Y358169D01*
X407257Y358240D01*
X407315Y358308D01*
X407377Y358373D01*
X407441Y358436D01*
X407508Y358496D01*
X407577Y358553D01*
X407649Y358607D01*
X407723Y358658D01*
X407799Y358706D01*
X407877Y358750D01*
X407957Y358791D01*
X408039Y358829D01*
X408122Y358863D01*
X408207Y358893D01*
X408293Y358920D01*
X408379Y358943D01*
X408467Y358962D01*
X408556Y358977D01*
X408645Y358989D01*
X408734Y358997D01*
X408824Y359001D01*
X408914Y359001D01*
X409004Y358997D01*
X409093Y358989D01*
X409182Y358977D01*
X409271Y358962D01*
X409359Y358943D01*
X409445Y358920D01*
X409531Y358893D01*
X409616Y358863D01*
X409699Y358829D01*
X409781Y358791D01*
X409861Y358750D01*
X409939Y358706D01*
X410015Y358658D01*
X410089Y358607D01*
X410161Y358553D01*
X410230Y358496D01*
X410297Y358436D01*
X410361Y358373D01*
X410423Y358308D01*
X410481Y358240D01*
X410537Y358169D01*
X410589Y358096D01*
X410639Y358021D01*
X410685Y357944D01*
X410727Y357865D01*
X410767Y357784D01*
X410802Y357702D01*
X410834Y357618D01*
X410863Y357533D01*
X410888Y357446D01*
X410909Y357359D01*
X410926Y357271D01*
X410940Y357182D01*
X410949Y357092D01*
X410955Y357003D01*
X410957Y356913D01*
X414091Y363011D02*
X406781Y365099D01*
X414091Y363011D02*
X414091Y368232D01*
X416179Y366665D02*
X412002Y366665D01*
X416179Y372155D02*
X416179Y375287D01*
X416177Y375376D01*
X416171Y375464D01*
X416162Y375552D01*
X416149Y375640D01*
X416132Y375727D01*
X416112Y375813D01*
X416087Y375898D01*
X416060Y375983D01*
X416028Y376066D01*
X415994Y376147D01*
X415955Y376227D01*
X415914Y376305D01*
X415869Y376382D01*
X415821Y376456D01*
X415770Y376529D01*
X415716Y376599D01*
X415658Y376666D01*
X415598Y376732D01*
X415536Y376794D01*
X415470Y376854D01*
X415403Y376912D01*
X415333Y376966D01*
X415260Y377017D01*
X415186Y377065D01*
X415109Y377110D01*
X415031Y377151D01*
X414951Y377190D01*
X414870Y377224D01*
X414787Y377256D01*
X414702Y377283D01*
X414617Y377308D01*
X414531Y377328D01*
X414444Y377345D01*
X414356Y377358D01*
X414268Y377367D01*
X414180Y377373D01*
X414091Y377375D01*
X414091Y377376D02*
X413046Y377376D01*
X413046Y377375D02*
X412957Y377373D01*
X412869Y377367D01*
X412781Y377358D01*
X412693Y377345D01*
X412606Y377328D01*
X412520Y377308D01*
X412435Y377283D01*
X412350Y377256D01*
X412267Y377224D01*
X412186Y377190D01*
X412106Y377151D01*
X412028Y377110D01*
X411951Y377065D01*
X411877Y377017D01*
X411804Y376966D01*
X411734Y376912D01*
X411667Y376854D01*
X411601Y376794D01*
X411539Y376732D01*
X411479Y376666D01*
X411421Y376599D01*
X411367Y376529D01*
X411316Y376456D01*
X411268Y376382D01*
X411223Y376305D01*
X411182Y376227D01*
X411143Y376147D01*
X411109Y376066D01*
X411077Y375983D01*
X411050Y375898D01*
X411025Y375813D01*
X411005Y375727D01*
X410988Y375640D01*
X410975Y375552D01*
X410966Y375464D01*
X410960Y375376D01*
X410958Y375287D01*
X410958Y372155D01*
X406781Y372155D01*
X406781Y377376D01*
X405737Y385083D02*
X417223Y380906D01*
X416179Y390615D02*
X406781Y390615D01*
X406781Y393225D02*
X406781Y388004D01*
X406781Y398627D02*
X414091Y396538D01*
X414091Y401760D01*
X416179Y400193D02*
X412002Y400193D01*
X416179Y406044D02*
X406781Y406044D01*
X406781Y408655D01*
X406783Y408756D01*
X406789Y408857D01*
X406799Y408958D01*
X406812Y409058D01*
X406830Y409158D01*
X406851Y409257D01*
X406877Y409355D01*
X406906Y409452D01*
X406938Y409548D01*
X406975Y409642D01*
X407015Y409735D01*
X407059Y409827D01*
X407106Y409916D01*
X407157Y410004D01*
X407211Y410090D01*
X407268Y410173D01*
X407328Y410255D01*
X407392Y410333D01*
X407458Y410410D01*
X407528Y410483D01*
X407600Y410554D01*
X407675Y410622D01*
X407753Y410687D01*
X407833Y410749D01*
X407915Y410808D01*
X408000Y410864D01*
X408087Y410916D01*
X408175Y410965D01*
X408266Y411011D01*
X408358Y411052D01*
X408452Y411091D01*
X408547Y411125D01*
X408643Y411156D01*
X408741Y411183D01*
X408839Y411207D01*
X408939Y411226D01*
X409039Y411242D01*
X409139Y411254D01*
X409240Y411262D01*
X409341Y411266D01*
X409443Y411266D01*
X409544Y411262D01*
X409645Y411254D01*
X409745Y411242D01*
X409845Y411226D01*
X409945Y411207D01*
X410043Y411183D01*
X410141Y411156D01*
X410237Y411125D01*
X410332Y411091D01*
X410426Y411052D01*
X410518Y411011D01*
X410609Y410965D01*
X410698Y410916D01*
X410784Y410864D01*
X410869Y410808D01*
X410951Y410749D01*
X411031Y410687D01*
X411109Y410622D01*
X411184Y410554D01*
X411256Y410483D01*
X411326Y410410D01*
X411392Y410333D01*
X411456Y410255D01*
X411516Y410173D01*
X411573Y410090D01*
X411627Y410004D01*
X411678Y409916D01*
X411725Y409827D01*
X411769Y409735D01*
X411809Y409642D01*
X411846Y409548D01*
X411878Y409452D01*
X411907Y409355D01*
X411933Y409257D01*
X411954Y409158D01*
X411972Y409058D01*
X411985Y408958D01*
X411995Y408857D01*
X412001Y408756D01*
X412003Y408655D01*
X412002Y408655D02*
X412002Y406044D01*
X412002Y409177D02*
X416179Y411265D01*
X412524Y415219D02*
X412524Y421484D01*
X416179Y424972D02*
X406781Y428105D01*
X416179Y431238D01*
X413830Y430454D02*
X413830Y425755D01*
X414613Y434856D02*
X409914Y434856D01*
X414613Y434856D02*
X414690Y434858D01*
X414766Y434864D01*
X414843Y434873D01*
X414919Y434886D01*
X414994Y434903D01*
X415068Y434923D01*
X415141Y434948D01*
X415212Y434975D01*
X415283Y435006D01*
X415351Y435041D01*
X415418Y435079D01*
X415483Y435120D01*
X415546Y435164D01*
X415606Y435211D01*
X415665Y435262D01*
X415720Y435315D01*
X415773Y435370D01*
X415824Y435429D01*
X415871Y435489D01*
X415915Y435552D01*
X415956Y435617D01*
X415994Y435684D01*
X416029Y435752D01*
X416060Y435823D01*
X416087Y435894D01*
X416112Y435967D01*
X416132Y436041D01*
X416149Y436116D01*
X416162Y436192D01*
X416171Y436269D01*
X416177Y436345D01*
X416179Y436422D01*
X416179Y439032D01*
X409914Y439032D01*
X409914Y442316D02*
X409914Y445449D01*
X406781Y443361D02*
X414613Y443361D01*
X414690Y443363D01*
X414766Y443369D01*
X414843Y443378D01*
X414919Y443391D01*
X414994Y443408D01*
X415068Y443428D01*
X415141Y443453D01*
X415212Y443480D01*
X415283Y443511D01*
X415351Y443546D01*
X415418Y443584D01*
X415483Y443625D01*
X415546Y443669D01*
X415606Y443716D01*
X415665Y443767D01*
X415720Y443820D01*
X415773Y443875D01*
X415824Y443934D01*
X415871Y443994D01*
X415915Y444057D01*
X415956Y444122D01*
X415994Y444189D01*
X416029Y444257D01*
X416060Y444328D01*
X416087Y444399D01*
X416112Y444472D01*
X416132Y444546D01*
X416149Y444621D01*
X416162Y444697D01*
X416171Y444774D01*
X416177Y444850D01*
X416179Y444927D01*
X416179Y445449D01*
X414091Y448876D02*
X412002Y448876D01*
X412002Y448877D02*
X411912Y448879D01*
X411823Y448885D01*
X411733Y448894D01*
X411644Y448908D01*
X411556Y448925D01*
X411469Y448946D01*
X411382Y448971D01*
X411297Y449000D01*
X411213Y449032D01*
X411131Y449067D01*
X411050Y449107D01*
X410971Y449149D01*
X410894Y449195D01*
X410819Y449245D01*
X410746Y449297D01*
X410675Y449353D01*
X410607Y449411D01*
X410542Y449473D01*
X410479Y449537D01*
X410419Y449604D01*
X410362Y449673D01*
X410308Y449745D01*
X410257Y449819D01*
X410209Y449895D01*
X410165Y449973D01*
X410124Y450053D01*
X410086Y450135D01*
X410052Y450218D01*
X410022Y450303D01*
X409995Y450389D01*
X409972Y450475D01*
X409953Y450563D01*
X409938Y450652D01*
X409926Y450741D01*
X409918Y450830D01*
X409914Y450920D01*
X409914Y451010D01*
X409918Y451100D01*
X409926Y451189D01*
X409938Y451278D01*
X409953Y451367D01*
X409972Y451455D01*
X409995Y451541D01*
X410022Y451627D01*
X410052Y451712D01*
X410086Y451795D01*
X410124Y451877D01*
X410165Y451957D01*
X410209Y452035D01*
X410257Y452111D01*
X410308Y452185D01*
X410362Y452257D01*
X410419Y452326D01*
X410479Y452393D01*
X410542Y452457D01*
X410607Y452519D01*
X410675Y452577D01*
X410746Y452633D01*
X410819Y452685D01*
X410894Y452735D01*
X410971Y452781D01*
X411050Y452823D01*
X411131Y452863D01*
X411213Y452898D01*
X411297Y452930D01*
X411382Y452959D01*
X411469Y452984D01*
X411556Y453005D01*
X411644Y453022D01*
X411733Y453036D01*
X411823Y453045D01*
X411912Y453051D01*
X412002Y453053D01*
X414091Y453053D01*
X414181Y453051D01*
X414270Y453045D01*
X414360Y453036D01*
X414449Y453022D01*
X414537Y453005D01*
X414624Y452984D01*
X414711Y452959D01*
X414796Y452930D01*
X414880Y452898D01*
X414962Y452863D01*
X415043Y452823D01*
X415122Y452781D01*
X415199Y452735D01*
X415274Y452685D01*
X415347Y452633D01*
X415418Y452577D01*
X415486Y452519D01*
X415551Y452457D01*
X415614Y452393D01*
X415674Y452326D01*
X415731Y452257D01*
X415785Y452185D01*
X415836Y452111D01*
X415884Y452035D01*
X415928Y451957D01*
X415969Y451877D01*
X416007Y451795D01*
X416041Y451712D01*
X416071Y451627D01*
X416098Y451541D01*
X416121Y451455D01*
X416140Y451367D01*
X416155Y451278D01*
X416167Y451189D01*
X416175Y451100D01*
X416179Y451010D01*
X416179Y450920D01*
X416175Y450830D01*
X416167Y450741D01*
X416155Y450652D01*
X416140Y450563D01*
X416121Y450475D01*
X416098Y450389D01*
X416071Y450303D01*
X416041Y450218D01*
X416007Y450135D01*
X415969Y450053D01*
X415928Y449973D01*
X415884Y449895D01*
X415836Y449819D01*
X415785Y449745D01*
X415731Y449673D01*
X415674Y449604D01*
X415614Y449537D01*
X415551Y449473D01*
X415486Y449411D01*
X415418Y449353D01*
X415347Y449297D01*
X415274Y449245D01*
X415199Y449195D01*
X415122Y449149D01*
X415043Y449107D01*
X414962Y449067D01*
X414880Y449032D01*
X414796Y449000D01*
X414711Y448971D01*
X414624Y448946D01*
X414537Y448925D01*
X414449Y448908D01*
X414360Y448894D01*
X414270Y448885D01*
X414181Y448879D01*
X414091Y448877D01*
X412524Y456976D02*
X412524Y463241D01*
X416179Y467557D02*
X406781Y467557D01*
X410958Y467557D02*
X410958Y472778D01*
X406781Y472778D02*
X416179Y472778D01*
X416179Y478484D02*
X416179Y481095D01*
X416179Y478484D02*
X416177Y478407D01*
X416171Y478331D01*
X416162Y478254D01*
X416149Y478178D01*
X416132Y478103D01*
X416112Y478029D01*
X416087Y477956D01*
X416060Y477885D01*
X416029Y477814D01*
X415994Y477746D01*
X415956Y477679D01*
X415915Y477614D01*
X415871Y477551D01*
X415824Y477491D01*
X415773Y477432D01*
X415720Y477377D01*
X415665Y477324D01*
X415606Y477273D01*
X415546Y477226D01*
X415483Y477182D01*
X415418Y477141D01*
X415351Y477103D01*
X415283Y477068D01*
X415212Y477037D01*
X415141Y477010D01*
X415068Y476985D01*
X414994Y476965D01*
X414919Y476948D01*
X414843Y476935D01*
X414766Y476926D01*
X414690Y476920D01*
X414613Y476918D01*
X412002Y476918D01*
X411912Y476920D01*
X411823Y476926D01*
X411733Y476935D01*
X411644Y476949D01*
X411556Y476966D01*
X411469Y476987D01*
X411382Y477012D01*
X411297Y477041D01*
X411213Y477073D01*
X411131Y477108D01*
X411050Y477148D01*
X410971Y477190D01*
X410894Y477236D01*
X410819Y477286D01*
X410746Y477338D01*
X410675Y477394D01*
X410607Y477452D01*
X410542Y477514D01*
X410479Y477578D01*
X410419Y477645D01*
X410362Y477714D01*
X410308Y477786D01*
X410257Y477860D01*
X410209Y477936D01*
X410165Y478014D01*
X410124Y478094D01*
X410086Y478176D01*
X410052Y478259D01*
X410022Y478344D01*
X409995Y478430D01*
X409972Y478516D01*
X409953Y478604D01*
X409938Y478693D01*
X409926Y478782D01*
X409918Y478871D01*
X409914Y478961D01*
X409914Y479051D01*
X409918Y479141D01*
X409926Y479230D01*
X409938Y479319D01*
X409953Y479408D01*
X409972Y479496D01*
X409995Y479582D01*
X410022Y479668D01*
X410052Y479753D01*
X410086Y479836D01*
X410124Y479918D01*
X410165Y479998D01*
X410209Y480076D01*
X410257Y480152D01*
X410308Y480226D01*
X410362Y480298D01*
X410419Y480367D01*
X410479Y480434D01*
X410542Y480498D01*
X410607Y480560D01*
X410675Y480618D01*
X410746Y480674D01*
X410819Y480726D01*
X410894Y480776D01*
X410971Y480822D01*
X411050Y480864D01*
X411131Y480904D01*
X411213Y480939D01*
X411297Y480971D01*
X411382Y481000D01*
X411469Y481025D01*
X411556Y481046D01*
X411644Y481063D01*
X411733Y481077D01*
X411823Y481086D01*
X411912Y481092D01*
X412002Y481094D01*
X412002Y481095D02*
X413046Y481095D01*
X413046Y476918D01*
X412524Y486624D02*
X412524Y488974D01*
X412525Y486624D02*
X412527Y486540D01*
X412533Y486455D01*
X412543Y486372D01*
X412556Y486288D01*
X412574Y486206D01*
X412595Y486124D01*
X412620Y486043D01*
X412648Y485964D01*
X412681Y485886D01*
X412717Y485810D01*
X412756Y485735D01*
X412799Y485662D01*
X412845Y485591D01*
X412894Y485523D01*
X412946Y485457D01*
X413002Y485393D01*
X413060Y485332D01*
X413121Y485274D01*
X413185Y485218D01*
X413251Y485166D01*
X413319Y485117D01*
X413390Y485071D01*
X413463Y485028D01*
X413538Y484989D01*
X413614Y484953D01*
X413692Y484920D01*
X413771Y484892D01*
X413852Y484867D01*
X413934Y484846D01*
X414016Y484828D01*
X414100Y484815D01*
X414183Y484805D01*
X414268Y484799D01*
X414352Y484797D01*
X414436Y484799D01*
X414521Y484805D01*
X414604Y484815D01*
X414688Y484828D01*
X414770Y484846D01*
X414852Y484867D01*
X414933Y484892D01*
X415012Y484920D01*
X415090Y484953D01*
X415166Y484989D01*
X415241Y485028D01*
X415314Y485071D01*
X415385Y485117D01*
X415453Y485166D01*
X415519Y485218D01*
X415583Y485274D01*
X415644Y485332D01*
X415702Y485393D01*
X415758Y485457D01*
X415810Y485523D01*
X415859Y485591D01*
X415905Y485662D01*
X415948Y485735D01*
X415987Y485810D01*
X416023Y485886D01*
X416056Y485964D01*
X416084Y486043D01*
X416109Y486124D01*
X416130Y486206D01*
X416148Y486288D01*
X416161Y486372D01*
X416171Y486455D01*
X416177Y486540D01*
X416179Y486624D01*
X416179Y488974D01*
X411480Y488974D01*
X411480Y488973D02*
X411403Y488971D01*
X411327Y488965D01*
X411250Y488956D01*
X411174Y488943D01*
X411099Y488926D01*
X411025Y488906D01*
X410952Y488881D01*
X410881Y488854D01*
X410810Y488823D01*
X410742Y488788D01*
X410675Y488750D01*
X410610Y488709D01*
X410547Y488665D01*
X410487Y488618D01*
X410428Y488567D01*
X410373Y488514D01*
X410320Y488459D01*
X410269Y488400D01*
X410222Y488340D01*
X410178Y488277D01*
X410137Y488212D01*
X410099Y488145D01*
X410064Y488077D01*
X410033Y488006D01*
X410006Y487935D01*
X409981Y487862D01*
X409961Y487788D01*
X409944Y487713D01*
X409931Y487637D01*
X409922Y487560D01*
X409916Y487484D01*
X409914Y487407D01*
X409914Y485319D01*
X406781Y497203D02*
X416179Y497203D01*
X416179Y494593D01*
X416177Y494516D01*
X416171Y494440D01*
X416162Y494363D01*
X416149Y494287D01*
X416132Y494212D01*
X416112Y494138D01*
X416087Y494065D01*
X416060Y493994D01*
X416029Y493923D01*
X415994Y493855D01*
X415956Y493788D01*
X415915Y493723D01*
X415871Y493660D01*
X415824Y493600D01*
X415773Y493541D01*
X415720Y493486D01*
X415665Y493433D01*
X415606Y493382D01*
X415546Y493335D01*
X415483Y493291D01*
X415418Y493250D01*
X415351Y493212D01*
X415283Y493177D01*
X415212Y493146D01*
X415141Y493119D01*
X415068Y493094D01*
X414994Y493074D01*
X414919Y493057D01*
X414843Y493044D01*
X414766Y493035D01*
X414690Y493029D01*
X414613Y493027D01*
X414613Y493026D02*
X411480Y493026D01*
X411480Y493027D02*
X411403Y493029D01*
X411327Y493035D01*
X411250Y493044D01*
X411174Y493057D01*
X411099Y493074D01*
X411025Y493094D01*
X410952Y493119D01*
X410881Y493146D01*
X410810Y493177D01*
X410742Y493212D01*
X410675Y493250D01*
X410610Y493291D01*
X410547Y493335D01*
X410487Y493382D01*
X410428Y493433D01*
X410373Y493486D01*
X410320Y493541D01*
X410269Y493600D01*
X410222Y493660D01*
X410178Y493723D01*
X410137Y493788D01*
X410099Y493855D01*
X410064Y493923D01*
X410033Y493994D01*
X410006Y494065D01*
X409981Y494138D01*
X409961Y494212D01*
X409944Y494287D01*
X409931Y494363D01*
X409922Y494440D01*
X409916Y494516D01*
X409914Y494593D01*
X409914Y497203D01*
X406781Y501427D02*
X414613Y501427D01*
X414690Y501429D01*
X414766Y501435D01*
X414843Y501444D01*
X414919Y501457D01*
X414994Y501474D01*
X415068Y501494D01*
X415141Y501519D01*
X415212Y501546D01*
X415283Y501577D01*
X415351Y501612D01*
X415418Y501650D01*
X415483Y501691D01*
X415546Y501735D01*
X415606Y501782D01*
X415665Y501833D01*
X415720Y501886D01*
X415773Y501941D01*
X415824Y502000D01*
X415871Y502060D01*
X415915Y502123D01*
X415956Y502188D01*
X415994Y502255D01*
X416029Y502323D01*
X416060Y502394D01*
X416087Y502465D01*
X416112Y502538D01*
X416132Y502612D01*
X416149Y502687D01*
X416162Y502763D01*
X416171Y502840D01*
X416177Y502916D01*
X416179Y502993D01*
X416179Y506133D02*
X409914Y506133D01*
X407303Y505872D02*
X406781Y505872D01*
X406781Y506394D01*
X407303Y506394D01*
X407303Y505872D01*
X416179Y511357D02*
X416179Y513967D01*
X416179Y511357D02*
X416177Y511280D01*
X416171Y511204D01*
X416162Y511127D01*
X416149Y511051D01*
X416132Y510976D01*
X416112Y510902D01*
X416087Y510829D01*
X416060Y510758D01*
X416029Y510687D01*
X415994Y510619D01*
X415956Y510552D01*
X415915Y510487D01*
X415871Y510424D01*
X415824Y510364D01*
X415773Y510305D01*
X415720Y510250D01*
X415665Y510197D01*
X415606Y510146D01*
X415546Y510099D01*
X415483Y510055D01*
X415418Y510014D01*
X415351Y509976D01*
X415283Y509941D01*
X415212Y509910D01*
X415141Y509883D01*
X415068Y509858D01*
X414994Y509838D01*
X414919Y509821D01*
X414843Y509808D01*
X414766Y509799D01*
X414690Y509793D01*
X414613Y509791D01*
X414613Y509790D02*
X411480Y509790D01*
X411480Y509791D02*
X411403Y509793D01*
X411327Y509799D01*
X411250Y509808D01*
X411174Y509821D01*
X411099Y509838D01*
X411025Y509858D01*
X410952Y509883D01*
X410881Y509910D01*
X410810Y509941D01*
X410742Y509976D01*
X410675Y510014D01*
X410610Y510055D01*
X410547Y510099D01*
X410487Y510146D01*
X410428Y510197D01*
X410373Y510250D01*
X410320Y510305D01*
X410269Y510364D01*
X410222Y510424D01*
X410178Y510487D01*
X410137Y510552D01*
X410099Y510619D01*
X410064Y510687D01*
X410033Y510758D01*
X410006Y510829D01*
X409981Y510902D01*
X409961Y510976D01*
X409944Y511051D01*
X409931Y511127D01*
X409922Y511204D01*
X409916Y511280D01*
X409914Y511357D01*
X409914Y513967D01*
X417745Y513967D01*
X417822Y513965D01*
X417898Y513959D01*
X417975Y513950D01*
X418051Y513937D01*
X418126Y513920D01*
X418200Y513900D01*
X418273Y513875D01*
X418344Y513848D01*
X418415Y513817D01*
X418483Y513782D01*
X418550Y513744D01*
X418615Y513703D01*
X418678Y513659D01*
X418738Y513612D01*
X418797Y513561D01*
X418852Y513508D01*
X418905Y513453D01*
X418956Y513394D01*
X419003Y513334D01*
X419047Y513271D01*
X419088Y513206D01*
X419126Y513139D01*
X419161Y513071D01*
X419192Y513000D01*
X419219Y512929D01*
X419244Y512856D01*
X419264Y512782D01*
X419281Y512707D01*
X419294Y512631D01*
X419303Y512554D01*
X419309Y512478D01*
X419311Y512401D01*
X419312Y512401D02*
X419312Y510312D01*
X416179Y518370D02*
X406781Y518370D01*
X409914Y518370D02*
X409914Y520981D01*
X409916Y521058D01*
X409922Y521134D01*
X409931Y521211D01*
X409944Y521287D01*
X409961Y521362D01*
X409981Y521436D01*
X410006Y521509D01*
X410033Y521580D01*
X410064Y521651D01*
X410099Y521719D01*
X410137Y521786D01*
X410178Y521851D01*
X410222Y521914D01*
X410269Y521974D01*
X410320Y522033D01*
X410373Y522088D01*
X410428Y522141D01*
X410487Y522192D01*
X410547Y522239D01*
X410610Y522283D01*
X410675Y522324D01*
X410742Y522362D01*
X410810Y522397D01*
X410881Y522428D01*
X410952Y522455D01*
X411025Y522480D01*
X411099Y522500D01*
X411174Y522517D01*
X411250Y522530D01*
X411326Y522539D01*
X411403Y522545D01*
X411480Y522547D01*
X416179Y522547D01*
X409914Y525831D02*
X409914Y528964D01*
X406781Y526875D02*
X414613Y526875D01*
X414613Y526876D02*
X414690Y526878D01*
X414766Y526884D01*
X414843Y526893D01*
X414919Y526906D01*
X414994Y526923D01*
X415068Y526943D01*
X415141Y526968D01*
X415212Y526995D01*
X415283Y527026D01*
X415351Y527061D01*
X415418Y527099D01*
X415483Y527140D01*
X415546Y527184D01*
X415606Y527231D01*
X415665Y527282D01*
X415720Y527335D01*
X415773Y527390D01*
X415824Y527449D01*
X415871Y527509D01*
X415915Y527572D01*
X415956Y527637D01*
X415994Y527704D01*
X416029Y527772D01*
X416060Y527843D01*
X416087Y527914D01*
X416112Y527987D01*
X416132Y528061D01*
X416149Y528136D01*
X416162Y528212D01*
X416171Y528289D01*
X416177Y528365D01*
X416179Y528442D01*
X416179Y528964D01*
X412524Y533174D02*
X413568Y535785D01*
X412524Y533174D02*
X412496Y533108D01*
X412463Y533043D01*
X412428Y532980D01*
X412389Y532919D01*
X412347Y532860D01*
X412302Y532804D01*
X412254Y532750D01*
X412203Y532699D01*
X412150Y532650D01*
X412093Y532605D01*
X412035Y532562D01*
X411975Y532523D01*
X411912Y532486D01*
X411847Y532454D01*
X411781Y532425D01*
X411714Y532399D01*
X411645Y532377D01*
X411575Y532359D01*
X411504Y532344D01*
X411433Y532333D01*
X411361Y532326D01*
X411289Y532323D01*
X411217Y532324D01*
X411144Y532329D01*
X411073Y532337D01*
X411001Y532349D01*
X410931Y532365D01*
X410862Y532385D01*
X410793Y532409D01*
X410726Y532436D01*
X410661Y532466D01*
X410597Y532500D01*
X410535Y532538D01*
X410475Y532578D01*
X410418Y532622D01*
X410363Y532669D01*
X410310Y532719D01*
X410261Y532771D01*
X410214Y532826D01*
X410170Y532883D01*
X410129Y532943D01*
X410092Y533005D01*
X410057Y533069D01*
X410027Y533134D01*
X409999Y533201D01*
X409976Y533269D01*
X409956Y533339D01*
X409940Y533409D01*
X409927Y533480D01*
X409919Y533552D01*
X409914Y533624D01*
X409913Y533696D01*
X409914Y533697D02*
X409918Y533848D01*
X409926Y533999D01*
X409937Y534150D01*
X409953Y534301D01*
X409973Y534451D01*
X409996Y534601D01*
X410023Y534750D01*
X410054Y534898D01*
X410089Y535046D01*
X410127Y535192D01*
X410170Y535338D01*
X410216Y535482D01*
X410265Y535625D01*
X410318Y535767D01*
X410375Y535907D01*
X410436Y536046D01*
X413568Y535785D02*
X413596Y535851D01*
X413629Y535916D01*
X413664Y535979D01*
X413703Y536040D01*
X413745Y536099D01*
X413790Y536155D01*
X413838Y536209D01*
X413889Y536260D01*
X413942Y536309D01*
X413999Y536355D01*
X414057Y536397D01*
X414117Y536436D01*
X414180Y536473D01*
X414245Y536505D01*
X414311Y536534D01*
X414378Y536560D01*
X414447Y536582D01*
X414517Y536600D01*
X414588Y536615D01*
X414659Y536626D01*
X414731Y536633D01*
X414803Y536636D01*
X414875Y536635D01*
X414948Y536630D01*
X415019Y536622D01*
X415091Y536610D01*
X415161Y536594D01*
X415230Y536574D01*
X415299Y536550D01*
X415366Y536523D01*
X415431Y536493D01*
X415495Y536459D01*
X415557Y536421D01*
X415617Y536381D01*
X415674Y536337D01*
X415729Y536290D01*
X415782Y536240D01*
X415831Y536188D01*
X415878Y536133D01*
X415922Y536076D01*
X415963Y536016D01*
X416000Y535954D01*
X416035Y535890D01*
X416065Y535825D01*
X416093Y535758D01*
X416116Y535690D01*
X416136Y535620D01*
X416152Y535550D01*
X416165Y535479D01*
X416173Y535407D01*
X416178Y535335D01*
X416179Y535263D01*
X416174Y535053D01*
X416163Y534844D01*
X416148Y534635D01*
X416128Y534427D01*
X416102Y534219D01*
X416072Y534012D01*
X416037Y533805D01*
X415997Y533600D01*
X415953Y533395D01*
X415903Y533192D01*
X415849Y532989D01*
X415789Y532788D01*
X415726Y532589D01*
X415657Y532391D01*
X319659Y158637D02*
X312293Y158637D01*
X312293Y156591D02*
X312293Y160683D01*
X312293Y167920D02*
X319659Y163009D01*
X319659Y167920D02*
X312293Y163009D01*
X312293Y186634D02*
X319659Y186634D01*
X312293Y186634D02*
X312293Y188681D01*
X312295Y188770D01*
X312301Y188859D01*
X312311Y188948D01*
X312324Y189036D01*
X312341Y189124D01*
X312363Y189211D01*
X312388Y189296D01*
X312416Y189381D01*
X312449Y189464D01*
X312485Y189546D01*
X312524Y189626D01*
X312567Y189704D01*
X312613Y189780D01*
X312663Y189855D01*
X312716Y189927D01*
X312772Y189996D01*
X312831Y190063D01*
X312892Y190128D01*
X312957Y190189D01*
X313024Y190248D01*
X313093Y190304D01*
X313165Y190357D01*
X313240Y190407D01*
X313316Y190453D01*
X313394Y190496D01*
X313474Y190535D01*
X313556Y190571D01*
X313639Y190604D01*
X313724Y190632D01*
X313809Y190657D01*
X313896Y190679D01*
X313984Y190696D01*
X314072Y190709D01*
X314161Y190719D01*
X314250Y190725D01*
X314339Y190727D01*
X314428Y190725D01*
X314517Y190719D01*
X314606Y190709D01*
X314694Y190696D01*
X314782Y190679D01*
X314869Y190657D01*
X314954Y190632D01*
X315039Y190604D01*
X315122Y190571D01*
X315204Y190535D01*
X315284Y190496D01*
X315362Y190453D01*
X315438Y190407D01*
X315513Y190357D01*
X315585Y190304D01*
X315654Y190248D01*
X315721Y190189D01*
X315786Y190128D01*
X315847Y190063D01*
X315906Y189996D01*
X315962Y189927D01*
X316015Y189855D01*
X316065Y189780D01*
X316111Y189704D01*
X316154Y189626D01*
X316193Y189546D01*
X316229Y189464D01*
X316262Y189381D01*
X316290Y189296D01*
X316315Y189211D01*
X316337Y189124D01*
X316354Y189036D01*
X316367Y188948D01*
X316377Y188859D01*
X316383Y188770D01*
X316385Y188681D01*
X316385Y186634D01*
X316385Y189090D02*
X319659Y190727D01*
X319659Y193489D02*
X312293Y198400D01*
X312293Y193489D02*
X319659Y198400D01*
X315567Y212125D02*
X315567Y213353D01*
X319659Y213353D01*
X319659Y210897D01*
X319657Y210819D01*
X319652Y210741D01*
X319642Y210664D01*
X319629Y210587D01*
X319613Y210511D01*
X319593Y210436D01*
X319569Y210362D01*
X319542Y210289D01*
X319511Y210217D01*
X319477Y210147D01*
X319440Y210079D01*
X319399Y210012D01*
X319355Y209947D01*
X319309Y209885D01*
X319259Y209825D01*
X319207Y209767D01*
X319152Y209712D01*
X319094Y209660D01*
X319034Y209610D01*
X318972Y209564D01*
X318907Y209520D01*
X318841Y209479D01*
X318772Y209442D01*
X318702Y209408D01*
X318630Y209377D01*
X318557Y209350D01*
X318483Y209326D01*
X318408Y209306D01*
X318332Y209290D01*
X318255Y209277D01*
X318178Y209267D01*
X318100Y209262D01*
X318022Y209260D01*
X313930Y209260D01*
X313850Y209262D01*
X313770Y209268D01*
X313690Y209278D01*
X313611Y209291D01*
X313532Y209309D01*
X313455Y209330D01*
X313379Y209356D01*
X313304Y209385D01*
X313230Y209417D01*
X313158Y209453D01*
X313088Y209493D01*
X313021Y209536D01*
X312955Y209582D01*
X312892Y209632D01*
X312831Y209684D01*
X312772Y209739D01*
X312717Y209798D01*
X312665Y209858D01*
X312615Y209922D01*
X312569Y209987D01*
X312526Y210055D01*
X312486Y210125D01*
X312450Y210197D01*
X312418Y210271D01*
X312389Y210345D01*
X312364Y210422D01*
X312342Y210499D01*
X312324Y210578D01*
X312311Y210657D01*
X312301Y210736D01*
X312295Y210817D01*
X312293Y210897D01*
X312293Y213353D01*
X312293Y217063D02*
X319659Y217063D01*
X319659Y221155D02*
X312293Y217063D01*
X312293Y221155D02*
X319659Y221155D01*
X319659Y224866D02*
X312293Y224866D01*
X312293Y226912D01*
X312295Y227001D01*
X312301Y227090D01*
X312311Y227179D01*
X312324Y227267D01*
X312341Y227355D01*
X312363Y227442D01*
X312388Y227527D01*
X312416Y227612D01*
X312449Y227695D01*
X312485Y227777D01*
X312524Y227857D01*
X312567Y227935D01*
X312613Y228011D01*
X312663Y228086D01*
X312716Y228158D01*
X312772Y228227D01*
X312831Y228294D01*
X312892Y228359D01*
X312957Y228420D01*
X313024Y228479D01*
X313093Y228535D01*
X313165Y228588D01*
X313240Y228638D01*
X313316Y228684D01*
X313394Y228727D01*
X313474Y228766D01*
X313556Y228802D01*
X313639Y228835D01*
X313724Y228863D01*
X313809Y228888D01*
X313896Y228910D01*
X313984Y228927D01*
X314072Y228940D01*
X314161Y228950D01*
X314250Y228956D01*
X314339Y228958D01*
X317613Y228958D01*
X317702Y228956D01*
X317791Y228950D01*
X317880Y228940D01*
X317968Y228927D01*
X318056Y228910D01*
X318143Y228888D01*
X318228Y228863D01*
X318313Y228835D01*
X318396Y228802D01*
X318478Y228766D01*
X318558Y228727D01*
X318636Y228684D01*
X318712Y228638D01*
X318787Y228588D01*
X318859Y228535D01*
X318928Y228479D01*
X318995Y228420D01*
X319060Y228359D01*
X319121Y228294D01*
X319180Y228227D01*
X319236Y228158D01*
X319289Y228086D01*
X319339Y228011D01*
X319385Y227935D01*
X319428Y227857D01*
X319467Y227777D01*
X319503Y227695D01*
X319536Y227612D01*
X319564Y227527D01*
X319589Y227442D01*
X319611Y227355D01*
X319628Y227267D01*
X319641Y227179D01*
X319651Y227090D01*
X319657Y227001D01*
X319659Y226912D01*
X319659Y224866D01*
D10*
X300228Y476250D02*
X300228Y519430D01*
X261112Y476250D02*
X261114Y476128D01*
X261120Y476006D01*
X261130Y475884D01*
X261143Y475763D01*
X261161Y475642D01*
X261182Y475522D01*
X261208Y475402D01*
X261237Y475284D01*
X261269Y475166D01*
X261306Y475049D01*
X261346Y474934D01*
X261390Y474820D01*
X261438Y474708D01*
X261489Y474597D01*
X261544Y474488D01*
X261602Y474380D01*
X261664Y474275D01*
X261729Y474172D01*
X261797Y474070D01*
X261869Y473971D01*
X261943Y473875D01*
X262021Y473780D01*
X262102Y473689D01*
X262185Y473599D01*
X262271Y473513D01*
X262361Y473430D01*
X262452Y473349D01*
X262547Y473271D01*
X262643Y473197D01*
X262742Y473125D01*
X262844Y473057D01*
X262947Y472992D01*
X263052Y472930D01*
X263160Y472872D01*
X263269Y472817D01*
X263380Y472766D01*
X263492Y472718D01*
X263606Y472674D01*
X263721Y472634D01*
X263838Y472597D01*
X263956Y472565D01*
X264074Y472536D01*
X264194Y472510D01*
X264314Y472489D01*
X264435Y472471D01*
X264556Y472458D01*
X264678Y472448D01*
X264800Y472442D01*
X264922Y472440D01*
X300228Y519430D02*
X300226Y519552D01*
X300220Y519674D01*
X300210Y519796D01*
X300197Y519917D01*
X300179Y520038D01*
X300158Y520158D01*
X300132Y520278D01*
X300103Y520396D01*
X300071Y520514D01*
X300034Y520631D01*
X299994Y520746D01*
X299950Y520860D01*
X299902Y520972D01*
X299851Y521083D01*
X299796Y521192D01*
X299738Y521300D01*
X299676Y521405D01*
X299611Y521508D01*
X299543Y521610D01*
X299471Y521709D01*
X299397Y521805D01*
X299319Y521900D01*
X299238Y521991D01*
X299155Y522081D01*
X299069Y522167D01*
X298979Y522250D01*
X298888Y522331D01*
X298793Y522409D01*
X298697Y522483D01*
X298598Y522555D01*
X298496Y522623D01*
X298393Y522688D01*
X298288Y522750D01*
X298180Y522808D01*
X298071Y522863D01*
X297960Y522914D01*
X297848Y522962D01*
X297734Y523006D01*
X297619Y523046D01*
X297502Y523083D01*
X297384Y523115D01*
X297266Y523144D01*
X297146Y523170D01*
X297026Y523191D01*
X296905Y523209D01*
X296784Y523222D01*
X296662Y523232D01*
X296540Y523238D01*
X296418Y523240D01*
X300228Y476250D02*
X300226Y476128D01*
X300220Y476006D01*
X300210Y475884D01*
X300197Y475763D01*
X300179Y475642D01*
X300158Y475522D01*
X300132Y475402D01*
X300103Y475284D01*
X300071Y475166D01*
X300034Y475049D01*
X299994Y474934D01*
X299950Y474820D01*
X299902Y474708D01*
X299851Y474597D01*
X299796Y474488D01*
X299738Y474380D01*
X299676Y474275D01*
X299611Y474172D01*
X299543Y474070D01*
X299471Y473971D01*
X299397Y473875D01*
X299319Y473780D01*
X299238Y473689D01*
X299155Y473599D01*
X299069Y473513D01*
X298979Y473430D01*
X298888Y473349D01*
X298793Y473271D01*
X298697Y473197D01*
X298598Y473125D01*
X298496Y473057D01*
X298393Y472992D01*
X298288Y472930D01*
X298180Y472872D01*
X298071Y472817D01*
X297960Y472766D01*
X297848Y472718D01*
X297734Y472674D01*
X297619Y472634D01*
X297502Y472597D01*
X297384Y472565D01*
X297266Y472536D01*
X297146Y472510D01*
X297026Y472489D01*
X296905Y472471D01*
X296784Y472458D01*
X296662Y472448D01*
X296540Y472442D01*
X296418Y472440D01*
X261112Y519430D02*
X261114Y519552D01*
X261120Y519674D01*
X261130Y519796D01*
X261143Y519917D01*
X261161Y520038D01*
X261182Y520158D01*
X261208Y520278D01*
X261237Y520396D01*
X261269Y520514D01*
X261306Y520631D01*
X261346Y520746D01*
X261390Y520860D01*
X261438Y520972D01*
X261489Y521083D01*
X261544Y521192D01*
X261602Y521300D01*
X261664Y521405D01*
X261729Y521508D01*
X261797Y521610D01*
X261869Y521709D01*
X261943Y521805D01*
X262021Y521900D01*
X262102Y521991D01*
X262185Y522081D01*
X262271Y522167D01*
X262361Y522250D01*
X262452Y522331D01*
X262547Y522409D01*
X262643Y522483D01*
X262742Y522555D01*
X262844Y522623D01*
X262947Y522688D01*
X263052Y522750D01*
X263160Y522808D01*
X263269Y522863D01*
X263380Y522914D01*
X263492Y522962D01*
X263606Y523006D01*
X263721Y523046D01*
X263838Y523083D01*
X263956Y523115D01*
X264074Y523144D01*
X264194Y523170D01*
X264314Y523191D01*
X264435Y523209D01*
X264556Y523222D01*
X264678Y523232D01*
X264800Y523238D01*
X264922Y523240D01*
X261112Y519430D02*
X261112Y476250D01*
X264922Y472440D02*
X296418Y472440D01*
X296418Y523240D02*
X264922Y523240D01*
X275590Y523240D02*
X275592Y523099D01*
X275598Y522958D01*
X275608Y522817D01*
X275621Y522676D01*
X275639Y522536D01*
X275661Y522397D01*
X275686Y522258D01*
X275715Y522119D01*
X275748Y521982D01*
X275785Y521846D01*
X275826Y521711D01*
X275870Y521576D01*
X275918Y521444D01*
X275970Y521312D01*
X276025Y521182D01*
X276084Y521054D01*
X276147Y520927D01*
X276213Y520803D01*
X276282Y520680D01*
X276355Y520559D01*
X276431Y520440D01*
X276511Y520323D01*
X276594Y520209D01*
X276679Y520096D01*
X276768Y519987D01*
X276860Y519879D01*
X276955Y519775D01*
X277053Y519673D01*
X277154Y519574D01*
X277257Y519477D01*
X277363Y519384D01*
X277471Y519294D01*
X277582Y519206D01*
X277695Y519122D01*
X277811Y519041D01*
X277929Y518963D01*
X278049Y518888D01*
X278171Y518817D01*
X278295Y518749D01*
X278421Y518685D01*
X278548Y518624D01*
X278677Y518567D01*
X278808Y518514D01*
X278940Y518464D01*
X279073Y518417D01*
X279208Y518375D01*
X279344Y518336D01*
X279481Y518301D01*
X279618Y518270D01*
X279757Y518243D01*
X279896Y518219D01*
X280036Y518200D01*
X280176Y518184D01*
X280317Y518172D01*
X280458Y518164D01*
X280599Y518160D01*
X280741Y518160D01*
X280882Y518164D01*
X281023Y518172D01*
X281164Y518184D01*
X281304Y518200D01*
X281444Y518219D01*
X281583Y518243D01*
X281722Y518270D01*
X281859Y518301D01*
X281996Y518336D01*
X282132Y518375D01*
X282267Y518417D01*
X282400Y518464D01*
X282532Y518514D01*
X282663Y518567D01*
X282792Y518624D01*
X282919Y518685D01*
X283045Y518749D01*
X283169Y518817D01*
X283291Y518888D01*
X283411Y518963D01*
X283529Y519041D01*
X283645Y519122D01*
X283758Y519206D01*
X283869Y519294D01*
X283977Y519384D01*
X284083Y519477D01*
X284186Y519574D01*
X284287Y519673D01*
X284385Y519775D01*
X284480Y519879D01*
X284572Y519987D01*
X284661Y520096D01*
X284746Y520209D01*
X284829Y520323D01*
X284909Y520440D01*
X284985Y520559D01*
X285058Y520680D01*
X285127Y520803D01*
X285193Y520927D01*
X285256Y521054D01*
X285315Y521182D01*
X285370Y521312D01*
X285422Y521444D01*
X285470Y521576D01*
X285514Y521711D01*
X285555Y521846D01*
X285592Y521982D01*
X285625Y522119D01*
X285654Y522258D01*
X285679Y522397D01*
X285701Y522536D01*
X285719Y522676D01*
X285732Y522817D01*
X285742Y522958D01*
X285748Y523099D01*
X285750Y523240D01*
D12*
X271145Y503555D02*
X271145Y495300D01*
X271147Y495189D01*
X271153Y495079D01*
X271162Y494968D01*
X271176Y494858D01*
X271193Y494749D01*
X271214Y494640D01*
X271239Y494532D01*
X271268Y494425D01*
X271300Y494319D01*
X271336Y494214D01*
X271376Y494111D01*
X271419Y494009D01*
X271466Y493908D01*
X271517Y493809D01*
X271570Y493713D01*
X271627Y493618D01*
X271688Y493525D01*
X271751Y493434D01*
X271818Y493345D01*
X271888Y493259D01*
X271961Y493176D01*
X272036Y493094D01*
X272114Y493016D01*
X272196Y492941D01*
X272279Y492868D01*
X272365Y492798D01*
X272454Y492731D01*
X272545Y492668D01*
X272638Y492607D01*
X272733Y492550D01*
X272829Y492497D01*
X272928Y492446D01*
X273029Y492399D01*
X273131Y492356D01*
X273234Y492316D01*
X273339Y492280D01*
X273445Y492248D01*
X273552Y492219D01*
X273660Y492194D01*
X273769Y492173D01*
X273878Y492156D01*
X273988Y492142D01*
X274099Y492133D01*
X274209Y492127D01*
X274320Y492125D01*
X274431Y492127D01*
X274541Y492133D01*
X274652Y492142D01*
X274762Y492156D01*
X274871Y492173D01*
X274980Y492194D01*
X275088Y492219D01*
X275195Y492248D01*
X275301Y492280D01*
X275406Y492316D01*
X275509Y492356D01*
X275611Y492399D01*
X275712Y492446D01*
X275811Y492497D01*
X275907Y492550D01*
X276002Y492607D01*
X276095Y492668D01*
X276186Y492731D01*
X276275Y492798D01*
X276361Y492868D01*
X276444Y492941D01*
X276526Y493016D01*
X276604Y493094D01*
X276679Y493176D01*
X276752Y493259D01*
X276822Y493345D01*
X276889Y493434D01*
X276952Y493525D01*
X277013Y493618D01*
X277070Y493712D01*
X277123Y493809D01*
X277174Y493908D01*
X277221Y494009D01*
X277264Y494111D01*
X277304Y494214D01*
X277340Y494319D01*
X277372Y494425D01*
X277401Y494532D01*
X277426Y494640D01*
X277447Y494749D01*
X277464Y494858D01*
X277478Y494968D01*
X277487Y495079D01*
X277493Y495189D01*
X277495Y495300D01*
X277495Y503555D01*
X282956Y501015D02*
X286131Y503555D01*
X286131Y492125D01*
X282956Y492125D02*
X289306Y492125D01*
D13*
X365252Y79361D02*
X365252Y76764D01*
X365250Y76665D01*
X365244Y76565D01*
X365235Y76466D01*
X365222Y76368D01*
X365205Y76270D01*
X365184Y76172D01*
X365159Y76076D01*
X365131Y75981D01*
X365099Y75887D01*
X365064Y75794D01*
X365025Y75702D01*
X364982Y75612D01*
X364937Y75524D01*
X364887Y75437D01*
X364835Y75353D01*
X364779Y75270D01*
X364721Y75190D01*
X364659Y75112D01*
X364594Y75037D01*
X364526Y74964D01*
X364456Y74894D01*
X364383Y74826D01*
X364308Y74761D01*
X364230Y74699D01*
X364150Y74641D01*
X364067Y74585D01*
X363983Y74533D01*
X363896Y74483D01*
X363808Y74438D01*
X363718Y74395D01*
X363626Y74356D01*
X363533Y74321D01*
X363439Y74289D01*
X363344Y74261D01*
X363248Y74236D01*
X363150Y74215D01*
X363052Y74198D01*
X362954Y74185D01*
X362855Y74176D01*
X362755Y74170D01*
X362656Y74168D01*
X356164Y74168D01*
X356065Y74170D01*
X355965Y74176D01*
X355866Y74185D01*
X355768Y74198D01*
X355670Y74216D01*
X355572Y74236D01*
X355476Y74261D01*
X355380Y74289D01*
X355286Y74321D01*
X355193Y74356D01*
X355102Y74395D01*
X355012Y74438D01*
X354923Y74483D01*
X354837Y74533D01*
X354752Y74585D01*
X354670Y74641D01*
X354590Y74700D01*
X354512Y74761D01*
X354436Y74826D01*
X354363Y74894D01*
X354293Y74964D01*
X354225Y75037D01*
X354160Y75113D01*
X354099Y75191D01*
X354040Y75271D01*
X353984Y75353D01*
X353932Y75438D01*
X353883Y75524D01*
X353837Y75613D01*
X353794Y75703D01*
X353755Y75794D01*
X353720Y75887D01*
X353688Y75981D01*
X353660Y76077D01*
X353635Y76173D01*
X353615Y76271D01*
X353597Y76369D01*
X353584Y76467D01*
X353575Y76566D01*
X353569Y76665D01*
X353567Y76765D01*
X353568Y76764D02*
X353568Y79361D01*
X356164Y83726D02*
X353568Y86972D01*
X365252Y86972D01*
X365252Y90217D02*
X365252Y83726D01*
X245731Y72898D02*
X243134Y72898D01*
X243035Y72900D01*
X242935Y72906D01*
X242836Y72915D01*
X242738Y72928D01*
X242640Y72945D01*
X242542Y72966D01*
X242446Y72991D01*
X242351Y73019D01*
X242257Y73051D01*
X242164Y73086D01*
X242072Y73125D01*
X241982Y73168D01*
X241894Y73213D01*
X241807Y73263D01*
X241723Y73315D01*
X241640Y73371D01*
X241560Y73429D01*
X241482Y73491D01*
X241407Y73556D01*
X241334Y73624D01*
X241264Y73694D01*
X241196Y73767D01*
X241131Y73842D01*
X241069Y73920D01*
X241011Y74000D01*
X240955Y74083D01*
X240903Y74167D01*
X240853Y74254D01*
X240808Y74342D01*
X240765Y74432D01*
X240726Y74524D01*
X240691Y74617D01*
X240659Y74711D01*
X240631Y74806D01*
X240606Y74902D01*
X240585Y75000D01*
X240568Y75098D01*
X240555Y75196D01*
X240546Y75295D01*
X240540Y75395D01*
X240538Y75494D01*
X240538Y81986D01*
X240540Y82085D01*
X240546Y82185D01*
X240555Y82284D01*
X240568Y82382D01*
X240585Y82480D01*
X240606Y82578D01*
X240631Y82674D01*
X240659Y82769D01*
X240691Y82863D01*
X240726Y82956D01*
X240765Y83048D01*
X240808Y83138D01*
X240853Y83226D01*
X240903Y83313D01*
X240955Y83397D01*
X241011Y83480D01*
X241069Y83560D01*
X241131Y83638D01*
X241196Y83713D01*
X241264Y83786D01*
X241334Y83856D01*
X241407Y83924D01*
X241482Y83989D01*
X241560Y84051D01*
X241640Y84109D01*
X241723Y84165D01*
X241807Y84217D01*
X241894Y84267D01*
X241982Y84312D01*
X242072Y84355D01*
X242164Y84394D01*
X242256Y84429D01*
X242351Y84461D01*
X242446Y84489D01*
X242542Y84514D01*
X242640Y84535D01*
X242738Y84552D01*
X242836Y84565D01*
X242935Y84574D01*
X243035Y84580D01*
X243134Y84582D01*
X245731Y84582D01*
X253666Y84582D02*
X253773Y84580D01*
X253879Y84574D01*
X253985Y84564D01*
X254091Y84551D01*
X254197Y84533D01*
X254301Y84512D01*
X254405Y84487D01*
X254508Y84458D01*
X254609Y84426D01*
X254709Y84389D01*
X254808Y84349D01*
X254906Y84306D01*
X255002Y84259D01*
X255096Y84208D01*
X255188Y84154D01*
X255278Y84097D01*
X255366Y84037D01*
X255451Y83973D01*
X255534Y83906D01*
X255615Y83836D01*
X255693Y83764D01*
X255769Y83688D01*
X255841Y83610D01*
X255911Y83529D01*
X255978Y83446D01*
X256042Y83361D01*
X256102Y83273D01*
X256159Y83183D01*
X256213Y83091D01*
X256264Y82997D01*
X256311Y82901D01*
X256354Y82803D01*
X256394Y82704D01*
X256431Y82604D01*
X256463Y82503D01*
X256492Y82400D01*
X256517Y82296D01*
X256538Y82192D01*
X256556Y82086D01*
X256569Y81980D01*
X256579Y81874D01*
X256585Y81768D01*
X256587Y81661D01*
X253666Y84582D02*
X253545Y84580D01*
X253424Y84574D01*
X253304Y84564D01*
X253183Y84551D01*
X253064Y84533D01*
X252944Y84512D01*
X252826Y84487D01*
X252709Y84458D01*
X252592Y84425D01*
X252477Y84389D01*
X252363Y84348D01*
X252250Y84305D01*
X252138Y84257D01*
X252029Y84206D01*
X251921Y84151D01*
X251814Y84093D01*
X251710Y84032D01*
X251608Y83967D01*
X251508Y83899D01*
X251410Y83828D01*
X251314Y83754D01*
X251221Y83677D01*
X251131Y83596D01*
X251043Y83513D01*
X250958Y83427D01*
X250875Y83338D01*
X250796Y83247D01*
X250719Y83153D01*
X250646Y83057D01*
X250576Y82959D01*
X250509Y82858D01*
X250445Y82755D01*
X250385Y82650D01*
X250328Y82543D01*
X250274Y82435D01*
X250224Y82325D01*
X250178Y82213D01*
X250135Y82100D01*
X250096Y81985D01*
X255614Y79389D02*
X255693Y79466D01*
X255769Y79547D01*
X255842Y79630D01*
X255912Y79715D01*
X255979Y79803D01*
X256043Y79893D01*
X256103Y79985D01*
X256160Y80080D01*
X256214Y80176D01*
X256265Y80274D01*
X256312Y80374D01*
X256356Y80476D01*
X256396Y80579D01*
X256432Y80683D01*
X256464Y80789D01*
X256493Y80895D01*
X256518Y81003D01*
X256540Y81111D01*
X256557Y81221D01*
X256571Y81330D01*
X256580Y81440D01*
X256586Y81551D01*
X256588Y81661D01*
X255614Y79389D02*
X250096Y72898D01*
X256587Y72898D01*
X346004Y53848D02*
X348601Y53848D01*
X346004Y53848D02*
X345905Y53850D01*
X345805Y53856D01*
X345706Y53865D01*
X345608Y53878D01*
X345510Y53895D01*
X345412Y53916D01*
X345316Y53941D01*
X345221Y53969D01*
X345127Y54001D01*
X345034Y54036D01*
X344942Y54075D01*
X344852Y54118D01*
X344764Y54163D01*
X344677Y54213D01*
X344593Y54265D01*
X344510Y54321D01*
X344430Y54379D01*
X344352Y54441D01*
X344277Y54506D01*
X344204Y54574D01*
X344134Y54644D01*
X344066Y54717D01*
X344001Y54792D01*
X343939Y54870D01*
X343881Y54950D01*
X343825Y55033D01*
X343773Y55117D01*
X343723Y55204D01*
X343678Y55292D01*
X343635Y55382D01*
X343596Y55474D01*
X343561Y55567D01*
X343529Y55661D01*
X343501Y55756D01*
X343476Y55852D01*
X343455Y55950D01*
X343438Y56048D01*
X343425Y56146D01*
X343416Y56245D01*
X343410Y56345D01*
X343408Y56444D01*
X343408Y62936D01*
X343410Y63035D01*
X343416Y63135D01*
X343425Y63234D01*
X343438Y63332D01*
X343455Y63430D01*
X343476Y63528D01*
X343501Y63624D01*
X343529Y63719D01*
X343561Y63813D01*
X343596Y63906D01*
X343635Y63998D01*
X343678Y64088D01*
X343723Y64176D01*
X343773Y64263D01*
X343825Y64347D01*
X343881Y64430D01*
X343939Y64510D01*
X344001Y64588D01*
X344066Y64663D01*
X344134Y64736D01*
X344204Y64806D01*
X344277Y64874D01*
X344352Y64939D01*
X344430Y65001D01*
X344510Y65059D01*
X344593Y65115D01*
X344677Y65167D01*
X344764Y65217D01*
X344852Y65262D01*
X344942Y65305D01*
X345034Y65344D01*
X345126Y65379D01*
X345221Y65411D01*
X345316Y65439D01*
X345412Y65464D01*
X345510Y65485D01*
X345608Y65502D01*
X345706Y65515D01*
X345805Y65524D01*
X345905Y65530D01*
X346004Y65532D01*
X348601Y65532D01*
X352966Y53848D02*
X356212Y53848D01*
X356325Y53850D01*
X356438Y53856D01*
X356551Y53866D01*
X356664Y53880D01*
X356776Y53897D01*
X356887Y53919D01*
X356997Y53944D01*
X357107Y53974D01*
X357215Y54007D01*
X357322Y54044D01*
X357428Y54084D01*
X357532Y54129D01*
X357635Y54177D01*
X357736Y54228D01*
X357835Y54283D01*
X357932Y54341D01*
X358027Y54403D01*
X358120Y54468D01*
X358210Y54536D01*
X358298Y54607D01*
X358384Y54682D01*
X358467Y54759D01*
X358547Y54839D01*
X358624Y54922D01*
X358699Y55008D01*
X358770Y55096D01*
X358838Y55186D01*
X358903Y55279D01*
X358965Y55374D01*
X359023Y55471D01*
X359078Y55570D01*
X359129Y55671D01*
X359177Y55774D01*
X359222Y55878D01*
X359262Y55984D01*
X359299Y56091D01*
X359332Y56199D01*
X359362Y56309D01*
X359387Y56419D01*
X359409Y56530D01*
X359426Y56642D01*
X359440Y56755D01*
X359450Y56868D01*
X359456Y56981D01*
X359458Y57094D01*
X359456Y57207D01*
X359450Y57320D01*
X359440Y57433D01*
X359426Y57546D01*
X359409Y57658D01*
X359387Y57769D01*
X359362Y57879D01*
X359332Y57989D01*
X359299Y58097D01*
X359262Y58204D01*
X359222Y58310D01*
X359177Y58414D01*
X359129Y58517D01*
X359078Y58618D01*
X359023Y58717D01*
X358965Y58814D01*
X358903Y58909D01*
X358838Y59002D01*
X358770Y59092D01*
X358699Y59180D01*
X358624Y59266D01*
X358547Y59349D01*
X358467Y59429D01*
X358384Y59506D01*
X358298Y59581D01*
X358210Y59652D01*
X358120Y59720D01*
X358027Y59785D01*
X357932Y59847D01*
X357835Y59905D01*
X357736Y59960D01*
X357635Y60011D01*
X357532Y60059D01*
X357428Y60104D01*
X357322Y60144D01*
X357215Y60181D01*
X357107Y60214D01*
X356997Y60244D01*
X356887Y60269D01*
X356776Y60291D01*
X356664Y60308D01*
X356551Y60322D01*
X356438Y60332D01*
X356325Y60338D01*
X356212Y60340D01*
X356861Y65532D02*
X352966Y65532D01*
X356861Y65532D02*
X356962Y65530D01*
X357062Y65524D01*
X357162Y65514D01*
X357262Y65501D01*
X357361Y65483D01*
X357460Y65462D01*
X357557Y65437D01*
X357654Y65408D01*
X357749Y65375D01*
X357843Y65339D01*
X357935Y65299D01*
X358026Y65256D01*
X358115Y65209D01*
X358202Y65159D01*
X358288Y65105D01*
X358371Y65048D01*
X358451Y64988D01*
X358530Y64925D01*
X358606Y64858D01*
X358679Y64789D01*
X358749Y64717D01*
X358817Y64643D01*
X358882Y64566D01*
X358943Y64486D01*
X359002Y64404D01*
X359057Y64320D01*
X359109Y64234D01*
X359158Y64146D01*
X359203Y64056D01*
X359245Y63964D01*
X359283Y63871D01*
X359317Y63776D01*
X359348Y63681D01*
X359375Y63584D01*
X359398Y63486D01*
X359418Y63387D01*
X359433Y63287D01*
X359445Y63187D01*
X359453Y63087D01*
X359457Y62986D01*
X359457Y62886D01*
X359453Y62785D01*
X359445Y62685D01*
X359433Y62585D01*
X359418Y62485D01*
X359398Y62386D01*
X359375Y62288D01*
X359348Y62191D01*
X359317Y62096D01*
X359283Y62001D01*
X359245Y61908D01*
X359203Y61816D01*
X359158Y61726D01*
X359109Y61638D01*
X359057Y61552D01*
X359002Y61468D01*
X358943Y61386D01*
X358882Y61306D01*
X358817Y61229D01*
X358749Y61155D01*
X358679Y61083D01*
X358606Y61014D01*
X358530Y60947D01*
X358451Y60884D01*
X358371Y60824D01*
X358288Y60767D01*
X358202Y60713D01*
X358115Y60663D01*
X358026Y60616D01*
X357935Y60573D01*
X357843Y60533D01*
X357749Y60497D01*
X357654Y60464D01*
X357557Y60435D01*
X357460Y60410D01*
X357361Y60389D01*
X357262Y60371D01*
X357162Y60358D01*
X357062Y60348D01*
X356962Y60342D01*
X356861Y60340D01*
X356861Y60339D02*
X354264Y60339D01*
D11*
X241156Y354711D02*
X241156Y362839D01*
X243414Y362839D01*
X243507Y362837D01*
X243600Y362831D01*
X243693Y362822D01*
X243786Y362808D01*
X243877Y362791D01*
X243968Y362770D01*
X244058Y362745D01*
X244147Y362717D01*
X244235Y362685D01*
X244321Y362649D01*
X244406Y362610D01*
X244489Y362567D01*
X244570Y362521D01*
X244649Y362471D01*
X244726Y362419D01*
X244801Y362363D01*
X244873Y362304D01*
X244943Y362242D01*
X245011Y362178D01*
X245075Y362110D01*
X245137Y362040D01*
X245196Y361968D01*
X245252Y361893D01*
X245304Y361816D01*
X245354Y361737D01*
X245400Y361656D01*
X245443Y361573D01*
X245482Y361488D01*
X245518Y361402D01*
X245550Y361314D01*
X245578Y361225D01*
X245603Y361135D01*
X245624Y361044D01*
X245641Y360953D01*
X245655Y360860D01*
X245664Y360767D01*
X245670Y360674D01*
X245672Y360581D01*
X245670Y360488D01*
X245664Y360395D01*
X245655Y360302D01*
X245641Y360209D01*
X245624Y360118D01*
X245603Y360027D01*
X245578Y359937D01*
X245550Y359848D01*
X245518Y359760D01*
X245482Y359674D01*
X245443Y359589D01*
X245400Y359506D01*
X245354Y359425D01*
X245304Y359346D01*
X245252Y359269D01*
X245196Y359194D01*
X245137Y359122D01*
X245075Y359052D01*
X245011Y358984D01*
X244943Y358920D01*
X244873Y358858D01*
X244801Y358799D01*
X244726Y358743D01*
X244649Y358691D01*
X244570Y358641D01*
X244489Y358595D01*
X244406Y358552D01*
X244321Y358513D01*
X244235Y358477D01*
X244147Y358445D01*
X244058Y358417D01*
X243968Y358392D01*
X243877Y358371D01*
X243786Y358354D01*
X243693Y358340D01*
X243600Y358331D01*
X243507Y358325D01*
X243414Y358323D01*
X241156Y358323D01*
X243865Y358323D02*
X245671Y354711D01*
X249103Y361033D02*
X251361Y362839D01*
X251361Y354711D01*
X249103Y354711D02*
X253619Y354711D01*
X351646Y187579D02*
X351646Y179451D01*
X351646Y187579D02*
X353904Y187579D01*
X353997Y187577D01*
X354090Y187571D01*
X354183Y187562D01*
X354276Y187548D01*
X354367Y187531D01*
X354458Y187510D01*
X354548Y187485D01*
X354637Y187457D01*
X354725Y187425D01*
X354811Y187389D01*
X354896Y187350D01*
X354979Y187307D01*
X355060Y187261D01*
X355139Y187211D01*
X355216Y187159D01*
X355291Y187103D01*
X355363Y187044D01*
X355433Y186982D01*
X355501Y186918D01*
X355565Y186850D01*
X355627Y186780D01*
X355686Y186708D01*
X355742Y186633D01*
X355794Y186556D01*
X355844Y186477D01*
X355890Y186396D01*
X355933Y186313D01*
X355972Y186228D01*
X356008Y186142D01*
X356040Y186054D01*
X356068Y185965D01*
X356093Y185875D01*
X356114Y185784D01*
X356131Y185693D01*
X356145Y185600D01*
X356154Y185507D01*
X356160Y185414D01*
X356162Y185321D01*
X356160Y185228D01*
X356154Y185135D01*
X356145Y185042D01*
X356131Y184949D01*
X356114Y184858D01*
X356093Y184767D01*
X356068Y184677D01*
X356040Y184588D01*
X356008Y184500D01*
X355972Y184414D01*
X355933Y184329D01*
X355890Y184246D01*
X355844Y184165D01*
X355794Y184086D01*
X355742Y184009D01*
X355686Y183934D01*
X355627Y183862D01*
X355565Y183792D01*
X355501Y183724D01*
X355433Y183660D01*
X355363Y183598D01*
X355291Y183539D01*
X355216Y183483D01*
X355139Y183431D01*
X355060Y183381D01*
X354979Y183335D01*
X354896Y183292D01*
X354811Y183253D01*
X354725Y183217D01*
X354637Y183185D01*
X354548Y183157D01*
X354458Y183132D01*
X354367Y183111D01*
X354276Y183094D01*
X354183Y183080D01*
X354090Y183071D01*
X353997Y183065D01*
X353904Y183063D01*
X351646Y183063D01*
X354355Y183063D02*
X356161Y179451D01*
X364109Y185547D02*
X364107Y185636D01*
X364101Y185724D01*
X364092Y185812D01*
X364078Y185900D01*
X364061Y185987D01*
X364040Y186073D01*
X364015Y186158D01*
X363986Y186242D01*
X363954Y186325D01*
X363919Y186406D01*
X363879Y186485D01*
X363837Y186563D01*
X363791Y186639D01*
X363742Y186713D01*
X363689Y186784D01*
X363634Y186853D01*
X363575Y186920D01*
X363514Y186984D01*
X363450Y187045D01*
X363383Y187104D01*
X363314Y187159D01*
X363243Y187212D01*
X363169Y187261D01*
X363093Y187307D01*
X363015Y187349D01*
X362936Y187389D01*
X362855Y187424D01*
X362772Y187456D01*
X362688Y187485D01*
X362603Y187510D01*
X362517Y187531D01*
X362430Y187548D01*
X362342Y187562D01*
X362254Y187571D01*
X362166Y187577D01*
X362077Y187579D01*
X361978Y187577D01*
X361878Y187571D01*
X361779Y187562D01*
X361681Y187549D01*
X361582Y187532D01*
X361485Y187511D01*
X361389Y187487D01*
X361293Y187459D01*
X361199Y187427D01*
X361106Y187392D01*
X361014Y187353D01*
X360924Y187311D01*
X360836Y187265D01*
X360749Y187216D01*
X360664Y187164D01*
X360582Y187108D01*
X360501Y187050D01*
X360423Y186988D01*
X360347Y186924D01*
X360274Y186857D01*
X360203Y186787D01*
X360136Y186714D01*
X360070Y186639D01*
X360008Y186561D01*
X359949Y186481D01*
X359893Y186399D01*
X359840Y186315D01*
X359790Y186228D01*
X359744Y186140D01*
X359701Y186051D01*
X359661Y185959D01*
X359625Y185866D01*
X359593Y185772D01*
X363432Y183966D02*
X363498Y184032D01*
X363561Y184100D01*
X363621Y184171D01*
X363678Y184245D01*
X363732Y184320D01*
X363782Y184398D01*
X363830Y184479D01*
X363873Y184561D01*
X363914Y184645D01*
X363950Y184730D01*
X363983Y184817D01*
X364013Y184905D01*
X364038Y184995D01*
X364060Y185085D01*
X364077Y185177D01*
X364091Y185269D01*
X364101Y185361D01*
X364107Y185454D01*
X364109Y185547D01*
X363432Y183967D02*
X359593Y179451D01*
X364109Y179451D01*
X238616Y179959D02*
X238616Y171831D01*
X238616Y179959D02*
X240874Y179959D01*
X240967Y179957D01*
X241060Y179951D01*
X241153Y179942D01*
X241246Y179928D01*
X241337Y179911D01*
X241428Y179890D01*
X241518Y179865D01*
X241607Y179837D01*
X241695Y179805D01*
X241781Y179769D01*
X241866Y179730D01*
X241949Y179687D01*
X242030Y179641D01*
X242109Y179591D01*
X242186Y179539D01*
X242261Y179483D01*
X242333Y179424D01*
X242403Y179362D01*
X242471Y179298D01*
X242535Y179230D01*
X242597Y179160D01*
X242656Y179088D01*
X242712Y179013D01*
X242764Y178936D01*
X242814Y178857D01*
X242860Y178776D01*
X242903Y178693D01*
X242942Y178608D01*
X242978Y178522D01*
X243010Y178434D01*
X243038Y178345D01*
X243063Y178255D01*
X243084Y178164D01*
X243101Y178073D01*
X243115Y177980D01*
X243124Y177887D01*
X243130Y177794D01*
X243132Y177701D01*
X243130Y177608D01*
X243124Y177515D01*
X243115Y177422D01*
X243101Y177329D01*
X243084Y177238D01*
X243063Y177147D01*
X243038Y177057D01*
X243010Y176968D01*
X242978Y176880D01*
X242942Y176794D01*
X242903Y176709D01*
X242860Y176626D01*
X242814Y176545D01*
X242764Y176466D01*
X242712Y176389D01*
X242656Y176314D01*
X242597Y176242D01*
X242535Y176172D01*
X242471Y176104D01*
X242403Y176040D01*
X242333Y175978D01*
X242261Y175919D01*
X242186Y175863D01*
X242109Y175811D01*
X242030Y175761D01*
X241949Y175715D01*
X241866Y175672D01*
X241781Y175633D01*
X241695Y175597D01*
X241607Y175565D01*
X241518Y175537D01*
X241428Y175512D01*
X241337Y175491D01*
X241246Y175474D01*
X241153Y175460D01*
X241060Y175451D01*
X240967Y175445D01*
X240874Y175443D01*
X238616Y175443D01*
X241325Y175443D02*
X243131Y171831D01*
X246563Y171831D02*
X248821Y171831D01*
X248914Y171833D01*
X249007Y171839D01*
X249100Y171848D01*
X249193Y171862D01*
X249284Y171879D01*
X249375Y171900D01*
X249465Y171925D01*
X249554Y171953D01*
X249642Y171985D01*
X249728Y172021D01*
X249813Y172060D01*
X249896Y172103D01*
X249977Y172149D01*
X250056Y172199D01*
X250133Y172251D01*
X250208Y172307D01*
X250280Y172366D01*
X250350Y172428D01*
X250418Y172492D01*
X250482Y172560D01*
X250544Y172630D01*
X250603Y172702D01*
X250659Y172777D01*
X250711Y172854D01*
X250761Y172933D01*
X250807Y173014D01*
X250850Y173097D01*
X250889Y173182D01*
X250925Y173268D01*
X250957Y173356D01*
X250985Y173445D01*
X251010Y173535D01*
X251031Y173626D01*
X251048Y173717D01*
X251062Y173810D01*
X251071Y173903D01*
X251077Y173996D01*
X251079Y174089D01*
X251077Y174182D01*
X251071Y174275D01*
X251062Y174368D01*
X251048Y174461D01*
X251031Y174552D01*
X251010Y174643D01*
X250985Y174733D01*
X250957Y174822D01*
X250925Y174910D01*
X250889Y174996D01*
X250850Y175081D01*
X250807Y175164D01*
X250761Y175245D01*
X250711Y175324D01*
X250659Y175401D01*
X250603Y175476D01*
X250544Y175548D01*
X250482Y175618D01*
X250418Y175686D01*
X250350Y175750D01*
X250280Y175812D01*
X250208Y175871D01*
X250133Y175927D01*
X250056Y175979D01*
X249977Y176029D01*
X249896Y176075D01*
X249813Y176118D01*
X249728Y176157D01*
X249642Y176193D01*
X249554Y176225D01*
X249465Y176253D01*
X249375Y176278D01*
X249284Y176299D01*
X249193Y176316D01*
X249100Y176330D01*
X249007Y176339D01*
X248914Y176345D01*
X248821Y176347D01*
X249273Y179959D02*
X246563Y179959D01*
X249273Y179959D02*
X249356Y179957D01*
X249440Y179951D01*
X249523Y179942D01*
X249605Y179928D01*
X249686Y179911D01*
X249767Y179890D01*
X249847Y179865D01*
X249925Y179837D01*
X250002Y179805D01*
X250078Y179770D01*
X250152Y179731D01*
X250224Y179688D01*
X250294Y179643D01*
X250361Y179594D01*
X250427Y179542D01*
X250490Y179488D01*
X250550Y179430D01*
X250608Y179370D01*
X250662Y179307D01*
X250714Y179241D01*
X250763Y179174D01*
X250808Y179104D01*
X250851Y179032D01*
X250890Y178958D01*
X250925Y178882D01*
X250957Y178805D01*
X250985Y178727D01*
X251010Y178647D01*
X251031Y178566D01*
X251048Y178485D01*
X251062Y178403D01*
X251071Y178320D01*
X251077Y178236D01*
X251079Y178153D01*
X251077Y178070D01*
X251071Y177986D01*
X251062Y177903D01*
X251048Y177821D01*
X251031Y177740D01*
X251010Y177659D01*
X250985Y177579D01*
X250957Y177501D01*
X250925Y177424D01*
X250890Y177348D01*
X250851Y177274D01*
X250808Y177202D01*
X250763Y177132D01*
X250714Y177065D01*
X250662Y176999D01*
X250608Y176936D01*
X250550Y176876D01*
X250490Y176818D01*
X250427Y176764D01*
X250361Y176712D01*
X250294Y176663D01*
X250224Y176618D01*
X250152Y176575D01*
X250078Y176536D01*
X250002Y176501D01*
X249925Y176469D01*
X249847Y176441D01*
X249767Y176416D01*
X249686Y176395D01*
X249605Y176378D01*
X249523Y176364D01*
X249440Y176355D01*
X249356Y176349D01*
X249273Y176347D01*
X247467Y176347D01*
X241156Y226441D02*
X241156Y234569D01*
X243414Y234569D01*
X243507Y234567D01*
X243600Y234561D01*
X243693Y234552D01*
X243786Y234538D01*
X243877Y234521D01*
X243968Y234500D01*
X244058Y234475D01*
X244147Y234447D01*
X244235Y234415D01*
X244321Y234379D01*
X244406Y234340D01*
X244489Y234297D01*
X244570Y234251D01*
X244649Y234201D01*
X244726Y234149D01*
X244801Y234093D01*
X244873Y234034D01*
X244943Y233972D01*
X245011Y233908D01*
X245075Y233840D01*
X245137Y233770D01*
X245196Y233698D01*
X245252Y233623D01*
X245304Y233546D01*
X245354Y233467D01*
X245400Y233386D01*
X245443Y233303D01*
X245482Y233218D01*
X245518Y233132D01*
X245550Y233044D01*
X245578Y232955D01*
X245603Y232865D01*
X245624Y232774D01*
X245641Y232683D01*
X245655Y232590D01*
X245664Y232497D01*
X245670Y232404D01*
X245672Y232311D01*
X245670Y232218D01*
X245664Y232125D01*
X245655Y232032D01*
X245641Y231939D01*
X245624Y231848D01*
X245603Y231757D01*
X245578Y231667D01*
X245550Y231578D01*
X245518Y231490D01*
X245482Y231404D01*
X245443Y231319D01*
X245400Y231236D01*
X245354Y231155D01*
X245304Y231076D01*
X245252Y230999D01*
X245196Y230924D01*
X245137Y230852D01*
X245075Y230782D01*
X245011Y230714D01*
X244943Y230650D01*
X244873Y230588D01*
X244801Y230529D01*
X244726Y230473D01*
X244649Y230421D01*
X244570Y230371D01*
X244489Y230325D01*
X244406Y230282D01*
X244321Y230243D01*
X244235Y230207D01*
X244147Y230175D01*
X244058Y230147D01*
X243968Y230122D01*
X243877Y230101D01*
X243786Y230084D01*
X243693Y230070D01*
X243600Y230061D01*
X243507Y230055D01*
X243414Y230053D01*
X241156Y230053D01*
X243865Y230053D02*
X245671Y226441D01*
X249103Y228247D02*
X250910Y234569D01*
X249103Y228247D02*
X253619Y228247D01*
X252264Y230053D02*
X252264Y226441D01*
D14*
X269240Y73660D02*
X345440Y73660D01*
X269240Y73660D02*
X269240Y92710D01*
X269240Y137160D01*
X345440Y137160D01*
X345440Y92710D01*
X345440Y73660D01*
X345440Y92710D02*
X269240Y92710D01*
D13*
X233121Y96520D02*
X233121Y105664D01*
X235661Y105664D01*
X235761Y105662D01*
X235860Y105656D01*
X235960Y105646D01*
X236058Y105633D01*
X236157Y105615D01*
X236254Y105594D01*
X236350Y105569D01*
X236446Y105540D01*
X236540Y105507D01*
X236633Y105471D01*
X236724Y105431D01*
X236814Y105387D01*
X236902Y105340D01*
X236988Y105290D01*
X237072Y105236D01*
X237154Y105179D01*
X237233Y105119D01*
X237311Y105055D01*
X237385Y104989D01*
X237457Y104920D01*
X237526Y104848D01*
X237592Y104774D01*
X237656Y104696D01*
X237716Y104617D01*
X237773Y104535D01*
X237827Y104451D01*
X237877Y104365D01*
X237924Y104277D01*
X237968Y104187D01*
X238008Y104096D01*
X238044Y104003D01*
X238077Y103909D01*
X238106Y103813D01*
X238131Y103717D01*
X238152Y103620D01*
X238170Y103521D01*
X238183Y103423D01*
X238193Y103323D01*
X238199Y103224D01*
X238201Y103124D01*
X238199Y103024D01*
X238193Y102925D01*
X238183Y102825D01*
X238170Y102727D01*
X238152Y102628D01*
X238131Y102531D01*
X238106Y102435D01*
X238077Y102339D01*
X238044Y102245D01*
X238008Y102152D01*
X237968Y102061D01*
X237924Y101971D01*
X237877Y101883D01*
X237827Y101797D01*
X237773Y101713D01*
X237716Y101631D01*
X237656Y101552D01*
X237592Y101474D01*
X237526Y101400D01*
X237457Y101328D01*
X237385Y101259D01*
X237311Y101193D01*
X237233Y101129D01*
X237154Y101069D01*
X237072Y101012D01*
X236988Y100958D01*
X236902Y100908D01*
X236814Y100861D01*
X236724Y100817D01*
X236633Y100777D01*
X236540Y100741D01*
X236446Y100708D01*
X236350Y100679D01*
X236254Y100654D01*
X236157Y100633D01*
X236058Y100615D01*
X235960Y100602D01*
X235860Y100592D01*
X235761Y100586D01*
X235661Y100584D01*
X233121Y100584D01*
X244551Y96520D02*
X244640Y96522D01*
X244728Y96528D01*
X244816Y96537D01*
X244904Y96551D01*
X244991Y96568D01*
X245077Y96589D01*
X245162Y96614D01*
X245246Y96643D01*
X245329Y96675D01*
X245410Y96710D01*
X245489Y96750D01*
X245567Y96792D01*
X245643Y96838D01*
X245717Y96887D01*
X245788Y96940D01*
X245857Y96995D01*
X245924Y97054D01*
X245988Y97115D01*
X246049Y97179D01*
X246108Y97246D01*
X246163Y97315D01*
X246216Y97386D01*
X246265Y97460D01*
X246311Y97536D01*
X246353Y97614D01*
X246393Y97693D01*
X246428Y97774D01*
X246460Y97857D01*
X246489Y97941D01*
X246514Y98026D01*
X246535Y98112D01*
X246552Y98199D01*
X246566Y98287D01*
X246575Y98375D01*
X246581Y98463D01*
X246583Y98552D01*
X244551Y96520D02*
X244421Y96522D01*
X244290Y96528D01*
X244160Y96538D01*
X244031Y96552D01*
X243902Y96569D01*
X243773Y96591D01*
X243645Y96617D01*
X243518Y96646D01*
X243392Y96679D01*
X243267Y96716D01*
X243143Y96757D01*
X243021Y96802D01*
X242900Y96850D01*
X242780Y96902D01*
X242662Y96958D01*
X242546Y97017D01*
X242432Y97080D01*
X242319Y97146D01*
X242209Y97215D01*
X242101Y97288D01*
X241995Y97364D01*
X241891Y97443D01*
X241790Y97525D01*
X241692Y97611D01*
X241596Y97699D01*
X241503Y97790D01*
X241757Y103632D02*
X241759Y103721D01*
X241765Y103809D01*
X241774Y103897D01*
X241788Y103985D01*
X241805Y104072D01*
X241826Y104158D01*
X241851Y104243D01*
X241880Y104327D01*
X241912Y104410D01*
X241947Y104491D01*
X241987Y104570D01*
X242029Y104648D01*
X242075Y104724D01*
X242124Y104798D01*
X242177Y104869D01*
X242232Y104938D01*
X242291Y105005D01*
X242352Y105069D01*
X242416Y105130D01*
X242483Y105189D01*
X242552Y105244D01*
X242623Y105297D01*
X242697Y105346D01*
X242773Y105392D01*
X242851Y105434D01*
X242930Y105474D01*
X243011Y105509D01*
X243094Y105541D01*
X243178Y105570D01*
X243263Y105595D01*
X243349Y105616D01*
X243436Y105633D01*
X243524Y105647D01*
X243612Y105656D01*
X243700Y105662D01*
X243789Y105664D01*
X243912Y105662D01*
X244034Y105656D01*
X244156Y105646D01*
X244278Y105632D01*
X244399Y105615D01*
X244520Y105593D01*
X244640Y105568D01*
X244759Y105538D01*
X244877Y105505D01*
X244994Y105468D01*
X245109Y105428D01*
X245224Y105384D01*
X245337Y105336D01*
X245448Y105284D01*
X245557Y105229D01*
X245665Y105170D01*
X245771Y105108D01*
X245874Y105043D01*
X245976Y104974D01*
X246075Y104902D01*
X242773Y101854D02*
X242697Y101901D01*
X242623Y101951D01*
X242552Y102004D01*
X242483Y102061D01*
X242416Y102120D01*
X242352Y102182D01*
X242290Y102247D01*
X242232Y102315D01*
X242177Y102385D01*
X242124Y102457D01*
X242075Y102531D01*
X242029Y102608D01*
X241986Y102686D01*
X241947Y102767D01*
X241911Y102849D01*
X241879Y102932D01*
X241851Y103016D01*
X241826Y103102D01*
X241805Y103189D01*
X241788Y103277D01*
X241774Y103365D01*
X241765Y103454D01*
X241759Y103543D01*
X241757Y103632D01*
X245568Y100330D02*
X245644Y100283D01*
X245718Y100233D01*
X245789Y100180D01*
X245858Y100123D01*
X245925Y100064D01*
X245989Y100002D01*
X246051Y99937D01*
X246109Y99869D01*
X246164Y99799D01*
X246217Y99727D01*
X246266Y99653D01*
X246312Y99576D01*
X246355Y99498D01*
X246394Y99417D01*
X246430Y99335D01*
X246462Y99252D01*
X246490Y99168D01*
X246515Y99082D01*
X246536Y98995D01*
X246553Y98907D01*
X246567Y98819D01*
X246576Y98730D01*
X246582Y98641D01*
X246584Y98552D01*
X245567Y100330D02*
X242773Y101854D01*
X250647Y99060D02*
X250647Y105664D01*
X250647Y99060D02*
X250649Y98960D01*
X250655Y98861D01*
X250665Y98761D01*
X250678Y98663D01*
X250696Y98564D01*
X250717Y98467D01*
X250742Y98371D01*
X250771Y98275D01*
X250804Y98181D01*
X250840Y98088D01*
X250880Y97997D01*
X250924Y97907D01*
X250971Y97819D01*
X251021Y97733D01*
X251075Y97649D01*
X251132Y97567D01*
X251192Y97488D01*
X251256Y97410D01*
X251322Y97336D01*
X251391Y97264D01*
X251463Y97195D01*
X251537Y97129D01*
X251615Y97065D01*
X251694Y97005D01*
X251776Y96948D01*
X251860Y96894D01*
X251946Y96844D01*
X252034Y96797D01*
X252124Y96753D01*
X252215Y96713D01*
X252308Y96677D01*
X252402Y96644D01*
X252498Y96615D01*
X252594Y96590D01*
X252691Y96569D01*
X252790Y96551D01*
X252888Y96538D01*
X252988Y96528D01*
X253087Y96522D01*
X253187Y96520D01*
X253287Y96522D01*
X253386Y96528D01*
X253486Y96538D01*
X253584Y96551D01*
X253683Y96569D01*
X253780Y96590D01*
X253876Y96615D01*
X253972Y96644D01*
X254066Y96677D01*
X254159Y96713D01*
X254250Y96753D01*
X254340Y96797D01*
X254428Y96844D01*
X254514Y96894D01*
X254598Y96948D01*
X254680Y97005D01*
X254759Y97065D01*
X254837Y97129D01*
X254911Y97195D01*
X254983Y97264D01*
X255052Y97336D01*
X255118Y97410D01*
X255182Y97488D01*
X255242Y97567D01*
X255299Y97649D01*
X255353Y97733D01*
X255403Y97819D01*
X255450Y97907D01*
X255494Y97997D01*
X255534Y98088D01*
X255570Y98181D01*
X255603Y98275D01*
X255632Y98371D01*
X255657Y98467D01*
X255678Y98564D01*
X255696Y98663D01*
X255709Y98761D01*
X255719Y98861D01*
X255725Y98960D01*
X255727Y99060D01*
X255727Y105664D01*
X260096Y103632D02*
X262636Y105664D01*
X262636Y96520D01*
X260096Y96520D02*
X265176Y96520D01*
D15*
X305050Y442100D02*
X368050Y442100D01*
X368050Y243700D01*
X305050Y243700D01*
X305050Y442100D01*
X301550Y442550D02*
X280550Y442550D01*
D16*
X424180Y81130D03*
X424180Y101130D03*
X424180Y121130D03*
X424180Y141130D03*
X424180Y161130D03*
X424180Y181130D03*
X424180Y201130D03*
X424180Y221130D03*
D13*
X362645Y491998D02*
X362645Y503682D01*
X365890Y503682D01*
X366003Y503680D01*
X366116Y503674D01*
X366229Y503664D01*
X366342Y503650D01*
X366454Y503633D01*
X366565Y503611D01*
X366675Y503586D01*
X366785Y503556D01*
X366893Y503523D01*
X367000Y503486D01*
X367106Y503446D01*
X367210Y503401D01*
X367313Y503353D01*
X367414Y503302D01*
X367513Y503247D01*
X367610Y503189D01*
X367705Y503127D01*
X367798Y503062D01*
X367888Y502994D01*
X367976Y502923D01*
X368062Y502848D01*
X368145Y502771D01*
X368225Y502691D01*
X368302Y502608D01*
X368377Y502522D01*
X368448Y502434D01*
X368516Y502344D01*
X368581Y502251D01*
X368643Y502156D01*
X368701Y502059D01*
X368756Y501960D01*
X368807Y501859D01*
X368855Y501756D01*
X368900Y501652D01*
X368940Y501546D01*
X368977Y501439D01*
X369010Y501331D01*
X369040Y501221D01*
X369065Y501111D01*
X369087Y501000D01*
X369104Y500888D01*
X369118Y500775D01*
X369128Y500662D01*
X369134Y500549D01*
X369136Y500436D01*
X369134Y500323D01*
X369128Y500210D01*
X369118Y500097D01*
X369104Y499984D01*
X369087Y499872D01*
X369065Y499761D01*
X369040Y499651D01*
X369010Y499541D01*
X368977Y499433D01*
X368940Y499326D01*
X368900Y499220D01*
X368855Y499116D01*
X368807Y499013D01*
X368756Y498912D01*
X368701Y498813D01*
X368643Y498716D01*
X368581Y498621D01*
X368516Y498528D01*
X368448Y498438D01*
X368377Y498350D01*
X368302Y498264D01*
X368225Y498181D01*
X368145Y498101D01*
X368062Y498024D01*
X367976Y497949D01*
X367888Y497878D01*
X367798Y497810D01*
X367705Y497745D01*
X367610Y497683D01*
X367513Y497625D01*
X367414Y497570D01*
X367313Y497519D01*
X367210Y497471D01*
X367106Y497426D01*
X367000Y497386D01*
X366893Y497349D01*
X366785Y497316D01*
X366675Y497286D01*
X366565Y497261D01*
X366454Y497239D01*
X366342Y497222D01*
X366229Y497208D01*
X366116Y497198D01*
X366003Y497192D01*
X365890Y497190D01*
X365890Y497191D02*
X362645Y497191D01*
X366539Y497191D02*
X369136Y491998D01*
X374001Y491998D02*
X377896Y491998D01*
X377995Y492000D01*
X378095Y492006D01*
X378194Y492015D01*
X378292Y492028D01*
X378390Y492045D01*
X378488Y492066D01*
X378584Y492091D01*
X378679Y492119D01*
X378773Y492151D01*
X378866Y492186D01*
X378958Y492225D01*
X379048Y492268D01*
X379136Y492313D01*
X379223Y492363D01*
X379307Y492415D01*
X379390Y492471D01*
X379470Y492529D01*
X379548Y492591D01*
X379623Y492656D01*
X379696Y492724D01*
X379766Y492794D01*
X379834Y492867D01*
X379899Y492942D01*
X379961Y493020D01*
X380019Y493100D01*
X380075Y493183D01*
X380127Y493267D01*
X380177Y493354D01*
X380222Y493442D01*
X380265Y493532D01*
X380304Y493624D01*
X380339Y493717D01*
X380371Y493811D01*
X380399Y493906D01*
X380424Y494002D01*
X380445Y494100D01*
X380462Y494198D01*
X380475Y494296D01*
X380484Y494395D01*
X380490Y494495D01*
X380492Y494594D01*
X380492Y495893D01*
X380490Y495992D01*
X380484Y496092D01*
X380475Y496191D01*
X380462Y496289D01*
X380445Y496387D01*
X380424Y496485D01*
X380399Y496581D01*
X380371Y496676D01*
X380339Y496770D01*
X380304Y496863D01*
X380265Y496955D01*
X380222Y497045D01*
X380177Y497133D01*
X380127Y497220D01*
X380075Y497304D01*
X380019Y497387D01*
X379961Y497467D01*
X379899Y497545D01*
X379834Y497620D01*
X379766Y497693D01*
X379696Y497763D01*
X379623Y497831D01*
X379548Y497896D01*
X379470Y497958D01*
X379390Y498016D01*
X379307Y498072D01*
X379223Y498124D01*
X379136Y498174D01*
X379048Y498219D01*
X378958Y498262D01*
X378866Y498301D01*
X378773Y498336D01*
X378679Y498368D01*
X378584Y498396D01*
X378488Y498421D01*
X378390Y498442D01*
X378292Y498459D01*
X378194Y498472D01*
X378095Y498481D01*
X377995Y498487D01*
X377896Y498489D01*
X374001Y498489D01*
X374001Y503682D01*
X380492Y503682D01*
D17*
X288290Y163830D03*
X288290Y189230D03*
X288290Y214630D03*
M02*
