G04 EAGLE Gerber RS-274X export*
G75*
%MOMM*%
%FSLAX34Y34*%
%LPD*%
%INSoldermask Top*%
%IPPOS*%
%AMOC8*
5,1,8,0,0,1.08239X$1,22.5*%
G01*
%ADD10C,1.203200*%
%ADD11R,1.511200X1.511200*%
%ADD12C,1.511200*%
%ADD13R,2.235200X0.863600*%
%ADD14R,2.003200X1.803200*%
%ADD15R,1.803200X2.003200*%
%ADD16R,2.006200X1.803200*%
%ADD17R,1.803200X2.006200*%
%ADD18C,1.711200*%
%ADD19R,2.303200X1.653200*%
%ADD20C,1.625600*%
%ADD21C,1.981200*%
%ADD22C,0.959600*%


D10*
X19050Y44450D03*
X438150Y44450D03*
X19050Y539750D03*
X438150Y539750D03*
D11*
X50800Y533400D03*
D12*
X50800Y508000D03*
X50800Y482600D03*
X50800Y457200D03*
X50800Y431800D03*
X50800Y406400D03*
X50800Y381000D03*
X50800Y355600D03*
X50800Y330200D03*
X50800Y304800D03*
X50800Y279400D03*
X50800Y254000D03*
X50800Y228600D03*
X50800Y203200D03*
X50800Y177800D03*
X50800Y152400D03*
X50800Y127000D03*
X50800Y101600D03*
X50800Y76200D03*
X50800Y50800D03*
X203200Y50800D03*
X203200Y76200D03*
X203200Y101600D03*
X203200Y127000D03*
X203200Y152400D03*
X203200Y177800D03*
X203200Y203200D03*
X203200Y228600D03*
X203200Y254000D03*
X203200Y279400D03*
X203200Y304800D03*
X203200Y330200D03*
X203200Y355600D03*
X203200Y381000D03*
X203200Y406400D03*
X203200Y431800D03*
X203200Y457200D03*
X203200Y482600D03*
X203200Y508000D03*
D11*
X203200Y533400D03*
D13*
X249936Y516890D03*
X311404Y516890D03*
X249936Y504190D03*
X249936Y491490D03*
X311404Y504190D03*
X311404Y491490D03*
X249936Y478790D03*
X311404Y478790D03*
D14*
X378460Y100360D03*
X378460Y72360D03*
D15*
X245080Y59690D03*
X273080Y59690D03*
X331500Y59690D03*
X303500Y59690D03*
D16*
X247650Y409190D03*
X247650Y380750D03*
D17*
X342650Y163830D03*
X371090Y163830D03*
D16*
X245110Y156460D03*
X245110Y128020D03*
X247650Y280920D03*
X247650Y252480D03*
D18*
X332740Y112950D02*
X332740Y97870D01*
X307340Y97870D02*
X307340Y112950D01*
X281940Y112950D02*
X281940Y97870D01*
D19*
X291050Y431800D03*
X291050Y406400D03*
X291050Y381000D03*
X291050Y355600D03*
X291050Y330200D03*
X291050Y304800D03*
X291050Y279400D03*
X291050Y254000D03*
X382050Y254000D03*
X382050Y279400D03*
X382050Y304800D03*
X382050Y330200D03*
X382050Y355600D03*
X382050Y381000D03*
X382050Y406400D03*
X382050Y431800D03*
D20*
X424180Y81130D03*
X424180Y101130D03*
X424180Y121130D03*
X424180Y141130D03*
X424180Y161130D03*
X424180Y181130D03*
X424180Y201130D03*
X424180Y221130D03*
D17*
X354080Y516890D03*
X382520Y516890D03*
D21*
X288290Y163830D03*
X288290Y189230D03*
X288290Y214630D03*
D22*
X360680Y214630D03*
X267970Y491490D03*
X398780Y381000D03*
X274320Y381000D03*
X398780Y431800D03*
X365760Y279400D03*
M02*
