G04 EAGLE Gerber RS-274X export*
G75*
%MOMM*%
%FSLAX34Y34*%
%LPD*%
%INSoldermask Bottom*%
%IPPOS*%
%AMOC8*
5,1,8,0,0,1.08239X$1,22.5*%
G01*
%ADD10C,1.203200*%
%ADD11R,1.511200X1.511200*%
%ADD12C,1.511200*%
%ADD13C,1.711200*%
%ADD14C,1.625600*%
%ADD15C,1.981200*%
%ADD16C,0.959600*%


D10*
X19050Y44450D03*
X438150Y44450D03*
X19050Y539750D03*
X438150Y539750D03*
D11*
X50800Y533400D03*
D12*
X50800Y508000D03*
X50800Y482600D03*
X50800Y457200D03*
X50800Y431800D03*
X50800Y406400D03*
X50800Y381000D03*
X50800Y355600D03*
X50800Y330200D03*
X50800Y304800D03*
X50800Y279400D03*
X50800Y254000D03*
X50800Y228600D03*
X50800Y203200D03*
X50800Y177800D03*
X50800Y152400D03*
X50800Y127000D03*
X50800Y101600D03*
X50800Y76200D03*
X50800Y50800D03*
X203200Y50800D03*
X203200Y76200D03*
X203200Y101600D03*
X203200Y127000D03*
X203200Y152400D03*
X203200Y177800D03*
X203200Y203200D03*
X203200Y228600D03*
X203200Y254000D03*
X203200Y279400D03*
X203200Y304800D03*
X203200Y330200D03*
X203200Y355600D03*
X203200Y381000D03*
X203200Y406400D03*
X203200Y431800D03*
X203200Y457200D03*
X203200Y482600D03*
X203200Y508000D03*
D11*
X203200Y533400D03*
D13*
X332740Y112950D02*
X332740Y97870D01*
X307340Y97870D02*
X307340Y112950D01*
X281940Y112950D02*
X281940Y97870D01*
D14*
X424180Y81130D03*
X424180Y101130D03*
X424180Y121130D03*
X424180Y141130D03*
X424180Y161130D03*
X424180Y181130D03*
X424180Y201130D03*
X424180Y221130D03*
D15*
X288290Y163830D03*
X288290Y189230D03*
X288290Y214630D03*
D16*
X360680Y214630D03*
X267970Y491490D03*
X398780Y381000D03*
X274320Y381000D03*
X398780Y431800D03*
X365760Y279400D03*
M02*
