M48
;GenerationSoftware,Autodesk,EAGLE,9.3.1*%
;CreationDate,2019-03-06T23:01:15Z*%
FMAT,2
ICI,OFF
METRIC,TZ,000.000
T4C0.350
T3C0.800
T2C1.000
T1C1.016
%
G90
M71
T1
X28829Y18923
X28829Y16383
X28829Y21463
T2
X1905Y53975
X28194Y10541
X30734Y10541
X33274Y10541
X1905Y4445
X43815Y4445
X43815Y53975
T3
X5080Y38100
X5080Y53340
X5080Y50800
X5080Y48260
X5080Y45720
X5080Y43180
X5080Y40640
X5080Y35560
X5080Y33020
X5080Y30480
X5080Y27940
X5080Y25400
X5080Y22860
X5080Y20320
X5080Y17780
X5080Y15240
X5080Y12700
X5080Y10160
X5080Y7620
X5080Y5080
X20320Y5080
X20320Y7620
X20320Y10160
X20320Y12700
X20320Y15240
X20320Y17780
X20320Y20320
X20320Y22860
X20320Y25400
X20320Y27940
X20320Y30480
X20320Y33020
X20320Y35560
X20320Y38100
X20320Y40640
X20320Y43180
X20320Y45720
X20320Y50800
X20320Y53340
X42418Y8113
X42418Y10113
X20320Y48260
X42418Y14113
X42418Y16113
X42418Y18113
X42418Y20113
X42418Y22113
X42418Y12113
T4
X36576Y27940
X39878Y43180
X27432Y38100
X39878Y38100
X26797Y49149
X36068Y21463
M30